<svg class="marks" width="657" height="741" viewBox="0 0 657 741" version="1.1" xmlns="http://www.w3.org/2000/svg" xmlns:xlink="http://www.w3.org/1999/xlink"><rect width="657" height="741" style="fill: white;"></rect><g transform="translate(51,25)"><g class="mark-group role-frame root"><g transform="translate(0,0)"><path class="background" d="M0.5,0.5h600v600h-600Z" style="fill: none; stroke: #ddd;"></path><g><g class="mark-group role-axis"><g transform="translate(0.5,600.5)"><path class="background" d="M0,0h0v0h0Z" style="pointer-events: none; fill: none;"></path><g><g class="mark-rule role-axis-grid" style="pointer-events: none;"><line transform="translate(0,-600)" x2="0" y2="600" style="fill: none; stroke: #ddd; stroke-width: 1; opacity: 1;"></line><line transform="translate(283,-600)" x2="0" y2="600" style="fill: none; stroke: #ddd; stroke-width: 1; opacity: 1;"></line><line transform="translate(359,-600)" x2="0" y2="600" style="fill: none; stroke: #ddd; stroke-width: 1; opacity: 1;"></line><line transform="translate(405,-600)" x2="0" y2="600" style="fill: none; stroke: #ddd; stroke-width: 1; opacity: 1;"></line><line transform="translate(438,-600)" x2="0" y2="600" style="fill: none; stroke: #ddd; stroke-width: 1; opacity: 1;"></line><line transform="translate(464,-600)" x2="0" y2="600" style="fill: none; stroke: #ddd; stroke-width: 1; opacity: 1;"></line><line transform="translate(485,-600)" x2="0" y2="600" style="fill: none; stroke: #ddd; stroke-width: 1; opacity: 1;"></line><line transform="translate(503,-600)" x2="0" y2="600" style="fill: none; stroke: #ddd; stroke-width: 1; opacity: 1;"></line><line transform="translate(519,-600)" x2="0" y2="600" style="fill: none; stroke: #ddd; stroke-width: 1; opacity: 1;"></line><line transform="translate(533,-600)" x2="0" y2="600" style="fill: none; stroke: #ddd; stroke-width: 1; opacity: 1;"></line><line transform="translate(545,-600)" x2="0" y2="600" style="fill: none; stroke: #ddd; stroke-width: 1; opacity: 1;"></line><line transform="translate(556,-600)" x2="0" y2="600" style="fill: none; stroke: #ddd; stroke-width: 1; opacity: 1;"></line><line transform="translate(566,-600)" x2="0" y2="600" style="fill: none; stroke: #ddd; stroke-width: 1; opacity: 1;"></line><line transform="translate(576,-600)" x2="0" y2="600" style="fill: none; stroke: #ddd; stroke-width: 1; opacity: 1;"></line><line transform="translate(584,-600)" x2="0" y2="600" style="fill: none; stroke: #ddd; stroke-width: 1; opacity: 1;"></line><line transform="translate(592,-600)" x2="0" y2="600" style="fill: none; stroke: #ddd; stroke-width: 1; opacity: 1;"></line><line transform="translate(600,-600)" x2="0" y2="600" style="fill: none; stroke: #ddd; stroke-width: 1; opacity: 1;"></line></g></g><path class="foreground" d="" style="pointer-events: none; display: none; fill: none;"></path></g></g><g class="mark-group role-axis"><g transform="translate(0.5,0.5)"><path class="background" d="M0,0h0v0h0Z" style="pointer-events: none; fill: none;"></path><g><g class="mark-rule role-axis-grid" style="pointer-events: none;"><line transform="translate(0,600)" x2="600" y2="0" style="fill: none; stroke: #ddd; stroke-width: 1; opacity: 1;"></line><line transform="translate(0,280)" x2="600" y2="0" style="fill: none; stroke: #ddd; stroke-width: 1; opacity: 1;"></line><line transform="translate(0,210)" x2="600" y2="0" style="fill: none; stroke: #ddd; stroke-width: 1; opacity: 1;"></line><line transform="translate(0,168)" x2="600" y2="0" style="fill: none; stroke: #ddd; stroke-width: 1; opacity: 1;"></line><line transform="translate(0,138)" x2="600" y2="0" style="fill: none; stroke: #ddd; stroke-width: 1; opacity: 1;"></line><line transform="translate(0,115)" x2="600" y2="0" style="fill: none; stroke: #ddd; stroke-width: 1; opacity: 1;"></line><line transform="translate(0,96)" x2="600" y2="0" style="fill: none; stroke: #ddd; stroke-width: 1; opacity: 1;"></line><line transform="translate(0,80)" x2="600" y2="0" style="fill: none; stroke: #ddd; stroke-width: 1; opacity: 1;"></line><line transform="translate(0,66)" x2="600" y2="0" style="fill: none; stroke: #ddd; stroke-width: 1; opacity: 1;"></line><line transform="translate(0,53)" x2="600" y2="0" style="fill: none; stroke: #ddd; stroke-width: 1; opacity: 1;"></line><line transform="translate(0,42)" x2="600" y2="0" style="fill: none; stroke: #ddd; stroke-width: 1; opacity: 1;"></line><line transform="translate(0,32)" x2="600" y2="0" style="fill: none; stroke: #ddd; stroke-width: 1; opacity: 1;"></line><line transform="translate(0,23)" x2="600" y2="0" style="fill: none; stroke: #ddd; stroke-width: 1; opacity: 1;"></line><line transform="translate(0,15)" x2="600" y2="0" style="fill: none; stroke: #ddd; stroke-width: 1; opacity: 1;"></line><line transform="translate(0,7)" x2="600" y2="0" style="fill: none; stroke: #ddd; stroke-width: 1; opacity: 1;"></line><line transform="translate(0,0)" x2="600" y2="0" style="fill: none; stroke: #ddd; stroke-width: 1; opacity: 1;"></line></g></g><path class="foreground" d="" style="pointer-events: none; display: none; fill: none;"></path></g></g><g class="mark-group role-axis"><g transform="translate(0.5,600.5)"><path class="background" d="M0,0h0v0h0Z" style="pointer-events: none; fill: none;"></path><g><g class="mark-rule role-axis-tick" style="pointer-events: none;"><line transform="translate(0,0)" x2="0" y2="5" style="fill: none; stroke: #888; stroke-width: 1; opacity: 1;"></line><line transform="translate(283,0)" x2="0" y2="5" style="fill: none; stroke: #888; stroke-width: 1; opacity: 1;"></line><line transform="translate(359,0)" x2="0" y2="5" style="fill: none; stroke: #888; stroke-width: 1; opacity: 1;"></line><line transform="translate(405,0)" x2="0" y2="5" style="fill: none; stroke: #888; stroke-width: 1; opacity: 1;"></line><line transform="translate(438,0)" x2="0" y2="5" style="fill: none; stroke: #888; stroke-width: 1; opacity: 1;"></line><line transform="translate(464,0)" x2="0" y2="5" style="fill: none; stroke: #888; stroke-width: 1; opacity: 1;"></line><line transform="translate(485,0)" x2="0" y2="5" style="fill: none; stroke: #888; stroke-width: 1; opacity: 1;"></line><line transform="translate(503,0)" x2="0" y2="5" style="fill: none; stroke: #888; stroke-width: 1; opacity: 1;"></line><line transform="translate(519,0)" x2="0" y2="5" style="fill: none; stroke: #888; stroke-width: 1; opacity: 1;"></line><line transform="translate(533,0)" x2="0" y2="5" style="fill: none; stroke: #888; stroke-width: 1; opacity: 1;"></line><line transform="translate(545,0)" x2="0" y2="5" style="fill: none; stroke: #888; stroke-width: 1; opacity: 1;"></line><line transform="translate(556,0)" x2="0" y2="5" style="fill: none; stroke: #888; stroke-width: 1; opacity: 1;"></line><line transform="translate(566,0)" x2="0" y2="5" style="fill: none; stroke: #888; stroke-width: 1; opacity: 1;"></line><line transform="translate(576,0)" x2="0" y2="5" style="fill: none; stroke: #888; stroke-width: 1; opacity: 1;"></line><line transform="translate(584,0)" x2="0" y2="5" style="fill: none; stroke: #888; stroke-width: 1; opacity: 1;"></line><line transform="translate(592,0)" x2="0" y2="5" style="fill: none; stroke: #888; stroke-width: 1; opacity: 1;"></line><line transform="translate(600,0)" x2="0" y2="5" style="fill: none; stroke: #888; stroke-width: 1; opacity: 1;"></line></g><g class="mark-text role-axis-label" style="pointer-events: none;"><text text-anchor="start" transform="translate(0,15)" style="font-family: sans-serif; font-size: 10px; fill: #000; opacity: 1;">0</text><text text-anchor="middle" transform="translate(283.1377037405724,15)" style="font-family: sans-serif; font-size: 10px; fill: #000; opacity: 0;">10</text><text text-anchor="middle" transform="translate(359.4898833916437,15)" style="font-family: sans-serif; font-size: 10px; fill: #000; opacity: 0;">20</text><text text-anchor="middle" transform="translate(405.4769458791905,15)" style="font-family: sans-serif; font-size: 10px; fill: #000; opacity: 0;">30</text><text text-anchor="middle" transform="translate(438.4896536431022,15)" style="font-family: sans-serif; font-size: 10px; fill: #000; opacity: 0;">40</text><text text-anchor="middle" transform="translate(464.2605095337278,15)" style="font-family: sans-serif; font-size: 10px; fill: #000; opacity: 0;">50</text><text text-anchor="middle" transform="translate(485.40209385826523,15)" style="font-family: sans-serif; font-size: 10px; fill: #000; opacity: 0;">60</text><text text-anchor="middle" transform="translate(503.32698256589333,15)" style="font-family: sans-serif; font-size: 10px; fill: #000; opacity: 0;">70</text><text text-anchor="middle" transform="translate(518.8859817912809,15)" style="font-family: sans-serif; font-size: 10px; fill: #000; opacity: 1;">80</text><text text-anchor="middle" transform="translate(532.6314360180594,15)" style="font-family: sans-serif; font-size: 10px; fill: #000; opacity: 0;">90</text><text text-anchor="middle" transform="translate(544.9423252331982,15)" style="font-family: sans-serif; font-size: 10px; fill: #000; opacity: 0;">100</text><text text-anchor="middle" transform="translate(556.0899935968863,15)" style="font-family: sans-serif; font-size: 10px; fill: #000; opacity: 0;">110</text><text text-anchor="middle" transform="translate(566.2754074811448,15)" style="font-family: sans-serif; font-size: 10px; fill: #000; opacity: 0;">120</text><text text-anchor="middle" transform="translate(575.6515687036126,15)" style="font-family: sans-serif; font-size: 10px; fill: #000; opacity: 0;">130</text><text text-anchor="middle" transform="translate(584.3376596217765,15)" style="font-family: sans-serif; font-size: 10px; fill: #000; opacity: 0;">140</text><text text-anchor="middle" transform="translate(592.4283300170226,15)" style="font-family: sans-serif; font-size: 10px; fill: #000; opacity: 0;">150</text><text text-anchor="end" transform="translate(600,15)" style="font-family: sans-serif; font-size: 10px; fill: #000; opacity: 1;">160</text></g><g class="mark-rule role-axis-domain" style="pointer-events: none;"><line transform="translate(0,0)" x2="600" y2="0" style="fill: none; stroke: #888; stroke-width: 1; opacity: 1;"></line></g><g class="mark-text role-axis-title" style="pointer-events: none;"><text text-anchor="middle" transform="translate(300,30)" style="font-family: sans-serif; font-size: 11px; font-weight: bold; fill: #000; opacity: 1;">Starting leaf count</text></g></g><path class="foreground" d="" style="pointer-events: none; display: none; fill: none;"></path></g></g><g class="mark-group role-axis"><g transform="translate(0.5,0.5)"><path class="background" d="M0,0h0v0h0Z" style="pointer-events: none; fill: none;"></path><g><g class="mark-rule role-axis-tick" style="pointer-events: none;"><line transform="translate(0,600)" x2="-5" y2="0" style="fill: none; stroke: #888; stroke-width: 1; opacity: 1;"></line><line transform="translate(0,280)" x2="-5" y2="0" style="fill: none; stroke: #888; stroke-width: 1; opacity: 1;"></line><line transform="translate(0,210)" x2="-5" y2="0" style="fill: none; stroke: #888; stroke-width: 1; opacity: 1;"></line><line transform="translate(0,168)" x2="-5" y2="0" style="fill: none; stroke: #888; stroke-width: 1; opacity: 1;"></line><line transform="translate(0,138)" x2="-5" y2="0" style="fill: none; stroke: #888; stroke-width: 1; opacity: 1;"></line><line transform="translate(0,115)" x2="-5" y2="0" style="fill: none; stroke: #888; stroke-width: 1; opacity: 1;"></line><line transform="translate(0,96)" x2="-5" y2="0" style="fill: none; stroke: #888; stroke-width: 1; opacity: 1;"></line><line transform="translate(0,80)" x2="-5" y2="0" style="fill: none; stroke: #888; stroke-width: 1; opacity: 1;"></line><line transform="translate(0,66)" x2="-5" y2="0" style="fill: none; stroke: #888; stroke-width: 1; opacity: 1;"></line><line transform="translate(0,53)" x2="-5" y2="0" style="fill: none; stroke: #888; stroke-width: 1; opacity: 1;"></line><line transform="translate(0,42)" x2="-5" y2="0" style="fill: none; stroke: #888; stroke-width: 1; opacity: 1;"></line><line transform="translate(0,32)" x2="-5" y2="0" style="fill: none; stroke: #888; stroke-width: 1; opacity: 1;"></line><line transform="translate(0,23)" x2="-5" y2="0" style="fill: none; stroke: #888; stroke-width: 1; opacity: 1;"></line><line transform="translate(0,15)" x2="-5" y2="0" style="fill: none; stroke: #888; stroke-width: 1; opacity: 1;"></line><line transform="translate(0,7)" x2="-5" y2="0" style="fill: none; stroke: #888; stroke-width: 1; opacity: 1;"></line><line transform="translate(0,0)" x2="-5" y2="0" style="fill: none; stroke: #888; stroke-width: 1; opacity: 1;"></line></g><g class="mark-text role-axis-label" style="pointer-events: none;"><text text-anchor="end" transform="translate(-7,603)" style="font-family: sans-serif; font-size: 10px; fill: #000; opacity: 1;">0</text><text text-anchor="end" transform="translate(-7,282.9232224551328)" style="font-family: sans-serif; font-size: 10px; fill: #000; opacity: 0;">20</text><text text-anchor="end" transform="translate(-7,212.5846870551698)" style="font-family: sans-serif; font-size: 10px; fill: #000; opacity: 1;">40</text><text text-anchor="end" transform="translate(-7,170.81554866059363)" style="font-family: sans-serif; font-size: 10px; fill: #000; opacity: 0;">60</text><text text-anchor="end" transform="translate(-7,141.0027070636102)" style="font-family: sans-serif; font-size: 10px; fill: #000; opacity: 1;">80</text><text text-anchor="end" transform="translate(-7,117.80308218180173)" style="font-family: sans-serif; font-size: 10px; fill: #000; opacity: 0;">100</text><text text-anchor="end" transform="translate(-7,98.80887807068513)" style="font-family: sans-serif; font-size: 10px; fill: #000; opacity: 1;">120</text><text text-anchor="end" transform="translate(-7,82.72690267312463)" style="font-family: sans-serif; font-size: 10px; fill: #000; opacity: 0;">140</text><text text-anchor="end" transform="translate(-7,68.78172182470823)" style="font-family: sans-serif; font-size: 10px; fill: #000; opacity: 1;">160</text><text text-anchor="end" transform="translate(-7,56.47153391704402)" style="font-family: sans-serif; font-size: 10px; fill: #000; opacity: 0;">180</text><text text-anchor="end" transform="translate(-7,45.45287067789651)" style="font-family: sans-serif; font-size: 10px; fill: #000; opacity: 1;">200</text><text text-anchor="end" transform="translate(-7,35.48027974571301)" style="font-family: sans-serif; font-size: 10px; fill: #000; opacity: 0;">220</text><text text-anchor="end" transform="translate(-7,26.372248400180794)" style="font-family: sans-serif; font-size: 10px; fill: #000; opacity: 1;">240</text><text text-anchor="end" transform="translate(-7,17.990758980801555)" style="font-family: sans-serif; font-size: 10px; fill: #000; opacity: 0;">260</text><text text-anchor="end" transform="translate(-7,10.228414264901772)" style="font-family: sans-serif; font-size: 10px; fill: #000; opacity: 1;">280</text><text text-anchor="end" transform="translate(-7,3)" style="font-family: sans-serif; font-size: 10px; fill: #000; opacity: 0;">300</text></g><g class="mark-rule role-axis-domain" style="pointer-events: none;"><line transform="translate(0,600)" x2="0" y2="-600" style="fill: none; stroke: #888; stroke-width: 1; opacity: 1;"></line></g><g class="mark-text role-axis-title" style="pointer-events: none;"><text text-anchor="middle" transform="translate(-35,300) rotate(-90) translate(0,-2)" style="font-family: sans-serif; font-size: 11px; font-weight: bold; fill: #000; opacity: 1;">Final STATE count</text></g></g><path class="foreground" d="" style="pointer-events: none; display: none; fill: none;"></path></g></g><g class="mark-group role-scope layer_0_pathgroup"><g transform="translate(0,0)"><path class="background" d="M0,0h600v600h-600Z" style="fill: none;"></path><g><g class="mark-line role-mark layer_0_marks"><path d="M81.84515115581415,455.4207450689382L129.7214954478202,451.1323021272192L163.6903023116283,446.79678066618914L190.03855589898774,444.1556466587488L211.56664660363435,444.14551920165866L229.76838794382346,441.29498215010653L245.53545346744244,437.11196527216936L259.44299089564043,437.12362793514706L271.8837070548019,440.31089744808963L283.1377037405724,433.0334864709805L293.4117977594485,427.7176711822802L302.86304807423596,433.13891754676547L311.6135390996376,436.7953330736999L319.760051346808,427.9247823368488L327.3806046232566,441.8733130775643L334.53901408590764,420.847216414678L341.28814205145454,405.36368085252326L347.67226943673194,422.4437222525498L353.728858210616,422.3293338011881L359.4898833916437,418.942657797545L364.9828548963866,443.3437148738425L370.2316120561765,419.3285014267422L375.2569489152626,323.2056200050862L380.0771117979755,419.84353663098284L384.7081992300502,319.68317729632145L389.1644863434606,427.72678686752295L393.45869025545176,367.48863407195887L397.60218885828857,459.1468243746597L401.6052025026221,389.17524784266175L405.4769458791905,434.0821958335818L409.2257557790707,436.55865086406294L412.8591991883926,423.1933329480473L416.38416524172175,396.6816293151845L419.8069438428112,424.9543850779495L423.1332932072687,405.0966776448352L426.3684981490661,387.7577067066988L429.5174205925461,427.3492930589501L432.58454352205615,391.7333245405149L435.5740093664302,377.0924207338699L438.4896536431022,447.0027185285991L441.33503454745784,430.79654980120637L444.11345906006,463.4037613136944L446.8280060522007,381.3841213627224L449.4815467946282,449.5827770972804L452.0767632119907,411.62871722014336L454.61616417395635,267.35520288636826L457.1021000710768,464.60528408627414L459.5367758876469,422.1507011519283L461.92226295378964,448.57188307281484L464.2605095337278,438.0499086266256L466.5533503858643,334.4650591481719L468.80251541220474,402.0646640440529L471.00963749927485,411.62871722014336L473.1762596395602,484.5006767659026L475.303841411266,484.5006767659026L477.39376488455224,328.7366064542795L479.4473400141027,430.79654980120637L481.4658095707194,430.79654980120637L483.45035365843626,362.2162887816593L485.40209385826523,454.2560809084816L487.32209703500473,372.9690722682095L489.21137883946386,411.62871722014336L491.0709069348849,275.03247948958335L492.9016039732237,454.2560809084816L496.47998671766663,384.7219259792565L498.2293163975359,395.4225456892302L501.65209499862544,388.16918611286815L503.32698256589333,199.79790333301148L506.60712664950563,484.5006767659026L511.3625717483603,430.79654980120637L512.9060916843958,365.17795358652415L514.4296946778703,484.5006767659026L515.9338881876662,395.4225456892302L517.4191605222443,454.2560809084816L518.8859817912809,417.6378995138268L520.3348047989164,484.5006767659026L521.7660658828646,484.5006767659026L523.180185703272,484.5006767659026L525.9586102158742,454.2560809084816L527.3236843061088,357.9245902554471L530.0073815022038,302.13857318761126L532.6314360180594,484.5006767659026L533.9219143678048,484.5006767659026L538.9472512268909,454.2560809084816L540.1708641840045,484.5006767659026L541.381927043461,484.5006767659026L542.5806946362128,430.79654980120637L544.9423252331982,484.5006767659026L546.1056606895419,454.2560809084816L551.7563845139327,330.34170655810175L572.916058090699,338.7567576743841L594.75124284021,357.9245902554471" style="fill: none; stroke: #4c78a8; stroke-width: 2;"></path></g></g><path class="foreground" d="" style="display: none; fill: none;"></path></g><g transform="translate(0,0)"><path class="background" d="M0,0h600v600h-600Z" style="fill: none;"></path><g><g class="mark-line role-mark layer_0_marks"><path d="M81.84515115581415,430.79654980120637L129.7214954478202,395.4225456892302L163.6903023116283,338.7567576743841L190.03855589898774,338.7567576743841L211.56664660363435,338.7567576743841L229.76838794382346,302.13857318761126L245.53545346744244,220.376925084368L259.44299089564043,217.57323854126233L271.8837070548019,322.5505861434711L283.1377037405724,242.42526702134975L293.4117977594485,153.3471359446774L302.86304807423596,217.57323854126233L311.6135390996376,290.44519808702154L319.760051346808,132.93512298881765L327.3806046232566,338.7567576743841L334.53901408590764,235.64020227120395L341.28814205145454,156.3946540960928L347.67226943673194,296.12939398604595L353.728858210616,253.50203029770768L359.4898833916437,279.9232224551328L364.9828548963866,369.0013535318051L370.2316120561765,238.9780068877381L375.2569489152626,13.391762154950214L380.0771117979755,223.25743444028672L384.7081992300502,2.116823485968622L389.1644863434606,347.90443903534253L393.45869025545176,143.32698472457278L397.60218885828857,381.3841213627224L401.6052025026221,212.1806711639288L405.4769458791905,249.67862659771185L409.2257557790707,338.7567576743841L412.8591991883926,308.51216181696316L416.38416524172175,279.9232224551328L419.8069438428112,296.12939398604595L423.1332932072687,290.44519808702154L426.3684981490661,290.44519808702154L429.5174205925461,369.0013535318051L432.58454352205615,253.50203029770768L435.5740093664302,238.9780068877381L438.4896536431022,411.62871722014336L441.33503454745784,369.0013535318051L444.11345906006,411.62871722014336L446.8280060522007,207.05126290937358L449.4815467946282,338.7567576743841L452.0767632119907,357.9245902554471L454.61616417395635,161.13825635930814L457.1021000710768,430.79654980120637L459.5367758876469,369.0013535318051L461.92226295378964,395.4225456892302L464.2605095337278,381.3841213627224L466.5533503858643,214.84238332400426L468.80251541220474,308.51216181696316L471.00963749927485,357.9245902554471L473.1762596395602,484.5006767659026L475.303841411266,484.5006767659026L477.39376488455224,232.40511580124513L479.4473400141027,430.79654980120637L481.4658095707194,430.79654980120637L483.45035365843626,261.5930996024128L485.40209385826523,411.62871722014336L487.32209703500473,322.5505861434711L489.21137883946386,369.0013535318051L491.0709069348849,209.5846870551698L492.9016039732237,454.2560809084816L496.47998671766663,290.44519808702154L498.2293163975359,395.4225456892302L501.65209499862544,369.0013535318051L503.32698256589333,199.79790333301148L506.60712664950563,484.5006767659026L511.3625717483603,395.4225456892302L512.9060916843958,290.44519808702154L514.4296946778703,484.5006767659026L515.9338881876662,381.3841213627224L517.4191605222443,454.2560809084816L518.8859817912809,395.4225456892302L520.3348047989164,484.5006767659026L521.7660658828646,484.5006767659026L523.180185703272,484.5006767659026L525.9586102158742,430.79654980120637L527.3236843061088,357.9245902554471L530.0073815022038,275.03247948958335L532.6314360180594,484.5006767659026L533.9219143678048,484.5006767659026L538.9472512268909,454.2560809084816L540.1708641840045,484.5006767659026L541.381927043461,484.5006767659026L542.5806946362128,430.79654980120637L544.9423252331982,484.5006767659026L546.1056606895419,454.2560809084816L551.7563845139327,330.34170655810175L572.916058090699,338.7567576743841L594.75124284021,357.9245902554471" style="fill: none; stroke: #f58518; stroke-width: 2;"></path></g></g><path class="foreground" d="" style="display: none; fill: none;"></path></g><g transform="translate(0,0)"><path class="background" d="M0,0h600v600h-600Z" style="fill: none;"></path><g><g class="mark-line role-mark layer_0_marks"><path d="M81.84515115581415,553.5067678550481L129.7214954478202,550.9897206188062L163.6903023116283,549.9995376265597L190.03855589898774,545.8922961984125L211.56664660363435,550.741298198495L229.76838794382346,555.1757685688493L245.53545346744244,556.6089970369245L259.44299089564043,548.0467160808614L271.8837070548019,555.1757685688493L283.1377037405724,557.2669756802693L293.4117977594485,559.5354292866093L302.86304807423596,561.3037669822618L311.6135390996376,561.0297706847601L319.760051346808,567.0840302358189L327.3806046232566,573.5083549234532L334.53901408590764,576.1605865679652L341.28814205145454,579.5320357113995L347.67226943673194,581.1762988277231L353.728858210616,583.015194317461L359.4898833916437,588.3775882200803L364.9828548963866,588.0232500323403L370.2316120561765,588.9113448627351L375.2569489152626,591.2561254873215L380.0771117979755,590.3480870174565L384.7081992300502,594.0282675937366L389.1644863434606,594.780019190055L393.45869025545176,595.5371849603633L397.60218885828857,595.7273315860384L401.6052025026221,594.5915767934265L405.4769458791905,594.9687998639904L409.2257557790707,597.0680750580244L412.8591991883926,596.8754902071311L416.38416524172175,597.6479552017702L419.8069438428112,597.261013238324L423.1332932072687,597.4543062523203L426.3684981490661,596.6832573937122L429.5174205925461,598.8174002090385L432.58454352205615,596.8754902071311L435.5740093664302,597.0680750580244L438.4896536431022,598.6215870760198L441.33503454745784,597.6479552017702L444.11345906006,598.8174002090385L446.8280060522007,597.6479552017702L449.4815467946282,597.841961606134L452.0767632119907,598.6215870760198L454.61616417395635,599.4070372517697L457.1021000710768,598.4261380794662L459.5367758876469,598.6215870760198L461.92226295378964,598.2310515576446L464.2605095337278,598.8174002090385L466.5533503858643,599.2101239113832L468.80251541220474,598.6215870760198L471.00963749927485,598.6215870760198L473.1762596395602,599.8019739236516L475.303841411266,599.6043201469643L477.39376488455224,599.013578629389L479.4473400141027,599.8019739236516L481.4658095707194,599.8019739236516L483.45035365843626,599.013578629389L485.40209385826523,599.2101239113832L487.32209703500473,599.4070372517697L489.21137883946386,599.4070372517697L491.0709069348849,599.6043201469643L492.9016039732237,599.8019739236516L496.47998671766663,599.2101239113832L498.2293163975359,599.8019739236516L501.65209499862544,599.6043201469643L503.32698256589333,599.8019739236516L506.60712664950563,599.8019739236516L511.3625717483603,599.6043201469643L512.9060916843958,599.4070372517697L514.4296946778703,599.8019739236516L515.9338881876662,599.4070372517697L517.4191605222443,599.8019739236516L518.8859817912809,599.4070372517697L520.3348047989164,599.8019739236516L521.7660658828646,599.8019739236516L523.180185703272,599.6043201469643L525.9586102158742,599.6043201469643L527.3236843061088,599.8019739236516L530.0073815022038,599.6043201469643L532.6314360180594,599.4070372517697L533.9219143678048,599.8019739236516L538.9472512268909,599.8019739236516L540.1708641840045,599.8019739236516L541.381927043461,599.8019739236516L542.5806946362128,599.8019739236516L544.9423252331982,599.8019739236516L546.1056606895419,599.8019739236516L551.7563845139327,599.8019739236516L572.916058090699,599.8019739236516L594.75124284021,599.8019739236516" style="fill: none; stroke: #e45756; stroke-width: 2;"></path></g></g><path class="foreground" d="" style="display: none; fill: none;"></path></g></g><g class="mark-symbol role-mark layer_1_marks"><path transform="translate(81.84515115581415,455.4207450689382)" d="M4.47213595499958,0A4.47213595499958,4.47213595499958,0,1,1,-4.47213595499958,0A4.47213595499958,4.47213595499958,0,1,1,4.47213595499958,0" style="fill: #4c78a8; stroke-width: 2; opacity: 1;"></path><path transform="translate(129.7214954478202,451.1323021272192)" d="M4.47213595499958,0A4.47213595499958,4.47213595499958,0,1,1,-4.47213595499958,0A4.47213595499958,4.47213595499958,0,1,1,4.47213595499958,0" style="fill: #4c78a8; stroke-width: 2; opacity: 1;"></path><path transform="translate(163.6903023116283,446.79678066618914)" d="M4.47213595499958,0A4.47213595499958,4.47213595499958,0,1,1,-4.47213595499958,0A4.47213595499958,4.47213595499958,0,1,1,4.47213595499958,0" style="fill: #4c78a8; stroke-width: 2; opacity: 1;"></path><path transform="translate(190.03855589898774,444.1556466587488)" d="M4.47213595499958,0A4.47213595499958,4.47213595499958,0,1,1,-4.47213595499958,0A4.47213595499958,4.47213595499958,0,1,1,4.47213595499958,0" style="fill: #4c78a8; stroke-width: 2; opacity: 1;"></path><path transform="translate(211.56664660363435,444.14551920165866)" d="M4.47213595499958,0A4.47213595499958,4.47213595499958,0,1,1,-4.47213595499958,0A4.47213595499958,4.47213595499958,0,1,1,4.47213595499958,0" style="fill: #4c78a8; stroke-width: 2; opacity: 1;"></path><path transform="translate(229.76838794382346,441.29498215010653)" d="M4.47213595499958,0A4.47213595499958,4.47213595499958,0,1,1,-4.47213595499958,0A4.47213595499958,4.47213595499958,0,1,1,4.47213595499958,0" style="fill: #4c78a8; stroke-width: 2; opacity: 1;"></path><path transform="translate(245.53545346744244,437.11196527216936)" d="M4.47213595499958,0A4.47213595499958,4.47213595499958,0,1,1,-4.47213595499958,0A4.47213595499958,4.47213595499958,0,1,1,4.47213595499958,0" style="fill: #4c78a8; stroke-width: 2; opacity: 1;"></path><path transform="translate(259.44299089564043,437.12362793514706)" d="M4.47213595499958,0A4.47213595499958,4.47213595499958,0,1,1,-4.47213595499958,0A4.47213595499958,4.47213595499958,0,1,1,4.47213595499958,0" style="fill: #4c78a8; stroke-width: 2; opacity: 1;"></path><path transform="translate(271.8837070548019,440.31089744808963)" d="M4.47213595499958,0A4.47213595499958,4.47213595499958,0,1,1,-4.47213595499958,0A4.47213595499958,4.47213595499958,0,1,1,4.47213595499958,0" style="fill: #4c78a8; stroke-width: 2; opacity: 1;"></path><path transform="translate(283.1377037405724,433.0334864709805)" d="M4.47213595499958,0A4.47213595499958,4.47213595499958,0,1,1,-4.47213595499958,0A4.47213595499958,4.47213595499958,0,1,1,4.47213595499958,0" style="fill: #4c78a8; stroke-width: 2; opacity: 1;"></path><path transform="translate(293.4117977594485,427.7176711822802)" d="M4.47213595499958,0A4.47213595499958,4.47213595499958,0,1,1,-4.47213595499958,0A4.47213595499958,4.47213595499958,0,1,1,4.47213595499958,0" style="fill: #4c78a8; stroke-width: 2; opacity: 1;"></path><path transform="translate(302.86304807423596,433.13891754676547)" d="M4.47213595499958,0A4.47213595499958,4.47213595499958,0,1,1,-4.47213595499958,0A4.47213595499958,4.47213595499958,0,1,1,4.47213595499958,0" style="fill: #4c78a8; stroke-width: 2; opacity: 1;"></path><path transform="translate(311.6135390996376,436.7953330736999)" d="M4.47213595499958,0A4.47213595499958,4.47213595499958,0,1,1,-4.47213595499958,0A4.47213595499958,4.47213595499958,0,1,1,4.47213595499958,0" style="fill: #4c78a8; stroke-width: 2; opacity: 1;"></path><path transform="translate(319.760051346808,427.9247823368488)" d="M4.47213595499958,0A4.47213595499958,4.47213595499958,0,1,1,-4.47213595499958,0A4.47213595499958,4.47213595499958,0,1,1,4.47213595499958,0" style="fill: #4c78a8; stroke-width: 2; opacity: 1;"></path><path transform="translate(327.3806046232566,441.8733130775643)" d="M4.47213595499958,0A4.47213595499958,4.47213595499958,0,1,1,-4.47213595499958,0A4.47213595499958,4.47213595499958,0,1,1,4.47213595499958,0" style="fill: #4c78a8; stroke-width: 2; opacity: 1;"></path><path transform="translate(334.53901408590764,420.847216414678)" d="M4.47213595499958,0A4.47213595499958,4.47213595499958,0,1,1,-4.47213595499958,0A4.47213595499958,4.47213595499958,0,1,1,4.47213595499958,0" style="fill: #4c78a8; stroke-width: 2; opacity: 1;"></path><path transform="translate(341.28814205145454,405.36368085252326)" d="M4.47213595499958,0A4.47213595499958,4.47213595499958,0,1,1,-4.47213595499958,0A4.47213595499958,4.47213595499958,0,1,1,4.47213595499958,0" style="fill: #4c78a8; stroke-width: 2; opacity: 1;"></path><path transform="translate(347.67226943673194,422.4437222525498)" d="M4.47213595499958,0A4.47213595499958,4.47213595499958,0,1,1,-4.47213595499958,0A4.47213595499958,4.47213595499958,0,1,1,4.47213595499958,0" style="fill: #4c78a8; stroke-width: 2; opacity: 1;"></path><path transform="translate(353.728858210616,422.3293338011881)" d="M4.47213595499958,0A4.47213595499958,4.47213595499958,0,1,1,-4.47213595499958,0A4.47213595499958,4.47213595499958,0,1,1,4.47213595499958,0" style="fill: #4c78a8; stroke-width: 2; opacity: 1;"></path><path transform="translate(359.4898833916437,418.942657797545)" d="M4.47213595499958,0A4.47213595499958,4.47213595499958,0,1,1,-4.47213595499958,0A4.47213595499958,4.47213595499958,0,1,1,4.47213595499958,0" style="fill: #4c78a8; stroke-width: 2; opacity: 1;"></path><path transform="translate(364.9828548963866,443.3437148738425)" d="M4.47213595499958,0A4.47213595499958,4.47213595499958,0,1,1,-4.47213595499958,0A4.47213595499958,4.47213595499958,0,1,1,4.47213595499958,0" style="fill: #4c78a8; stroke-width: 2; opacity: 1;"></path><path transform="translate(370.2316120561765,419.3285014267422)" d="M4.47213595499958,0A4.47213595499958,4.47213595499958,0,1,1,-4.47213595499958,0A4.47213595499958,4.47213595499958,0,1,1,4.47213595499958,0" style="fill: #4c78a8; stroke-width: 2; opacity: 1;"></path><path transform="translate(375.2569489152626,323.2056200050862)" d="M4.47213595499958,0A4.47213595499958,4.47213595499958,0,1,1,-4.47213595499958,0A4.47213595499958,4.47213595499958,0,1,1,4.47213595499958,0" style="fill: #4c78a8; stroke-width: 2; opacity: 1;"></path><path transform="translate(380.0771117979755,419.84353663098284)" d="M4.47213595499958,0A4.47213595499958,4.47213595499958,0,1,1,-4.47213595499958,0A4.47213595499958,4.47213595499958,0,1,1,4.47213595499958,0" style="fill: #4c78a8; stroke-width: 2; opacity: 1;"></path><path transform="translate(384.7081992300502,319.68317729632145)" d="M4.47213595499958,0A4.47213595499958,4.47213595499958,0,1,1,-4.47213595499958,0A4.47213595499958,4.47213595499958,0,1,1,4.47213595499958,0" style="fill: #4c78a8; stroke-width: 2; opacity: 1;"></path><path transform="translate(389.1644863434606,427.72678686752295)" d="M4.47213595499958,0A4.47213595499958,4.47213595499958,0,1,1,-4.47213595499958,0A4.47213595499958,4.47213595499958,0,1,1,4.47213595499958,0" style="fill: #4c78a8; stroke-width: 2; opacity: 1;"></path><path transform="translate(393.45869025545176,367.48863407195887)" d="M4.47213595499958,0A4.47213595499958,4.47213595499958,0,1,1,-4.47213595499958,0A4.47213595499958,4.47213595499958,0,1,1,4.47213595499958,0" style="fill: #4c78a8; stroke-width: 2; opacity: 1;"></path><path transform="translate(397.60218885828857,459.1468243746597)" d="M4.47213595499958,0A4.47213595499958,4.47213595499958,0,1,1,-4.47213595499958,0A4.47213595499958,4.47213595499958,0,1,1,4.47213595499958,0" style="fill: #4c78a8; stroke-width: 2; opacity: 1;"></path><path transform="translate(401.6052025026221,389.17524784266175)" d="M4.47213595499958,0A4.47213595499958,4.47213595499958,0,1,1,-4.47213595499958,0A4.47213595499958,4.47213595499958,0,1,1,4.47213595499958,0" style="fill: #4c78a8; stroke-width: 2; opacity: 1;"></path><path transform="translate(405.4769458791905,434.0821958335818)" d="M4.47213595499958,0A4.47213595499958,4.47213595499958,0,1,1,-4.47213595499958,0A4.47213595499958,4.47213595499958,0,1,1,4.47213595499958,0" style="fill: #4c78a8; stroke-width: 2; opacity: 1;"></path><path transform="translate(409.2257557790707,436.55865086406294)" d="M4.47213595499958,0A4.47213595499958,4.47213595499958,0,1,1,-4.47213595499958,0A4.47213595499958,4.47213595499958,0,1,1,4.47213595499958,0" style="fill: #4c78a8; stroke-width: 2; opacity: 1;"></path><path transform="translate(412.8591991883926,423.1933329480473)" d="M4.47213595499958,0A4.47213595499958,4.47213595499958,0,1,1,-4.47213595499958,0A4.47213595499958,4.47213595499958,0,1,1,4.47213595499958,0" style="fill: #4c78a8; stroke-width: 2; opacity: 1;"></path><path transform="translate(416.38416524172175,396.6816293151845)" d="M4.47213595499958,0A4.47213595499958,4.47213595499958,0,1,1,-4.47213595499958,0A4.47213595499958,4.47213595499958,0,1,1,4.47213595499958,0" style="fill: #4c78a8; stroke-width: 2; opacity: 1;"></path><path transform="translate(419.8069438428112,424.9543850779495)" d="M4.47213595499958,0A4.47213595499958,4.47213595499958,0,1,1,-4.47213595499958,0A4.47213595499958,4.47213595499958,0,1,1,4.47213595499958,0" style="fill: #4c78a8; stroke-width: 2; opacity: 1;"></path><path transform="translate(423.1332932072687,405.0966776448352)" d="M4.47213595499958,0A4.47213595499958,4.47213595499958,0,1,1,-4.47213595499958,0A4.47213595499958,4.47213595499958,0,1,1,4.47213595499958,0" style="fill: #4c78a8; stroke-width: 2; opacity: 1;"></path><path transform="translate(426.3684981490661,387.7577067066988)" d="M4.47213595499958,0A4.47213595499958,4.47213595499958,0,1,1,-4.47213595499958,0A4.47213595499958,4.47213595499958,0,1,1,4.47213595499958,0" style="fill: #4c78a8; stroke-width: 2; opacity: 1;"></path><path transform="translate(429.5174205925461,427.3492930589501)" d="M4.47213595499958,0A4.47213595499958,4.47213595499958,0,1,1,-4.47213595499958,0A4.47213595499958,4.47213595499958,0,1,1,4.47213595499958,0" style="fill: #4c78a8; stroke-width: 2; opacity: 1;"></path><path transform="translate(432.58454352205615,391.7333245405149)" d="M4.47213595499958,0A4.47213595499958,4.47213595499958,0,1,1,-4.47213595499958,0A4.47213595499958,4.47213595499958,0,1,1,4.47213595499958,0" style="fill: #4c78a8; stroke-width: 2; opacity: 1;"></path><path transform="translate(435.5740093664302,377.0924207338699)" d="M4.47213595499958,0A4.47213595499958,4.47213595499958,0,1,1,-4.47213595499958,0A4.47213595499958,4.47213595499958,0,1,1,4.47213595499958,0" style="fill: #4c78a8; stroke-width: 2; opacity: 1;"></path><path transform="translate(438.4896536431022,447.0027185285991)" d="M4.47213595499958,0A4.47213595499958,4.47213595499958,0,1,1,-4.47213595499958,0A4.47213595499958,4.47213595499958,0,1,1,4.47213595499958,0" style="fill: #4c78a8; stroke-width: 2; opacity: 1;"></path><path transform="translate(441.33503454745784,430.79654980120637)" d="M4.47213595499958,0A4.47213595499958,4.47213595499958,0,1,1,-4.47213595499958,0A4.47213595499958,4.47213595499958,0,1,1,4.47213595499958,0" style="fill: #4c78a8; stroke-width: 2; opacity: 1;"></path><path transform="translate(444.11345906006,463.4037613136944)" d="M4.47213595499958,0A4.47213595499958,4.47213595499958,0,1,1,-4.47213595499958,0A4.47213595499958,4.47213595499958,0,1,1,4.47213595499958,0" style="fill: #4c78a8; stroke-width: 2; opacity: 1;"></path><path transform="translate(446.8280060522007,381.3841213627224)" d="M4.47213595499958,0A4.47213595499958,4.47213595499958,0,1,1,-4.47213595499958,0A4.47213595499958,4.47213595499958,0,1,1,4.47213595499958,0" style="fill: #4c78a8; stroke-width: 2; opacity: 1;"></path><path transform="translate(449.4815467946282,449.5827770972804)" d="M4.47213595499958,0A4.47213595499958,4.47213595499958,0,1,1,-4.47213595499958,0A4.47213595499958,4.47213595499958,0,1,1,4.47213595499958,0" style="fill: #4c78a8; stroke-width: 2; opacity: 1;"></path><path transform="translate(452.0767632119907,411.62871722014336)" d="M4.47213595499958,0A4.47213595499958,4.47213595499958,0,1,1,-4.47213595499958,0A4.47213595499958,4.47213595499958,0,1,1,4.47213595499958,0" style="fill: #4c78a8; stroke-width: 2; opacity: 1;"></path><path transform="translate(454.61616417395635,267.35520288636826)" d="M4.47213595499958,0A4.47213595499958,4.47213595499958,0,1,1,-4.47213595499958,0A4.47213595499958,4.47213595499958,0,1,1,4.47213595499958,0" style="fill: #4c78a8; stroke-width: 2; opacity: 1;"></path><path transform="translate(457.1021000710768,464.60528408627414)" d="M4.47213595499958,0A4.47213595499958,4.47213595499958,0,1,1,-4.47213595499958,0A4.47213595499958,4.47213595499958,0,1,1,4.47213595499958,0" style="fill: #4c78a8; stroke-width: 2; opacity: 1;"></path><path transform="translate(459.5367758876469,422.1507011519283)" d="M4.47213595499958,0A4.47213595499958,4.47213595499958,0,1,1,-4.47213595499958,0A4.47213595499958,4.47213595499958,0,1,1,4.47213595499958,0" style="fill: #4c78a8; stroke-width: 2; opacity: 1;"></path><path transform="translate(461.92226295378964,448.57188307281484)" d="M4.47213595499958,0A4.47213595499958,4.47213595499958,0,1,1,-4.47213595499958,0A4.47213595499958,4.47213595499958,0,1,1,4.47213595499958,0" style="fill: #4c78a8; stroke-width: 2; opacity: 1;"></path><path transform="translate(464.2605095337278,438.0499086266256)" d="M4.47213595499958,0A4.47213595499958,4.47213595499958,0,1,1,-4.47213595499958,0A4.47213595499958,4.47213595499958,0,1,1,4.47213595499958,0" style="fill: #4c78a8; stroke-width: 2; opacity: 1;"></path><path transform="translate(466.5533503858643,334.4650591481719)" d="M4.47213595499958,0A4.47213595499958,4.47213595499958,0,1,1,-4.47213595499958,0A4.47213595499958,4.47213595499958,0,1,1,4.47213595499958,0" style="fill: #4c78a8; stroke-width: 2; opacity: 1;"></path><path transform="translate(468.80251541220474,402.0646640440529)" d="M4.47213595499958,0A4.47213595499958,4.47213595499958,0,1,1,-4.47213595499958,0A4.47213595499958,4.47213595499958,0,1,1,4.47213595499958,0" style="fill: #4c78a8; stroke-width: 2; opacity: 1;"></path><path transform="translate(471.00963749927485,411.62871722014336)" d="M4.47213595499958,0A4.47213595499958,4.47213595499958,0,1,1,-4.47213595499958,0A4.47213595499958,4.47213595499958,0,1,1,4.47213595499958,0" style="fill: #4c78a8; stroke-width: 2; opacity: 1;"></path><path transform="translate(473.1762596395602,484.5006767659026)" d="M4.47213595499958,0A4.47213595499958,4.47213595499958,0,1,1,-4.47213595499958,0A4.47213595499958,4.47213595499958,0,1,1,4.47213595499958,0" style="fill: #4c78a8; stroke-width: 2; opacity: 1;"></path><path transform="translate(475.303841411266,484.5006767659026)" d="M4.47213595499958,0A4.47213595499958,4.47213595499958,0,1,1,-4.47213595499958,0A4.47213595499958,4.47213595499958,0,1,1,4.47213595499958,0" style="fill: #4c78a8; stroke-width: 2; opacity: 1;"></path><path transform="translate(477.39376488455224,328.7366064542795)" d="M4.47213595499958,0A4.47213595499958,4.47213595499958,0,1,1,-4.47213595499958,0A4.47213595499958,4.47213595499958,0,1,1,4.47213595499958,0" style="fill: #4c78a8; stroke-width: 2; opacity: 1;"></path><path transform="translate(479.4473400141027,430.79654980120637)" d="M4.47213595499958,0A4.47213595499958,4.47213595499958,0,1,1,-4.47213595499958,0A4.47213595499958,4.47213595499958,0,1,1,4.47213595499958,0" style="fill: #4c78a8; stroke-width: 2; opacity: 1;"></path><path transform="translate(481.4658095707194,430.79654980120637)" d="M4.47213595499958,0A4.47213595499958,4.47213595499958,0,1,1,-4.47213595499958,0A4.47213595499958,4.47213595499958,0,1,1,4.47213595499958,0" style="fill: #4c78a8; stroke-width: 2; opacity: 1;"></path><path transform="translate(483.45035365843626,362.2162887816593)" d="M4.47213595499958,0A4.47213595499958,4.47213595499958,0,1,1,-4.47213595499958,0A4.47213595499958,4.47213595499958,0,1,1,4.47213595499958,0" style="fill: #4c78a8; stroke-width: 2; opacity: 1;"></path><path transform="translate(485.40209385826523,454.2560809084816)" d="M4.47213595499958,0A4.47213595499958,4.47213595499958,0,1,1,-4.47213595499958,0A4.47213595499958,4.47213595499958,0,1,1,4.47213595499958,0" style="fill: #4c78a8; stroke-width: 2; opacity: 1;"></path><path transform="translate(487.32209703500473,372.9690722682095)" d="M4.47213595499958,0A4.47213595499958,4.47213595499958,0,1,1,-4.47213595499958,0A4.47213595499958,4.47213595499958,0,1,1,4.47213595499958,0" style="fill: #4c78a8; stroke-width: 2; opacity: 1;"></path><path transform="translate(489.21137883946386,411.62871722014336)" d="M4.47213595499958,0A4.47213595499958,4.47213595499958,0,1,1,-4.47213595499958,0A4.47213595499958,4.47213595499958,0,1,1,4.47213595499958,0" style="fill: #4c78a8; stroke-width: 2; opacity: 1;"></path><path transform="translate(491.0709069348849,275.03247948958335)" d="M4.47213595499958,0A4.47213595499958,4.47213595499958,0,1,1,-4.47213595499958,0A4.47213595499958,4.47213595499958,0,1,1,4.47213595499958,0" style="fill: #4c78a8; stroke-width: 2; opacity: 1;"></path><path transform="translate(492.9016039732237,454.2560809084816)" d="M4.47213595499958,0A4.47213595499958,4.47213595499958,0,1,1,-4.47213595499958,0A4.47213595499958,4.47213595499958,0,1,1,4.47213595499958,0" style="fill: #4c78a8; stroke-width: 2; opacity: 1;"></path><path transform="translate(496.47998671766663,384.7219259792565)" d="M4.47213595499958,0A4.47213595499958,4.47213595499958,0,1,1,-4.47213595499958,0A4.47213595499958,4.47213595499958,0,1,1,4.47213595499958,0" style="fill: #4c78a8; stroke-width: 2; opacity: 1;"></path><path transform="translate(498.2293163975359,395.4225456892302)" d="M4.47213595499958,0A4.47213595499958,4.47213595499958,0,1,1,-4.47213595499958,0A4.47213595499958,4.47213595499958,0,1,1,4.47213595499958,0" style="fill: #4c78a8; stroke-width: 2; opacity: 1;"></path><path transform="translate(501.65209499862544,388.16918611286815)" d="M4.47213595499958,0A4.47213595499958,4.47213595499958,0,1,1,-4.47213595499958,0A4.47213595499958,4.47213595499958,0,1,1,4.47213595499958,0" style="fill: #4c78a8; stroke-width: 2; opacity: 1;"></path><path transform="translate(503.32698256589333,199.79790333301148)" d="M4.47213595499958,0A4.47213595499958,4.47213595499958,0,1,1,-4.47213595499958,0A4.47213595499958,4.47213595499958,0,1,1,4.47213595499958,0" style="fill: #4c78a8; stroke-width: 2; opacity: 1;"></path><path transform="translate(506.60712664950563,484.5006767659026)" d="M4.47213595499958,0A4.47213595499958,4.47213595499958,0,1,1,-4.47213595499958,0A4.47213595499958,4.47213595499958,0,1,1,4.47213595499958,0" style="fill: #4c78a8; stroke-width: 2; opacity: 1;"></path><path transform="translate(511.3625717483603,430.79654980120637)" d="M4.47213595499958,0A4.47213595499958,4.47213595499958,0,1,1,-4.47213595499958,0A4.47213595499958,4.47213595499958,0,1,1,4.47213595499958,0" style="fill: #4c78a8; stroke-width: 2; opacity: 1;"></path><path transform="translate(512.9060916843958,365.17795358652415)" d="M4.47213595499958,0A4.47213595499958,4.47213595499958,0,1,1,-4.47213595499958,0A4.47213595499958,4.47213595499958,0,1,1,4.47213595499958,0" style="fill: #4c78a8; stroke-width: 2; opacity: 1;"></path><path transform="translate(514.4296946778703,484.5006767659026)" d="M4.47213595499958,0A4.47213595499958,4.47213595499958,0,1,1,-4.47213595499958,0A4.47213595499958,4.47213595499958,0,1,1,4.47213595499958,0" style="fill: #4c78a8; stroke-width: 2; opacity: 1;"></path><path transform="translate(515.9338881876662,395.4225456892302)" d="M4.47213595499958,0A4.47213595499958,4.47213595499958,0,1,1,-4.47213595499958,0A4.47213595499958,4.47213595499958,0,1,1,4.47213595499958,0" style="fill: #4c78a8; stroke-width: 2; opacity: 1;"></path><path transform="translate(517.4191605222443,454.2560809084816)" d="M4.47213595499958,0A4.47213595499958,4.47213595499958,0,1,1,-4.47213595499958,0A4.47213595499958,4.47213595499958,0,1,1,4.47213595499958,0" style="fill: #4c78a8; stroke-width: 2; opacity: 1;"></path><path transform="translate(518.8859817912809,417.6378995138268)" d="M4.47213595499958,0A4.47213595499958,4.47213595499958,0,1,1,-4.47213595499958,0A4.47213595499958,4.47213595499958,0,1,1,4.47213595499958,0" style="fill: #4c78a8; stroke-width: 2; opacity: 1;"></path><path transform="translate(520.3348047989164,484.5006767659026)" d="M4.47213595499958,0A4.47213595499958,4.47213595499958,0,1,1,-4.47213595499958,0A4.47213595499958,4.47213595499958,0,1,1,4.47213595499958,0" style="fill: #4c78a8; stroke-width: 2; opacity: 1;"></path><path transform="translate(521.7660658828646,484.5006767659026)" d="M4.47213595499958,0A4.47213595499958,4.47213595499958,0,1,1,-4.47213595499958,0A4.47213595499958,4.47213595499958,0,1,1,4.47213595499958,0" style="fill: #4c78a8; stroke-width: 2; opacity: 1;"></path><path transform="translate(523.180185703272,484.5006767659026)" d="M4.47213595499958,0A4.47213595499958,4.47213595499958,0,1,1,-4.47213595499958,0A4.47213595499958,4.47213595499958,0,1,1,4.47213595499958,0" style="fill: #4c78a8; stroke-width: 2; opacity: 1;"></path><path transform="translate(525.9586102158742,454.2560809084816)" d="M4.47213595499958,0A4.47213595499958,4.47213595499958,0,1,1,-4.47213595499958,0A4.47213595499958,4.47213595499958,0,1,1,4.47213595499958,0" style="fill: #4c78a8; stroke-width: 2; opacity: 1;"></path><path transform="translate(527.3236843061088,357.9245902554471)" d="M4.47213595499958,0A4.47213595499958,4.47213595499958,0,1,1,-4.47213595499958,0A4.47213595499958,4.47213595499958,0,1,1,4.47213595499958,0" style="fill: #4c78a8; stroke-width: 2; opacity: 1;"></path><path transform="translate(530.0073815022038,302.13857318761126)" d="M4.47213595499958,0A4.47213595499958,4.47213595499958,0,1,1,-4.47213595499958,0A4.47213595499958,4.47213595499958,0,1,1,4.47213595499958,0" style="fill: #4c78a8; stroke-width: 2; opacity: 1;"></path><path transform="translate(532.6314360180594,484.5006767659026)" d="M4.47213595499958,0A4.47213595499958,4.47213595499958,0,1,1,-4.47213595499958,0A4.47213595499958,4.47213595499958,0,1,1,4.47213595499958,0" style="fill: #4c78a8; stroke-width: 2; opacity: 1;"></path><path transform="translate(533.9219143678048,484.5006767659026)" d="M4.47213595499958,0A4.47213595499958,4.47213595499958,0,1,1,-4.47213595499958,0A4.47213595499958,4.47213595499958,0,1,1,4.47213595499958,0" style="fill: #4c78a8; stroke-width: 2; opacity: 1;"></path><path transform="translate(538.9472512268909,454.2560809084816)" d="M4.47213595499958,0A4.47213595499958,4.47213595499958,0,1,1,-4.47213595499958,0A4.47213595499958,4.47213595499958,0,1,1,4.47213595499958,0" style="fill: #4c78a8; stroke-width: 2; opacity: 1;"></path><path transform="translate(540.1708641840045,484.5006767659026)" d="M4.47213595499958,0A4.47213595499958,4.47213595499958,0,1,1,-4.47213595499958,0A4.47213595499958,4.47213595499958,0,1,1,4.47213595499958,0" style="fill: #4c78a8; stroke-width: 2; opacity: 1;"></path><path transform="translate(541.381927043461,484.5006767659026)" d="M4.47213595499958,0A4.47213595499958,4.47213595499958,0,1,1,-4.47213595499958,0A4.47213595499958,4.47213595499958,0,1,1,4.47213595499958,0" style="fill: #4c78a8; stroke-width: 2; opacity: 1;"></path><path transform="translate(542.5806946362128,430.79654980120637)" d="M4.47213595499958,0A4.47213595499958,4.47213595499958,0,1,1,-4.47213595499958,0A4.47213595499958,4.47213595499958,0,1,1,4.47213595499958,0" style="fill: #4c78a8; stroke-width: 2; opacity: 1;"></path><path transform="translate(544.9423252331982,484.5006767659026)" d="M4.47213595499958,0A4.47213595499958,4.47213595499958,0,1,1,-4.47213595499958,0A4.47213595499958,4.47213595499958,0,1,1,4.47213595499958,0" style="fill: #4c78a8; stroke-width: 2; opacity: 1;"></path><path transform="translate(546.1056606895419,454.2560809084816)" d="M4.47213595499958,0A4.47213595499958,4.47213595499958,0,1,1,-4.47213595499958,0A4.47213595499958,4.47213595499958,0,1,1,4.47213595499958,0" style="fill: #4c78a8; stroke-width: 2; opacity: 1;"></path><path transform="translate(551.7563845139327,330.34170655810175)" d="M4.47213595499958,0A4.47213595499958,4.47213595499958,0,1,1,-4.47213595499958,0A4.47213595499958,4.47213595499958,0,1,1,4.47213595499958,0" style="fill: #4c78a8; stroke-width: 2; opacity: 1;"></path><path transform="translate(572.916058090699,338.7567576743841)" d="M4.47213595499958,0A4.47213595499958,4.47213595499958,0,1,1,-4.47213595499958,0A4.47213595499958,4.47213595499958,0,1,1,4.47213595499958,0" style="fill: #4c78a8; stroke-width: 2; opacity: 1;"></path><path transform="translate(594.75124284021,357.9245902554471)" d="M4.47213595499958,0A4.47213595499958,4.47213595499958,0,1,1,-4.47213595499958,0A4.47213595499958,4.47213595499958,0,1,1,4.47213595499958,0" style="fill: #4c78a8; stroke-width: 2; opacity: 1;"></path><path transform="translate(81.84515115581415,430.79654980120637)" d="M-4.47213595499958,-4.47213595499958h8.94427190999916v8.94427190999916h-8.94427190999916Z" style="fill: #f58518; stroke-width: 2; opacity: 1;"></path><path transform="translate(129.7214954478202,395.4225456892302)" d="M-4.47213595499958,-4.47213595499958h8.94427190999916v8.94427190999916h-8.94427190999916Z" style="fill: #f58518; stroke-width: 2; opacity: 1;"></path><path transform="translate(163.6903023116283,338.7567576743841)" d="M-4.47213595499958,-4.47213595499958h8.94427190999916v8.94427190999916h-8.94427190999916Z" style="fill: #f58518; stroke-width: 2; opacity: 1;"></path><path transform="translate(190.03855589898774,338.7567576743841)" d="M-4.47213595499958,-4.47213595499958h8.94427190999916v8.94427190999916h-8.94427190999916Z" style="fill: #f58518; stroke-width: 2; opacity: 1;"></path><path transform="translate(211.56664660363435,338.7567576743841)" d="M-4.47213595499958,-4.47213595499958h8.94427190999916v8.94427190999916h-8.94427190999916Z" style="fill: #f58518; stroke-width: 2; opacity: 1;"></path><path transform="translate(229.76838794382346,302.13857318761126)" d="M-4.47213595499958,-4.47213595499958h8.94427190999916v8.94427190999916h-8.94427190999916Z" style="fill: #f58518; stroke-width: 2; opacity: 1;"></path><path transform="translate(245.53545346744244,220.376925084368)" d="M-4.47213595499958,-4.47213595499958h8.94427190999916v8.94427190999916h-8.94427190999916Z" style="fill: #f58518; stroke-width: 2; opacity: 1;"></path><path transform="translate(259.44299089564043,217.57323854126233)" d="M-4.47213595499958,-4.47213595499958h8.94427190999916v8.94427190999916h-8.94427190999916Z" style="fill: #f58518; stroke-width: 2; opacity: 1;"></path><path transform="translate(271.8837070548019,322.5505861434711)" d="M-4.47213595499958,-4.47213595499958h8.94427190999916v8.94427190999916h-8.94427190999916Z" style="fill: #f58518; stroke-width: 2; opacity: 1;"></path><path transform="translate(283.1377037405724,242.42526702134975)" d="M-4.47213595499958,-4.47213595499958h8.94427190999916v8.94427190999916h-8.94427190999916Z" style="fill: #f58518; stroke-width: 2; opacity: 1;"></path><path transform="translate(293.4117977594485,153.3471359446774)" d="M-4.47213595499958,-4.47213595499958h8.94427190999916v8.94427190999916h-8.94427190999916Z" style="fill: #f58518; stroke-width: 2; opacity: 1;"></path><path transform="translate(302.86304807423596,217.57323854126233)" d="M-4.47213595499958,-4.47213595499958h8.94427190999916v8.94427190999916h-8.94427190999916Z" style="fill: #f58518; stroke-width: 2; opacity: 1;"></path><path transform="translate(311.6135390996376,290.44519808702154)" d="M-4.47213595499958,-4.47213595499958h8.94427190999916v8.94427190999916h-8.94427190999916Z" style="fill: #f58518; stroke-width: 2; opacity: 1;"></path><path transform="translate(319.760051346808,132.93512298881765)" d="M-4.47213595499958,-4.47213595499958h8.94427190999916v8.94427190999916h-8.94427190999916Z" style="fill: #f58518; stroke-width: 2; opacity: 1;"></path><path transform="translate(327.3806046232566,338.7567576743841)" d="M-4.47213595499958,-4.47213595499958h8.94427190999916v8.94427190999916h-8.94427190999916Z" style="fill: #f58518; stroke-width: 2; opacity: 1;"></path><path transform="translate(334.53901408590764,235.64020227120395)" d="M-4.47213595499958,-4.47213595499958h8.94427190999916v8.94427190999916h-8.94427190999916Z" style="fill: #f58518; stroke-width: 2; opacity: 1;"></path><path transform="translate(341.28814205145454,156.3946540960928)" d="M-4.47213595499958,-4.47213595499958h8.94427190999916v8.94427190999916h-8.94427190999916Z" style="fill: #f58518; stroke-width: 2; opacity: 1;"></path><path transform="translate(347.67226943673194,296.12939398604595)" d="M-4.47213595499958,-4.47213595499958h8.94427190999916v8.94427190999916h-8.94427190999916Z" style="fill: #f58518; stroke-width: 2; opacity: 1;"></path><path transform="translate(353.728858210616,253.50203029770768)" d="M-4.47213595499958,-4.47213595499958h8.94427190999916v8.94427190999916h-8.94427190999916Z" style="fill: #f58518; stroke-width: 2; opacity: 1;"></path><path transform="translate(359.4898833916437,279.9232224551328)" d="M-4.47213595499958,-4.47213595499958h8.94427190999916v8.94427190999916h-8.94427190999916Z" style="fill: #f58518; stroke-width: 2; opacity: 1;"></path><path transform="translate(364.9828548963866,369.0013535318051)" d="M-4.47213595499958,-4.47213595499958h8.94427190999916v8.94427190999916h-8.94427190999916Z" style="fill: #f58518; stroke-width: 2; opacity: 1;"></path><path transform="translate(370.2316120561765,238.9780068877381)" d="M-4.47213595499958,-4.47213595499958h8.94427190999916v8.94427190999916h-8.94427190999916Z" style="fill: #f58518; stroke-width: 2; opacity: 1;"></path><path transform="translate(375.2569489152626,13.391762154950214)" d="M-4.47213595499958,-4.47213595499958h8.94427190999916v8.94427190999916h-8.94427190999916Z" style="fill: #f58518; stroke-width: 2; opacity: 1;"></path><path transform="translate(380.0771117979755,223.25743444028672)" d="M-4.47213595499958,-4.47213595499958h8.94427190999916v8.94427190999916h-8.94427190999916Z" style="fill: #f58518; stroke-width: 2; opacity: 1;"></path><path transform="translate(384.7081992300502,2.116823485968622)" d="M-4.47213595499958,-4.47213595499958h8.94427190999916v8.94427190999916h-8.94427190999916Z" style="fill: #f58518; stroke-width: 2; opacity: 1;"></path><path transform="translate(389.1644863434606,347.90443903534253)" d="M-4.47213595499958,-4.47213595499958h8.94427190999916v8.94427190999916h-8.94427190999916Z" style="fill: #f58518; stroke-width: 2; opacity: 1;"></path><path transform="translate(393.45869025545176,143.32698472457278)" d="M-4.47213595499958,-4.47213595499958h8.94427190999916v8.94427190999916h-8.94427190999916Z" style="fill: #f58518; stroke-width: 2; opacity: 1;"></path><path transform="translate(397.60218885828857,381.3841213627224)" d="M-4.47213595499958,-4.47213595499958h8.94427190999916v8.94427190999916h-8.94427190999916Z" style="fill: #f58518; stroke-width: 2; opacity: 1;"></path><path transform="translate(401.6052025026221,212.1806711639288)" d="M-4.47213595499958,-4.47213595499958h8.94427190999916v8.94427190999916h-8.94427190999916Z" style="fill: #f58518; stroke-width: 2; opacity: 1;"></path><path transform="translate(405.4769458791905,249.67862659771185)" d="M-4.47213595499958,-4.47213595499958h8.94427190999916v8.94427190999916h-8.94427190999916Z" style="fill: #f58518; stroke-width: 2; opacity: 1;"></path><path transform="translate(409.2257557790707,338.7567576743841)" d="M-4.47213595499958,-4.47213595499958h8.94427190999916v8.94427190999916h-8.94427190999916Z" style="fill: #f58518; stroke-width: 2; opacity: 1;"></path><path transform="translate(412.8591991883926,308.51216181696316)" d="M-4.47213595499958,-4.47213595499958h8.94427190999916v8.94427190999916h-8.94427190999916Z" style="fill: #f58518; stroke-width: 2; opacity: 1;"></path><path transform="translate(416.38416524172175,279.9232224551328)" d="M-4.47213595499958,-4.47213595499958h8.94427190999916v8.94427190999916h-8.94427190999916Z" style="fill: #f58518; stroke-width: 2; opacity: 1;"></path><path transform="translate(419.8069438428112,296.12939398604595)" d="M-4.47213595499958,-4.47213595499958h8.94427190999916v8.94427190999916h-8.94427190999916Z" style="fill: #f58518; stroke-width: 2; opacity: 1;"></path><path transform="translate(423.1332932072687,290.44519808702154)" d="M-4.47213595499958,-4.47213595499958h8.94427190999916v8.94427190999916h-8.94427190999916Z" style="fill: #f58518; stroke-width: 2; opacity: 1;"></path><path transform="translate(426.3684981490661,290.44519808702154)" d="M-4.47213595499958,-4.47213595499958h8.94427190999916v8.94427190999916h-8.94427190999916Z" style="fill: #f58518; stroke-width: 2; opacity: 1;"></path><path transform="translate(429.5174205925461,369.0013535318051)" d="M-4.47213595499958,-4.47213595499958h8.94427190999916v8.94427190999916h-8.94427190999916Z" style="fill: #f58518; stroke-width: 2; opacity: 1;"></path><path transform="translate(432.58454352205615,253.50203029770768)" d="M-4.47213595499958,-4.47213595499958h8.94427190999916v8.94427190999916h-8.94427190999916Z" style="fill: #f58518; stroke-width: 2; opacity: 1;"></path><path transform="translate(435.5740093664302,238.9780068877381)" d="M-4.47213595499958,-4.47213595499958h8.94427190999916v8.94427190999916h-8.94427190999916Z" style="fill: #f58518; stroke-width: 2; opacity: 1;"></path><path transform="translate(438.4896536431022,411.62871722014336)" d="M-4.47213595499958,-4.47213595499958h8.94427190999916v8.94427190999916h-8.94427190999916Z" style="fill: #f58518; stroke-width: 2; opacity: 1;"></path><path transform="translate(441.33503454745784,369.0013535318051)" d="M-4.47213595499958,-4.47213595499958h8.94427190999916v8.94427190999916h-8.94427190999916Z" style="fill: #f58518; stroke-width: 2; opacity: 1;"></path><path transform="translate(444.11345906006,411.62871722014336)" d="M-4.47213595499958,-4.47213595499958h8.94427190999916v8.94427190999916h-8.94427190999916Z" style="fill: #f58518; stroke-width: 2; opacity: 1;"></path><path transform="translate(446.8280060522007,207.05126290937358)" d="M-4.47213595499958,-4.47213595499958h8.94427190999916v8.94427190999916h-8.94427190999916Z" style="fill: #f58518; stroke-width: 2; opacity: 1;"></path><path transform="translate(449.4815467946282,338.7567576743841)" d="M-4.47213595499958,-4.47213595499958h8.94427190999916v8.94427190999916h-8.94427190999916Z" style="fill: #f58518; stroke-width: 2; opacity: 1;"></path><path transform="translate(452.0767632119907,357.9245902554471)" d="M-4.47213595499958,-4.47213595499958h8.94427190999916v8.94427190999916h-8.94427190999916Z" style="fill: #f58518; stroke-width: 2; opacity: 1;"></path><path transform="translate(454.61616417395635,161.13825635930814)" d="M-4.47213595499958,-4.47213595499958h8.94427190999916v8.94427190999916h-8.94427190999916Z" style="fill: #f58518; stroke-width: 2; opacity: 1;"></path><path transform="translate(457.1021000710768,430.79654980120637)" d="M-4.47213595499958,-4.47213595499958h8.94427190999916v8.94427190999916h-8.94427190999916Z" style="fill: #f58518; stroke-width: 2; opacity: 1;"></path><path transform="translate(459.5367758876469,369.0013535318051)" d="M-4.47213595499958,-4.47213595499958h8.94427190999916v8.94427190999916h-8.94427190999916Z" style="fill: #f58518; stroke-width: 2; opacity: 1;"></path><path transform="translate(461.92226295378964,395.4225456892302)" d="M-4.47213595499958,-4.47213595499958h8.94427190999916v8.94427190999916h-8.94427190999916Z" style="fill: #f58518; stroke-width: 2; opacity: 1;"></path><path transform="translate(464.2605095337278,381.3841213627224)" d="M-4.47213595499958,-4.47213595499958h8.94427190999916v8.94427190999916h-8.94427190999916Z" style="fill: #f58518; stroke-width: 2; opacity: 1;"></path><path transform="translate(466.5533503858643,214.84238332400426)" d="M-4.47213595499958,-4.47213595499958h8.94427190999916v8.94427190999916h-8.94427190999916Z" style="fill: #f58518; stroke-width: 2; opacity: 1;"></path><path transform="translate(468.80251541220474,308.51216181696316)" d="M-4.47213595499958,-4.47213595499958h8.94427190999916v8.94427190999916h-8.94427190999916Z" style="fill: #f58518; stroke-width: 2; opacity: 1;"></path><path transform="translate(471.00963749927485,357.9245902554471)" d="M-4.47213595499958,-4.47213595499958h8.94427190999916v8.94427190999916h-8.94427190999916Z" style="fill: #f58518; stroke-width: 2; opacity: 1;"></path><path transform="translate(473.1762596395602,484.5006767659026)" d="M-4.47213595499958,-4.47213595499958h8.94427190999916v8.94427190999916h-8.94427190999916Z" style="fill: #f58518; stroke-width: 2; opacity: 1;"></path><path transform="translate(475.303841411266,484.5006767659026)" d="M-4.47213595499958,-4.47213595499958h8.94427190999916v8.94427190999916h-8.94427190999916Z" style="fill: #f58518; stroke-width: 2; opacity: 1;"></path><path transform="translate(477.39376488455224,232.40511580124513)" d="M-4.47213595499958,-4.47213595499958h8.94427190999916v8.94427190999916h-8.94427190999916Z" style="fill: #f58518; stroke-width: 2; opacity: 1;"></path><path transform="translate(479.4473400141027,430.79654980120637)" d="M-4.47213595499958,-4.47213595499958h8.94427190999916v8.94427190999916h-8.94427190999916Z" style="fill: #f58518; stroke-width: 2; opacity: 1;"></path><path transform="translate(481.4658095707194,430.79654980120637)" d="M-4.47213595499958,-4.47213595499958h8.94427190999916v8.94427190999916h-8.94427190999916Z" style="fill: #f58518; stroke-width: 2; opacity: 1;"></path><path transform="translate(483.45035365843626,261.5930996024128)" d="M-4.47213595499958,-4.47213595499958h8.94427190999916v8.94427190999916h-8.94427190999916Z" style="fill: #f58518; stroke-width: 2; opacity: 1;"></path><path transform="translate(485.40209385826523,411.62871722014336)" d="M-4.47213595499958,-4.47213595499958h8.94427190999916v8.94427190999916h-8.94427190999916Z" style="fill: #f58518; stroke-width: 2; opacity: 1;"></path><path transform="translate(487.32209703500473,322.5505861434711)" d="M-4.47213595499958,-4.47213595499958h8.94427190999916v8.94427190999916h-8.94427190999916Z" style="fill: #f58518; stroke-width: 2; opacity: 1;"></path><path transform="translate(489.21137883946386,369.0013535318051)" d="M-4.47213595499958,-4.47213595499958h8.94427190999916v8.94427190999916h-8.94427190999916Z" style="fill: #f58518; stroke-width: 2; opacity: 1;"></path><path transform="translate(491.0709069348849,209.5846870551698)" d="M-4.47213595499958,-4.47213595499958h8.94427190999916v8.94427190999916h-8.94427190999916Z" style="fill: #f58518; stroke-width: 2; opacity: 1;"></path><path transform="translate(492.9016039732237,454.2560809084816)" d="M-4.47213595499958,-4.47213595499958h8.94427190999916v8.94427190999916h-8.94427190999916Z" style="fill: #f58518; stroke-width: 2; opacity: 1;"></path><path transform="translate(496.47998671766663,290.44519808702154)" d="M-4.47213595499958,-4.47213595499958h8.94427190999916v8.94427190999916h-8.94427190999916Z" style="fill: #f58518; stroke-width: 2; opacity: 1;"></path><path transform="translate(498.2293163975359,395.4225456892302)" d="M-4.47213595499958,-4.47213595499958h8.94427190999916v8.94427190999916h-8.94427190999916Z" style="fill: #f58518; stroke-width: 2; opacity: 1;"></path><path transform="translate(501.65209499862544,369.0013535318051)" d="M-4.47213595499958,-4.47213595499958h8.94427190999916v8.94427190999916h-8.94427190999916Z" style="fill: #f58518; stroke-width: 2; opacity: 1;"></path><path transform="translate(503.32698256589333,199.79790333301148)" d="M-4.47213595499958,-4.47213595499958h8.94427190999916v8.94427190999916h-8.94427190999916Z" style="fill: #f58518; stroke-width: 2; opacity: 1;"></path><path transform="translate(506.60712664950563,484.5006767659026)" d="M-4.47213595499958,-4.47213595499958h8.94427190999916v8.94427190999916h-8.94427190999916Z" style="fill: #f58518; stroke-width: 2; opacity: 1;"></path><path transform="translate(511.3625717483603,395.4225456892302)" d="M-4.47213595499958,-4.47213595499958h8.94427190999916v8.94427190999916h-8.94427190999916Z" style="fill: #f58518; stroke-width: 2; opacity: 1;"></path><path transform="translate(512.9060916843958,290.44519808702154)" d="M-4.47213595499958,-4.47213595499958h8.94427190999916v8.94427190999916h-8.94427190999916Z" style="fill: #f58518; stroke-width: 2; opacity: 1;"></path><path transform="translate(514.4296946778703,484.5006767659026)" d="M-4.47213595499958,-4.47213595499958h8.94427190999916v8.94427190999916h-8.94427190999916Z" style="fill: #f58518; stroke-width: 2; opacity: 1;"></path><path transform="translate(515.9338881876662,381.3841213627224)" d="M-4.47213595499958,-4.47213595499958h8.94427190999916v8.94427190999916h-8.94427190999916Z" style="fill: #f58518; stroke-width: 2; opacity: 1;"></path><path transform="translate(517.4191605222443,454.2560809084816)" d="M-4.47213595499958,-4.47213595499958h8.94427190999916v8.94427190999916h-8.94427190999916Z" style="fill: #f58518; stroke-width: 2; opacity: 1;"></path><path transform="translate(518.8859817912809,395.4225456892302)" d="M-4.47213595499958,-4.47213595499958h8.94427190999916v8.94427190999916h-8.94427190999916Z" style="fill: #f58518; stroke-width: 2; opacity: 1;"></path><path transform="translate(520.3348047989164,484.5006767659026)" d="M-4.47213595499958,-4.47213595499958h8.94427190999916v8.94427190999916h-8.94427190999916Z" style="fill: #f58518; stroke-width: 2; opacity: 1;"></path><path transform="translate(521.7660658828646,484.5006767659026)" d="M-4.47213595499958,-4.47213595499958h8.94427190999916v8.94427190999916h-8.94427190999916Z" style="fill: #f58518; stroke-width: 2; opacity: 1;"></path><path transform="translate(523.180185703272,484.5006767659026)" d="M-4.47213595499958,-4.47213595499958h8.94427190999916v8.94427190999916h-8.94427190999916Z" style="fill: #f58518; stroke-width: 2; opacity: 1;"></path><path transform="translate(525.9586102158742,430.79654980120637)" d="M-4.47213595499958,-4.47213595499958h8.94427190999916v8.94427190999916h-8.94427190999916Z" style="fill: #f58518; stroke-width: 2; opacity: 1;"></path><path transform="translate(527.3236843061088,357.9245902554471)" d="M-4.47213595499958,-4.47213595499958h8.94427190999916v8.94427190999916h-8.94427190999916Z" style="fill: #f58518; stroke-width: 2; opacity: 1;"></path><path transform="translate(530.0073815022038,275.03247948958335)" d="M-4.47213595499958,-4.47213595499958h8.94427190999916v8.94427190999916h-8.94427190999916Z" style="fill: #f58518; stroke-width: 2; opacity: 1;"></path><path transform="translate(532.6314360180594,484.5006767659026)" d="M-4.47213595499958,-4.47213595499958h8.94427190999916v8.94427190999916h-8.94427190999916Z" style="fill: #f58518; stroke-width: 2; opacity: 1;"></path><path transform="translate(533.9219143678048,484.5006767659026)" d="M-4.47213595499958,-4.47213595499958h8.94427190999916v8.94427190999916h-8.94427190999916Z" style="fill: #f58518; stroke-width: 2; opacity: 1;"></path><path transform="translate(538.9472512268909,454.2560809084816)" d="M-4.47213595499958,-4.47213595499958h8.94427190999916v8.94427190999916h-8.94427190999916Z" style="fill: #f58518; stroke-width: 2; opacity: 1;"></path><path transform="translate(540.1708641840045,484.5006767659026)" d="M-4.47213595499958,-4.47213595499958h8.94427190999916v8.94427190999916h-8.94427190999916Z" style="fill: #f58518; stroke-width: 2; opacity: 1;"></path><path transform="translate(541.381927043461,484.5006767659026)" d="M-4.47213595499958,-4.47213595499958h8.94427190999916v8.94427190999916h-8.94427190999916Z" style="fill: #f58518; stroke-width: 2; opacity: 1;"></path><path transform="translate(542.5806946362128,430.79654980120637)" d="M-4.47213595499958,-4.47213595499958h8.94427190999916v8.94427190999916h-8.94427190999916Z" style="fill: #f58518; stroke-width: 2; opacity: 1;"></path><path transform="translate(544.9423252331982,484.5006767659026)" d="M-4.47213595499958,-4.47213595499958h8.94427190999916v8.94427190999916h-8.94427190999916Z" style="fill: #f58518; stroke-width: 2; opacity: 1;"></path><path transform="translate(546.1056606895419,454.2560809084816)" d="M-4.47213595499958,-4.47213595499958h8.94427190999916v8.94427190999916h-8.94427190999916Z" style="fill: #f58518; stroke-width: 2; opacity: 1;"></path><path transform="translate(551.7563845139327,330.34170655810175)" d="M-4.47213595499958,-4.47213595499958h8.94427190999916v8.94427190999916h-8.94427190999916Z" style="fill: #f58518; stroke-width: 2; opacity: 1;"></path><path transform="translate(572.916058090699,338.7567576743841)" d="M-4.47213595499958,-4.47213595499958h8.94427190999916v8.94427190999916h-8.94427190999916Z" style="fill: #f58518; stroke-width: 2; opacity: 1;"></path><path transform="translate(594.75124284021,357.9245902554471)" d="M-4.47213595499958,-4.47213595499958h8.94427190999916v8.94427190999916h-8.94427190999916Z" style="fill: #f58518; stroke-width: 2; opacity: 1;"></path><path transform="translate(81.84515115581415,553.5067678550481)" d="M0,-3.872983346207417L-4.47213595499958,3.872983346207417L4.47213595499958,3.872983346207417Z" style="fill: #e45756; stroke-width: 2; opacity: 1;"></path><path transform="translate(129.7214954478202,550.9897206188062)" d="M0,-3.872983346207417L-4.47213595499958,3.872983346207417L4.47213595499958,3.872983346207417Z" style="fill: #e45756; stroke-width: 2; opacity: 1;"></path><path transform="translate(163.6903023116283,549.9995376265597)" d="M0,-3.872983346207417L-4.47213595499958,3.872983346207417L4.47213595499958,3.872983346207417Z" style="fill: #e45756; stroke-width: 2; opacity: 1;"></path><path transform="translate(190.03855589898774,545.8922961984125)" d="M0,-3.872983346207417L-4.47213595499958,3.872983346207417L4.47213595499958,3.872983346207417Z" style="fill: #e45756; stroke-width: 2; opacity: 1;"></path><path transform="translate(211.56664660363435,550.741298198495)" d="M0,-3.872983346207417L-4.47213595499958,3.872983346207417L4.47213595499958,3.872983346207417Z" style="fill: #e45756; stroke-width: 2; opacity: 1;"></path><path transform="translate(229.76838794382346,555.1757685688493)" d="M0,-3.872983346207417L-4.47213595499958,3.872983346207417L4.47213595499958,3.872983346207417Z" style="fill: #e45756; stroke-width: 2; opacity: 1;"></path><path transform="translate(245.53545346744244,556.6089970369245)" d="M0,-3.872983346207417L-4.47213595499958,3.872983346207417L4.47213595499958,3.872983346207417Z" style="fill: #e45756; stroke-width: 2; opacity: 1;"></path><path transform="translate(259.44299089564043,548.0467160808614)" d="M0,-3.872983346207417L-4.47213595499958,3.872983346207417L4.47213595499958,3.872983346207417Z" style="fill: #e45756; stroke-width: 2; opacity: 1;"></path><path transform="translate(271.8837070548019,555.1757685688493)" d="M0,-3.872983346207417L-4.47213595499958,3.872983346207417L4.47213595499958,3.872983346207417Z" style="fill: #e45756; stroke-width: 2; opacity: 1;"></path><path transform="translate(283.1377037405724,557.2669756802693)" d="M0,-3.872983346207417L-4.47213595499958,3.872983346207417L4.47213595499958,3.872983346207417Z" style="fill: #e45756; stroke-width: 2; opacity: 1;"></path><path transform="translate(293.4117977594485,559.5354292866093)" d="M0,-3.872983346207417L-4.47213595499958,3.872983346207417L4.47213595499958,3.872983346207417Z" style="fill: #e45756; stroke-width: 2; opacity: 1;"></path><path transform="translate(302.86304807423596,561.3037669822618)" d="M0,-3.872983346207417L-4.47213595499958,3.872983346207417L4.47213595499958,3.872983346207417Z" style="fill: #e45756; stroke-width: 2; opacity: 1;"></path><path transform="translate(311.6135390996376,561.0297706847601)" d="M0,-3.872983346207417L-4.47213595499958,3.872983346207417L4.47213595499958,3.872983346207417Z" style="fill: #e45756; stroke-width: 2; opacity: 1;"></path><path transform="translate(319.760051346808,567.0840302358189)" d="M0,-3.872983346207417L-4.47213595499958,3.872983346207417L4.47213595499958,3.872983346207417Z" style="fill: #e45756; stroke-width: 2; opacity: 1;"></path><path transform="translate(327.3806046232566,573.5083549234532)" d="M0,-3.872983346207417L-4.47213595499958,3.872983346207417L4.47213595499958,3.872983346207417Z" style="fill: #e45756; stroke-width: 2; opacity: 1;"></path><path transform="translate(334.53901408590764,576.1605865679652)" d="M0,-3.872983346207417L-4.47213595499958,3.872983346207417L4.47213595499958,3.872983346207417Z" style="fill: #e45756; stroke-width: 2; opacity: 1;"></path><path transform="translate(341.28814205145454,579.5320357113995)" d="M0,-3.872983346207417L-4.47213595499958,3.872983346207417L4.47213595499958,3.872983346207417Z" style="fill: #e45756; stroke-width: 2; opacity: 1;"></path><path transform="translate(347.67226943673194,581.1762988277231)" d="M0,-3.872983346207417L-4.47213595499958,3.872983346207417L4.47213595499958,3.872983346207417Z" style="fill: #e45756; stroke-width: 2; opacity: 1;"></path><path transform="translate(353.728858210616,583.015194317461)" d="M0,-3.872983346207417L-4.47213595499958,3.872983346207417L4.47213595499958,3.872983346207417Z" style="fill: #e45756; stroke-width: 2; opacity: 1;"></path><path transform="translate(359.4898833916437,588.3775882200803)" d="M0,-3.872983346207417L-4.47213595499958,3.872983346207417L4.47213595499958,3.872983346207417Z" style="fill: #e45756; stroke-width: 2; opacity: 1;"></path><path transform="translate(364.9828548963866,588.0232500323403)" d="M0,-3.872983346207417L-4.47213595499958,3.872983346207417L4.47213595499958,3.872983346207417Z" style="fill: #e45756; stroke-width: 2; opacity: 1;"></path><path transform="translate(370.2316120561765,588.9113448627351)" d="M0,-3.872983346207417L-4.47213595499958,3.872983346207417L4.47213595499958,3.872983346207417Z" style="fill: #e45756; stroke-width: 2; opacity: 1;"></path><path transform="translate(375.2569489152626,591.2561254873215)" d="M0,-3.872983346207417L-4.47213595499958,3.872983346207417L4.47213595499958,3.872983346207417Z" style="fill: #e45756; stroke-width: 2; opacity: 1;"></path><path transform="translate(380.0771117979755,590.3480870174565)" d="M0,-3.872983346207417L-4.47213595499958,3.872983346207417L4.47213595499958,3.872983346207417Z" style="fill: #e45756; stroke-width: 2; opacity: 1;"></path><path transform="translate(384.7081992300502,594.0282675937366)" d="M0,-3.872983346207417L-4.47213595499958,3.872983346207417L4.47213595499958,3.872983346207417Z" style="fill: #e45756; stroke-width: 2; opacity: 1;"></path><path transform="translate(389.1644863434606,594.780019190055)" d="M0,-3.872983346207417L-4.47213595499958,3.872983346207417L4.47213595499958,3.872983346207417Z" style="fill: #e45756; stroke-width: 2; opacity: 1;"></path><path transform="translate(393.45869025545176,595.5371849603633)" d="M0,-3.872983346207417L-4.47213595499958,3.872983346207417L4.47213595499958,3.872983346207417Z" style="fill: #e45756; stroke-width: 2; opacity: 1;"></path><path transform="translate(397.60218885828857,595.7273315860384)" d="M0,-3.872983346207417L-4.47213595499958,3.872983346207417L4.47213595499958,3.872983346207417Z" style="fill: #e45756; stroke-width: 2; opacity: 1;"></path><path transform="translate(401.6052025026221,594.5915767934265)" d="M0,-3.872983346207417L-4.47213595499958,3.872983346207417L4.47213595499958,3.872983346207417Z" style="fill: #e45756; stroke-width: 2; opacity: 1;"></path><path transform="translate(405.4769458791905,594.9687998639904)" d="M0,-3.872983346207417L-4.47213595499958,3.872983346207417L4.47213595499958,3.872983346207417Z" style="fill: #e45756; stroke-width: 2; opacity: 1;"></path><path transform="translate(409.2257557790707,597.0680750580244)" d="M0,-3.872983346207417L-4.47213595499958,3.872983346207417L4.47213595499958,3.872983346207417Z" style="fill: #e45756; stroke-width: 2; opacity: 1;"></path><path transform="translate(412.8591991883926,596.8754902071311)" d="M0,-3.872983346207417L-4.47213595499958,3.872983346207417L4.47213595499958,3.872983346207417Z" style="fill: #e45756; stroke-width: 2; opacity: 1;"></path><path transform="translate(416.38416524172175,597.6479552017702)" d="M0,-3.872983346207417L-4.47213595499958,3.872983346207417L4.47213595499958,3.872983346207417Z" style="fill: #e45756; stroke-width: 2; opacity: 1;"></path><path transform="translate(419.8069438428112,597.261013238324)" d="M0,-3.872983346207417L-4.47213595499958,3.872983346207417L4.47213595499958,3.872983346207417Z" style="fill: #e45756; stroke-width: 2; opacity: 1;"></path><path transform="translate(423.1332932072687,597.4543062523203)" d="M0,-3.872983346207417L-4.47213595499958,3.872983346207417L4.47213595499958,3.872983346207417Z" style="fill: #e45756; stroke-width: 2; opacity: 1;"></path><path transform="translate(426.3684981490661,596.6832573937122)" d="M0,-3.872983346207417L-4.47213595499958,3.872983346207417L4.47213595499958,3.872983346207417Z" style="fill: #e45756; stroke-width: 2; opacity: 1;"></path><path transform="translate(429.5174205925461,598.8174002090385)" d="M0,-3.872983346207417L-4.47213595499958,3.872983346207417L4.47213595499958,3.872983346207417Z" style="fill: #e45756; stroke-width: 2; opacity: 1;"></path><path transform="translate(432.58454352205615,596.8754902071311)" d="M0,-3.872983346207417L-4.47213595499958,3.872983346207417L4.47213595499958,3.872983346207417Z" style="fill: #e45756; stroke-width: 2; opacity: 1;"></path><path transform="translate(435.5740093664302,597.0680750580244)" d="M0,-3.872983346207417L-4.47213595499958,3.872983346207417L4.47213595499958,3.872983346207417Z" style="fill: #e45756; stroke-width: 2; opacity: 1;"></path><path transform="translate(438.4896536431022,598.6215870760198)" d="M0,-3.872983346207417L-4.47213595499958,3.872983346207417L4.47213595499958,3.872983346207417Z" style="fill: #e45756; stroke-width: 2; opacity: 1;"></path><path transform="translate(441.33503454745784,597.6479552017702)" d="M0,-3.872983346207417L-4.47213595499958,3.872983346207417L4.47213595499958,3.872983346207417Z" style="fill: #e45756; stroke-width: 2; opacity: 1;"></path><path transform="translate(444.11345906006,598.8174002090385)" d="M0,-3.872983346207417L-4.47213595499958,3.872983346207417L4.47213595499958,3.872983346207417Z" style="fill: #e45756; stroke-width: 2; opacity: 1;"></path><path transform="translate(446.8280060522007,597.6479552017702)" d="M0,-3.872983346207417L-4.47213595499958,3.872983346207417L4.47213595499958,3.872983346207417Z" style="fill: #e45756; stroke-width: 2; opacity: 1;"></path><path transform="translate(449.4815467946282,597.841961606134)" d="M0,-3.872983346207417L-4.47213595499958,3.872983346207417L4.47213595499958,3.872983346207417Z" style="fill: #e45756; stroke-width: 2; opacity: 1;"></path><path transform="translate(452.0767632119907,598.6215870760198)" d="M0,-3.872983346207417L-4.47213595499958,3.872983346207417L4.47213595499958,3.872983346207417Z" style="fill: #e45756; stroke-width: 2; opacity: 1;"></path><path transform="translate(454.61616417395635,599.4070372517697)" d="M0,-3.872983346207417L-4.47213595499958,3.872983346207417L4.47213595499958,3.872983346207417Z" style="fill: #e45756; stroke-width: 2; opacity: 1;"></path><path transform="translate(457.1021000710768,598.4261380794662)" d="M0,-3.872983346207417L-4.47213595499958,3.872983346207417L4.47213595499958,3.872983346207417Z" style="fill: #e45756; stroke-width: 2; opacity: 1;"></path><path transform="translate(459.5367758876469,598.6215870760198)" d="M0,-3.872983346207417L-4.47213595499958,3.872983346207417L4.47213595499958,3.872983346207417Z" style="fill: #e45756; stroke-width: 2; opacity: 1;"></path><path transform="translate(461.92226295378964,598.2310515576446)" d="M0,-3.872983346207417L-4.47213595499958,3.872983346207417L4.47213595499958,3.872983346207417Z" style="fill: #e45756; stroke-width: 2; opacity: 1;"></path><path transform="translate(464.2605095337278,598.8174002090385)" d="M0,-3.872983346207417L-4.47213595499958,3.872983346207417L4.47213595499958,3.872983346207417Z" style="fill: #e45756; stroke-width: 2; opacity: 1;"></path><path transform="translate(466.5533503858643,599.2101239113832)" d="M0,-3.872983346207417L-4.47213595499958,3.872983346207417L4.47213595499958,3.872983346207417Z" style="fill: #e45756; stroke-width: 2; opacity: 1;"></path><path transform="translate(468.80251541220474,598.6215870760198)" d="M0,-3.872983346207417L-4.47213595499958,3.872983346207417L4.47213595499958,3.872983346207417Z" style="fill: #e45756; stroke-width: 2; opacity: 1;"></path><path transform="translate(471.00963749927485,598.6215870760198)" d="M0,-3.872983346207417L-4.47213595499958,3.872983346207417L4.47213595499958,3.872983346207417Z" style="fill: #e45756; stroke-width: 2; opacity: 1;"></path><path transform="translate(473.1762596395602,599.8019739236516)" d="M0,-3.872983346207417L-4.47213595499958,3.872983346207417L4.47213595499958,3.872983346207417Z" style="fill: #e45756; stroke-width: 2; opacity: 1;"></path><path transform="translate(475.303841411266,599.6043201469643)" d="M0,-3.872983346207417L-4.47213595499958,3.872983346207417L4.47213595499958,3.872983346207417Z" style="fill: #e45756; stroke-width: 2; opacity: 1;"></path><path transform="translate(477.39376488455224,599.013578629389)" d="M0,-3.872983346207417L-4.47213595499958,3.872983346207417L4.47213595499958,3.872983346207417Z" style="fill: #e45756; stroke-width: 2; opacity: 1;"></path><path transform="translate(479.4473400141027,599.8019739236516)" d="M0,-3.872983346207417L-4.47213595499958,3.872983346207417L4.47213595499958,3.872983346207417Z" style="fill: #e45756; stroke-width: 2; opacity: 1;"></path><path transform="translate(481.4658095707194,599.8019739236516)" d="M0,-3.872983346207417L-4.47213595499958,3.872983346207417L4.47213595499958,3.872983346207417Z" style="fill: #e45756; stroke-width: 2; opacity: 1;"></path><path transform="translate(483.45035365843626,599.013578629389)" d="M0,-3.872983346207417L-4.47213595499958,3.872983346207417L4.47213595499958,3.872983346207417Z" style="fill: #e45756; stroke-width: 2; opacity: 1;"></path><path transform="translate(485.40209385826523,599.2101239113832)" d="M0,-3.872983346207417L-4.47213595499958,3.872983346207417L4.47213595499958,3.872983346207417Z" style="fill: #e45756; stroke-width: 2; opacity: 1;"></path><path transform="translate(487.32209703500473,599.4070372517697)" d="M0,-3.872983346207417L-4.47213595499958,3.872983346207417L4.47213595499958,3.872983346207417Z" style="fill: #e45756; stroke-width: 2; opacity: 1;"></path><path transform="translate(489.21137883946386,599.4070372517697)" d="M0,-3.872983346207417L-4.47213595499958,3.872983346207417L4.47213595499958,3.872983346207417Z" style="fill: #e45756; stroke-width: 2; opacity: 1;"></path><path transform="translate(491.0709069348849,599.6043201469643)" d="M0,-3.872983346207417L-4.47213595499958,3.872983346207417L4.47213595499958,3.872983346207417Z" style="fill: #e45756; stroke-width: 2; opacity: 1;"></path><path transform="translate(492.9016039732237,599.8019739236516)" d="M0,-3.872983346207417L-4.47213595499958,3.872983346207417L4.47213595499958,3.872983346207417Z" style="fill: #e45756; stroke-width: 2; opacity: 1;"></path><path transform="translate(496.47998671766663,599.2101239113832)" d="M0,-3.872983346207417L-4.47213595499958,3.872983346207417L4.47213595499958,3.872983346207417Z" style="fill: #e45756; stroke-width: 2; opacity: 1;"></path><path transform="translate(498.2293163975359,599.8019739236516)" d="M0,-3.872983346207417L-4.47213595499958,3.872983346207417L4.47213595499958,3.872983346207417Z" style="fill: #e45756; stroke-width: 2; opacity: 1;"></path><path transform="translate(501.65209499862544,599.6043201469643)" d="M0,-3.872983346207417L-4.47213595499958,3.872983346207417L4.47213595499958,3.872983346207417Z" style="fill: #e45756; stroke-width: 2; opacity: 1;"></path><path transform="translate(503.32698256589333,599.8019739236516)" d="M0,-3.872983346207417L-4.47213595499958,3.872983346207417L4.47213595499958,3.872983346207417Z" style="fill: #e45756; stroke-width: 2; opacity: 1;"></path><path transform="translate(506.60712664950563,599.8019739236516)" d="M0,-3.872983346207417L-4.47213595499958,3.872983346207417L4.47213595499958,3.872983346207417Z" style="fill: #e45756; stroke-width: 2; opacity: 1;"></path><path transform="translate(511.3625717483603,599.6043201469643)" d="M0,-3.872983346207417L-4.47213595499958,3.872983346207417L4.47213595499958,3.872983346207417Z" style="fill: #e45756; stroke-width: 2; opacity: 1;"></path><path transform="translate(512.9060916843958,599.4070372517697)" d="M0,-3.872983346207417L-4.47213595499958,3.872983346207417L4.47213595499958,3.872983346207417Z" style="fill: #e45756; stroke-width: 2; opacity: 1;"></path><path transform="translate(514.4296946778703,599.8019739236516)" d="M0,-3.872983346207417L-4.47213595499958,3.872983346207417L4.47213595499958,3.872983346207417Z" style="fill: #e45756; stroke-width: 2; opacity: 1;"></path><path transform="translate(515.9338881876662,599.4070372517697)" d="M0,-3.872983346207417L-4.47213595499958,3.872983346207417L4.47213595499958,3.872983346207417Z" style="fill: #e45756; stroke-width: 2; opacity: 1;"></path><path transform="translate(517.4191605222443,599.8019739236516)" d="M0,-3.872983346207417L-4.47213595499958,3.872983346207417L4.47213595499958,3.872983346207417Z" style="fill: #e45756; stroke-width: 2; opacity: 1;"></path><path transform="translate(518.8859817912809,599.4070372517697)" d="M0,-3.872983346207417L-4.47213595499958,3.872983346207417L4.47213595499958,3.872983346207417Z" style="fill: #e45756; stroke-width: 2; opacity: 1;"></path><path transform="translate(520.3348047989164,599.8019739236516)" d="M0,-3.872983346207417L-4.47213595499958,3.872983346207417L4.47213595499958,3.872983346207417Z" style="fill: #e45756; stroke-width: 2; opacity: 1;"></path><path transform="translate(521.7660658828646,599.8019739236516)" d="M0,-3.872983346207417L-4.47213595499958,3.872983346207417L4.47213595499958,3.872983346207417Z" style="fill: #e45756; stroke-width: 2; opacity: 1;"></path><path transform="translate(523.180185703272,599.6043201469643)" d="M0,-3.872983346207417L-4.47213595499958,3.872983346207417L4.47213595499958,3.872983346207417Z" style="fill: #e45756; stroke-width: 2; opacity: 1;"></path><path transform="translate(525.9586102158742,599.6043201469643)" d="M0,-3.872983346207417L-4.47213595499958,3.872983346207417L4.47213595499958,3.872983346207417Z" style="fill: #e45756; stroke-width: 2; opacity: 1;"></path><path transform="translate(527.3236843061088,599.8019739236516)" d="M0,-3.872983346207417L-4.47213595499958,3.872983346207417L4.47213595499958,3.872983346207417Z" style="fill: #e45756; stroke-width: 2; opacity: 1;"></path><path transform="translate(530.0073815022038,599.6043201469643)" d="M0,-3.872983346207417L-4.47213595499958,3.872983346207417L4.47213595499958,3.872983346207417Z" style="fill: #e45756; stroke-width: 2; opacity: 1;"></path><path transform="translate(532.6314360180594,599.4070372517697)" d="M0,-3.872983346207417L-4.47213595499958,3.872983346207417L4.47213595499958,3.872983346207417Z" style="fill: #e45756; stroke-width: 2; opacity: 1;"></path><path transform="translate(533.9219143678048,599.8019739236516)" d="M0,-3.872983346207417L-4.47213595499958,3.872983346207417L4.47213595499958,3.872983346207417Z" style="fill: #e45756; stroke-width: 2; opacity: 1;"></path><path transform="translate(538.9472512268909,599.8019739236516)" d="M0,-3.872983346207417L-4.47213595499958,3.872983346207417L4.47213595499958,3.872983346207417Z" style="fill: #e45756; stroke-width: 2; opacity: 1;"></path><path transform="translate(540.1708641840045,599.8019739236516)" d="M0,-3.872983346207417L-4.47213595499958,3.872983346207417L4.47213595499958,3.872983346207417Z" style="fill: #e45756; stroke-width: 2; opacity: 1;"></path><path transform="translate(541.381927043461,599.8019739236516)" d="M0,-3.872983346207417L-4.47213595499958,3.872983346207417L4.47213595499958,3.872983346207417Z" style="fill: #e45756; stroke-width: 2; opacity: 1;"></path><path transform="translate(542.5806946362128,599.8019739236516)" d="M0,-3.872983346207417L-4.47213595499958,3.872983346207417L4.47213595499958,3.872983346207417Z" style="fill: #e45756; stroke-width: 2; opacity: 1;"></path><path transform="translate(544.9423252331982,599.8019739236516)" d="M0,-3.872983346207417L-4.47213595499958,3.872983346207417L4.47213595499958,3.872983346207417Z" style="fill: #e45756; stroke-width: 2; opacity: 1;"></path><path transform="translate(546.1056606895419,599.8019739236516)" d="M0,-3.872983346207417L-4.47213595499958,3.872983346207417L4.47213595499958,3.872983346207417Z" style="fill: #e45756; stroke-width: 2; opacity: 1;"></path><path transform="translate(551.7563845139327,599.8019739236516)" d="M0,-3.872983346207417L-4.47213595499958,3.872983346207417L4.47213595499958,3.872983346207417Z" style="fill: #e45756; stroke-width: 2; opacity: 1;"></path><path transform="translate(572.916058090699,599.8019739236516)" d="M0,-3.872983346207417L-4.47213595499958,3.872983346207417L4.47213595499958,3.872983346207417Z" style="fill: #e45756; stroke-width: 2; opacity: 1;"></path><path transform="translate(594.75124284021,599.8019739236516)" d="M0,-3.872983346207417L-4.47213595499958,3.872983346207417L4.47213595499958,3.872983346207417Z" style="fill: #e45756; stroke-width: 2; opacity: 1;"></path></g><g class="mark-group role-legend"><g transform="translate(0,650)"><path class="background" d="M0,0h96v61h-96Z" style="pointer-events: none; fill: none;"></path><g><g class="mark-group role-legend-entry"><g transform="translate(0,16)"><path class="background" d="M0,0h0v0h0Z" style="pointer-events: none; fill: none;"></path><g><g class="mark-group role-scope"><g transform="translate(0,0)"><path class="background" d="M0,0h88v12.5h-88Z" style="pointer-events: none; fill: none; opacity: 1;"></path><g><g class="mark-symbol role-legend-symbol" style="pointer-events: none;"><path transform="translate(6,6)" d="M5,0A5,5,0,1,1,-5,0A5,5,0,1,1,5,0" style="fill: #4c78a8; stroke: #4c78a8; stroke-width: 1.5; opacity: 1;"></path></g><g class="mark-text role-legend-label" style="pointer-events: none;"><text text-anchor="start" transform="translate(16,9)" style="font-family: sans-serif; font-size: 10px; fill: #000; opacity: 1;">average</text></g></g><path class="foreground" d="" style="pointer-events: none; display: none; fill: none;"></path></g><g transform="translate(0,16)"><path class="background" d="M0,0h88v12.5h-88Z" style="pointer-events: none; fill: none; opacity: 1;"></path><g><g class="mark-symbol role-legend-symbol" style="pointer-events: none;"><path transform="translate(6,6)" d="M5,0A5,5,0,1,1,-5,0A5,5,0,1,1,5,0" style="fill: #f58518; stroke: #f58518; stroke-width: 1.5; opacity: 1;"></path></g><g class="mark-text role-legend-label" style="pointer-events: none;"><text text-anchor="start" transform="translate(16,9)" style="font-family: sans-serif; font-size: 10px; fill: #000; opacity: 1;">maximum</text></g></g><path class="foreground" d="" style="pointer-events: none; display: none; fill: none;"></path></g><g transform="translate(0,32)"><path class="background" d="M0,0h88v12.5h-88Z" style="pointer-events: none; fill: none; opacity: 1;"></path><g><g class="mark-symbol role-legend-symbol" style="pointer-events: none;"><path transform="translate(6,6)" d="M5,0A5,5,0,1,1,-5,0A5,5,0,1,1,5,0" style="fill: #e45756; stroke: #e45756; stroke-width: 1.5; opacity: 1;"></path></g><g class="mark-text role-legend-label" style="pointer-events: none;"><text text-anchor="start" transform="translate(16,9)" style="font-family: sans-serif; font-size: 10px; fill: #000; opacity: 1;">histogram</text></g></g><path class="foreground" d="" style="pointer-events: none; display: none; fill: none;"></path></g></g></g><path class="foreground" d="" style="pointer-events: none; display: none; fill: none;"></path></g></g><g class="mark-text role-legend-title" style="pointer-events: none;"><text text-anchor="start" transform="translate(0,9)" style="font-family: sans-serif; font-size: 11px; font-weight: bold; fill: #000; opacity: 1;">Curve color</text></g></g><path class="foreground" d="" style="pointer-events: none; display: none; fill: none;"></path></g></g><g class="mark-group role-legend"><g transform="translate(104,650)"><path class="background" d="M0,0h96v59h-96Z" style="pointer-events: none; fill: none;"></path><g><g class="mark-group role-legend-entry"><g transform="translate(0,16)"><path class="background" d="M0,0h0v0h0Z" style="pointer-events: none; fill: none;"></path><g><g class="mark-group role-scope"><g transform="translate(0,0)"><path class="background" d="M0,0h88v12.5h-88Z" style="pointer-events: none; fill: none; opacity: 1;"></path><g><g class="mark-symbol role-legend-symbol" style="pointer-events: none;"><path transform="translate(6,6)" d="M5,0A5,5,0,1,1,-5,0A5,5,0,1,1,5,0" style="fill: black; fill-opacity: 1; stroke: none; stroke-width: 1.5; opacity: 1;"></path></g><g class="mark-text role-legend-label" style="pointer-events: none;"><text text-anchor="start" transform="translate(16,9)" style="font-family: sans-serif; font-size: 10px; fill: #000; opacity: 1;">average</text></g></g><path class="foreground" d="" style="pointer-events: none; display: none; fill: none;"></path></g><g transform="translate(0,16)"><path class="background" d="M0,0h88v12.5h-88Z" style="pointer-events: none; fill: none; opacity: 1;"></path><g><g class="mark-symbol role-legend-symbol" style="pointer-events: none;"><path transform="translate(6,6)" d="M-5,-5h10v10h-10Z" style="fill: black; fill-opacity: 1; stroke: none; stroke-width: 1.5; opacity: 1;"></path></g><g class="mark-text role-legend-label" style="pointer-events: none;"><text text-anchor="start" transform="translate(16,9)" style="font-family: sans-serif; font-size: 10px; fill: #000; opacity: 1;">maximum</text></g></g><path class="foreground" d="" style="pointer-events: none; display: none; fill: none;"></path></g><g transform="translate(0,31)"><path class="background" d="M0,0h88v11.830127018922191h-88Z" style="pointer-events: none; fill: none; opacity: 1;"></path><g><g class="mark-symbol role-legend-symbol" style="pointer-events: none;"><path transform="translate(6,6)" d="M0,-4.330127018922193L-5,4.330127018922193L5,4.330127018922193Z" style="fill: black; fill-opacity: 1; stroke: none; stroke-width: 1.5; opacity: 1;"></path></g><g class="mark-text role-legend-label" style="pointer-events: none;"><text text-anchor="start" transform="translate(16,9)" style="font-family: sans-serif; font-size: 10px; fill: #000; opacity: 1;">histogram</text></g></g><path class="foreground" d="" style="pointer-events: none; display: none; fill: none;"></path></g></g></g><path class="foreground" d="" style="pointer-events: none; display: none; fill: none;"></path></g></g><g class="mark-text role-legend-title" style="pointer-events: none;"><text text-anchor="start" transform="translate(0,9)" style="font-family: sans-serif; font-size: 11px; font-weight: bold; fill: #000; opacity: 1;">Curve shape</text></g></g><path class="foreground" d="" style="pointer-events: none; display: none; fill: none;"></path></g></g><g class="mark-group role-title"><g transform="translate(300,-19.355312469030956)"><path class="background" d="M0,0h0v0h0Z" style="pointer-events: none; fill: none;"></path><g><g class="mark-text role-title-text" style="pointer-events: none;"><text text-anchor="middle" transform="translate(0,10)" style="font-family: sans-serif; font-size: 13px; font-weight: bold; fill: #000; opacity: 1;">dfa: Statistics for partially balanced generation</text></g></g><path class="foreground" d="" style="pointer-events: none; display: none; fill: none;"></path></g></g></g><path class="foreground" d="" style="display: none; fill: none;"></path></g></g></g></svg>