<svg class="marks" width="657" height="743" viewBox="0 0 657 743" version="1.1" xmlns="http://www.w3.org/2000/svg" xmlns:xlink="http://www.w3.org/1999/xlink"><rect width="657" height="743" style="fill: white;"></rect><g transform="translate(51,27)"><g class="mark-group role-frame root"><g transform="translate(0,0)"><path class="background" d="M0.5,0.5h600v600h-600Z" style="fill: none; stroke: #ddd;"></path><g><g class="mark-group role-axis"><g transform="translate(0.5,600.5)"><path class="background" d="M0,0h0v0h0Z" style="pointer-events: none; fill: none;"></path><g><g class="mark-rule role-axis-grid" style="pointer-events: none;"><line transform="translate(0,-600)" x2="0" y2="600" style="fill: none; stroke: #ddd; stroke-width: 1; opacity: 1;"></line><line transform="translate(283,-600)" x2="0" y2="600" style="fill: none; stroke: #ddd; stroke-width: 1; opacity: 1;"></line><line transform="translate(359,-600)" x2="0" y2="600" style="fill: none; stroke: #ddd; stroke-width: 1; opacity: 1;"></line><line transform="translate(405,-600)" x2="0" y2="600" style="fill: none; stroke: #ddd; stroke-width: 1; opacity: 1;"></line><line transform="translate(438,-600)" x2="0" y2="600" style="fill: none; stroke: #ddd; stroke-width: 1; opacity: 1;"></line><line transform="translate(464,-600)" x2="0" y2="600" style="fill: none; stroke: #ddd; stroke-width: 1; opacity: 1;"></line><line transform="translate(485,-600)" x2="0" y2="600" style="fill: none; stroke: #ddd; stroke-width: 1; opacity: 1;"></line><line transform="translate(503,-600)" x2="0" y2="600" style="fill: none; stroke: #ddd; stroke-width: 1; opacity: 1;"></line><line transform="translate(519,-600)" x2="0" y2="600" style="fill: none; stroke: #ddd; stroke-width: 1; opacity: 1;"></line><line transform="translate(533,-600)" x2="0" y2="600" style="fill: none; stroke: #ddd; stroke-width: 1; opacity: 1;"></line><line transform="translate(545,-600)" x2="0" y2="600" style="fill: none; stroke: #ddd; stroke-width: 1; opacity: 1;"></line><line transform="translate(556,-600)" x2="0" y2="600" style="fill: none; stroke: #ddd; stroke-width: 1; opacity: 1;"></line><line transform="translate(566,-600)" x2="0" y2="600" style="fill: none; stroke: #ddd; stroke-width: 1; opacity: 1;"></line><line transform="translate(576,-600)" x2="0" y2="600" style="fill: none; stroke: #ddd; stroke-width: 1; opacity: 1;"></line><line transform="translate(584,-600)" x2="0" y2="600" style="fill: none; stroke: #ddd; stroke-width: 1; opacity: 1;"></line><line transform="translate(592,-600)" x2="0" y2="600" style="fill: none; stroke: #ddd; stroke-width: 1; opacity: 1;"></line><line transform="translate(600,-600)" x2="0" y2="600" style="fill: none; stroke: #ddd; stroke-width: 1; opacity: 1;"></line></g></g><path class="foreground" d="" style="pointer-events: none; display: none; fill: none;"></path></g></g><g class="mark-group role-axis"><g transform="translate(0.5,0.5)"><path class="background" d="M0,0h0v0h0Z" style="pointer-events: none; fill: none;"></path><g><g class="mark-rule role-axis-grid" style="pointer-events: none;"><line transform="translate(0,600)" x2="600" y2="0" style="fill: none; stroke: #ddd; stroke-width: 1; opacity: 1;"></line><line transform="translate(0,317)" x2="600" y2="0" style="fill: none; stroke: #ddd; stroke-width: 1; opacity: 1;"></line><line transform="translate(0,241)" x2="600" y2="0" style="fill: none; stroke: #ddd; stroke-width: 1; opacity: 1;"></line><line transform="translate(0,195)" x2="600" y2="0" style="fill: none; stroke: #ddd; stroke-width: 1; opacity: 1;"></line><line transform="translate(0,162)" x2="600" y2="0" style="fill: none; stroke: #ddd; stroke-width: 1; opacity: 1;"></line><line transform="translate(0,136)" x2="600" y2="0" style="fill: none; stroke: #ddd; stroke-width: 1; opacity: 1;"></line><line transform="translate(0,115)" x2="600" y2="0" style="fill: none; stroke: #ddd; stroke-width: 1; opacity: 1;"></line><line transform="translate(0,97)" x2="600" y2="0" style="fill: none; stroke: #ddd; stroke-width: 1; opacity: 1;"></line><line transform="translate(0,81)" x2="600" y2="0" style="fill: none; stroke: #ddd; stroke-width: 1; opacity: 1;"></line><line transform="translate(0,67)" x2="600" y2="0" style="fill: none; stroke: #ddd; stroke-width: 1; opacity: 1;"></line><line transform="translate(0,55)" x2="600" y2="0" style="fill: none; stroke: #ddd; stroke-width: 1; opacity: 1;"></line><line transform="translate(0,44)" x2="600" y2="0" style="fill: none; stroke: #ddd; stroke-width: 1; opacity: 1;"></line><line transform="translate(0,34)" x2="600" y2="0" style="fill: none; stroke: #ddd; stroke-width: 1; opacity: 1;"></line><line transform="translate(0,24)" x2="600" y2="0" style="fill: none; stroke: #ddd; stroke-width: 1; opacity: 1;"></line><line transform="translate(0,16)" x2="600" y2="0" style="fill: none; stroke: #ddd; stroke-width: 1; opacity: 1;"></line><line transform="translate(0,8)" x2="600" y2="0" style="fill: none; stroke: #ddd; stroke-width: 1; opacity: 1;"></line><line transform="translate(0,0)" x2="600" y2="0" style="fill: none; stroke: #ddd; stroke-width: 1; opacity: 1;"></line></g></g><path class="foreground" d="" style="pointer-events: none; display: none; fill: none;"></path></g></g><g class="mark-group role-axis"><g transform="translate(0.5,600.5)"><path class="background" d="M0,0h0v0h0Z" style="pointer-events: none; fill: none;"></path><g><g class="mark-rule role-axis-tick" style="pointer-events: none;"><line transform="translate(0,0)" x2="0" y2="5" style="fill: none; stroke: #888; stroke-width: 1; opacity: 1;"></line><line transform="translate(283,0)" x2="0" y2="5" style="fill: none; stroke: #888; stroke-width: 1; opacity: 1;"></line><line transform="translate(359,0)" x2="0" y2="5" style="fill: none; stroke: #888; stroke-width: 1; opacity: 1;"></line><line transform="translate(405,0)" x2="0" y2="5" style="fill: none; stroke: #888; stroke-width: 1; opacity: 1;"></line><line transform="translate(438,0)" x2="0" y2="5" style="fill: none; stroke: #888; stroke-width: 1; opacity: 1;"></line><line transform="translate(464,0)" x2="0" y2="5" style="fill: none; stroke: #888; stroke-width: 1; opacity: 1;"></line><line transform="translate(485,0)" x2="0" y2="5" style="fill: none; stroke: #888; stroke-width: 1; opacity: 1;"></line><line transform="translate(503,0)" x2="0" y2="5" style="fill: none; stroke: #888; stroke-width: 1; opacity: 1;"></line><line transform="translate(519,0)" x2="0" y2="5" style="fill: none; stroke: #888; stroke-width: 1; opacity: 1;"></line><line transform="translate(533,0)" x2="0" y2="5" style="fill: none; stroke: #888; stroke-width: 1; opacity: 1;"></line><line transform="translate(545,0)" x2="0" y2="5" style="fill: none; stroke: #888; stroke-width: 1; opacity: 1;"></line><line transform="translate(556,0)" x2="0" y2="5" style="fill: none; stroke: #888; stroke-width: 1; opacity: 1;"></line><line transform="translate(566,0)" x2="0" y2="5" style="fill: none; stroke: #888; stroke-width: 1; opacity: 1;"></line><line transform="translate(576,0)" x2="0" y2="5" style="fill: none; stroke: #888; stroke-width: 1; opacity: 1;"></line><line transform="translate(584,0)" x2="0" y2="5" style="fill: none; stroke: #888; stroke-width: 1; opacity: 1;"></line><line transform="translate(592,0)" x2="0" y2="5" style="fill: none; stroke: #888; stroke-width: 1; opacity: 1;"></line><line transform="translate(600,0)" x2="0" y2="5" style="fill: none; stroke: #888; stroke-width: 1; opacity: 1;"></line></g><g class="mark-text role-axis-label" style="pointer-events: none;"><text text-anchor="start" transform="translate(0,15)" style="font-family: sans-serif; font-size: 10px; fill: #000; opacity: 1;">0</text><text text-anchor="middle" transform="translate(283.1377037405724,15)" style="font-family: sans-serif; font-size: 10px; fill: #000; opacity: 0;">10</text><text text-anchor="middle" transform="translate(359.4898833916437,15)" style="font-family: sans-serif; font-size: 10px; fill: #000; opacity: 0;">20</text><text text-anchor="middle" transform="translate(405.4769458791905,15)" style="font-family: sans-serif; font-size: 10px; fill: #000; opacity: 0;">30</text><text text-anchor="middle" transform="translate(438.4896536431022,15)" style="font-family: sans-serif; font-size: 10px; fill: #000; opacity: 0;">40</text><text text-anchor="middle" transform="translate(464.2605095337278,15)" style="font-family: sans-serif; font-size: 10px; fill: #000; opacity: 0;">50</text><text text-anchor="middle" transform="translate(485.40209385826523,15)" style="font-family: sans-serif; font-size: 10px; fill: #000; opacity: 0;">60</text><text text-anchor="middle" transform="translate(503.32698256589333,15)" style="font-family: sans-serif; font-size: 10px; fill: #000; opacity: 0;">70</text><text text-anchor="middle" transform="translate(518.8859817912809,15)" style="font-family: sans-serif; font-size: 10px; fill: #000; opacity: 1;">80</text><text text-anchor="middle" transform="translate(532.6314360180594,15)" style="font-family: sans-serif; font-size: 10px; fill: #000; opacity: 0;">90</text><text text-anchor="middle" transform="translate(544.9423252331982,15)" style="font-family: sans-serif; font-size: 10px; fill: #000; opacity: 0;">100</text><text text-anchor="middle" transform="translate(556.0899935968863,15)" style="font-family: sans-serif; font-size: 10px; fill: #000; opacity: 0;">110</text><text text-anchor="middle" transform="translate(566.2754074811448,15)" style="font-family: sans-serif; font-size: 10px; fill: #000; opacity: 0;">120</text><text text-anchor="middle" transform="translate(575.6515687036126,15)" style="font-family: sans-serif; font-size: 10px; fill: #000; opacity: 0;">130</text><text text-anchor="middle" transform="translate(584.3376596217765,15)" style="font-family: sans-serif; font-size: 10px; fill: #000; opacity: 0;">140</text><text text-anchor="middle" transform="translate(592.4283300170226,15)" style="font-family: sans-serif; font-size: 10px; fill: #000; opacity: 0;">150</text><text text-anchor="end" transform="translate(600,15)" style="font-family: sans-serif; font-size: 10px; fill: #000; opacity: 1;">160</text></g><g class="mark-rule role-axis-domain" style="pointer-events: none;"><line transform="translate(0,0)" x2="600" y2="0" style="fill: none; stroke: #888; stroke-width: 1; opacity: 1;"></line></g><g class="mark-text role-axis-title" style="pointer-events: none;"><text text-anchor="middle" transform="translate(300,30)" style="font-family: sans-serif; font-size: 11px; font-weight: bold; fill: #000; opacity: 1;">Starting leaf count</text></g></g><path class="foreground" d="" style="pointer-events: none; display: none; fill: none;"></path></g></g><g class="mark-group role-axis"><g transform="translate(0.5,0.5)"><path class="background" d="M0,0h0v0h0Z" style="pointer-events: none; fill: none;"></path><g><g class="mark-rule role-axis-tick" style="pointer-events: none;"><line transform="translate(0,600)" x2="-5" y2="0" style="fill: none; stroke: #888; stroke-width: 1; opacity: 1;"></line><line transform="translate(0,317)" x2="-5" y2="0" style="fill: none; stroke: #888; stroke-width: 1; opacity: 1;"></line><line transform="translate(0,241)" x2="-5" y2="0" style="fill: none; stroke: #888; stroke-width: 1; opacity: 1;"></line><line transform="translate(0,195)" x2="-5" y2="0" style="fill: none; stroke: #888; stroke-width: 1; opacity: 1;"></line><line transform="translate(0,162)" x2="-5" y2="0" style="fill: none; stroke: #888; stroke-width: 1; opacity: 1;"></line><line transform="translate(0,136)" x2="-5" y2="0" style="fill: none; stroke: #888; stroke-width: 1; opacity: 1;"></line><line transform="translate(0,115)" x2="-5" y2="0" style="fill: none; stroke: #888; stroke-width: 1; opacity: 1;"></line><line transform="translate(0,97)" x2="-5" y2="0" style="fill: none; stroke: #888; stroke-width: 1; opacity: 1;"></line><line transform="translate(0,81)" x2="-5" y2="0" style="fill: none; stroke: #888; stroke-width: 1; opacity: 1;"></line><line transform="translate(0,67)" x2="-5" y2="0" style="fill: none; stroke: #888; stroke-width: 1; opacity: 1;"></line><line transform="translate(0,55)" x2="-5" y2="0" style="fill: none; stroke: #888; stroke-width: 1; opacity: 1;"></line><line transform="translate(0,44)" x2="-5" y2="0" style="fill: none; stroke: #888; stroke-width: 1; opacity: 1;"></line><line transform="translate(0,34)" x2="-5" y2="0" style="fill: none; stroke: #888; stroke-width: 1; opacity: 1;"></line><line transform="translate(0,24)" x2="-5" y2="0" style="fill: none; stroke: #888; stroke-width: 1; opacity: 1;"></line><line transform="translate(0,16)" x2="-5" y2="0" style="fill: none; stroke: #888; stroke-width: 1; opacity: 1;"></line><line transform="translate(0,8)" x2="-5" y2="0" style="fill: none; stroke: #888; stroke-width: 1; opacity: 1;"></line><line transform="translate(0,0)" x2="-5" y2="0" style="fill: none; stroke: #888; stroke-width: 1; opacity: 1;"></line></g><g class="mark-text role-axis-label" style="pointer-events: none;"><text text-anchor="end" transform="translate(-7,603)" style="font-family: sans-serif; font-size: 10px; fill: #000; opacity: 1;">0</text><text text-anchor="end" transform="translate(-7,319.8622962594275)" style="font-family: sans-serif; font-size: 10px; fill: #000; opacity: 0;">10</text><text text-anchor="end" transform="translate(-7,243.51011660835633)" style="font-family: sans-serif; font-size: 10px; fill: #000; opacity: 1;">20</text><text text-anchor="end" transform="translate(-7,197.5230541208095)" style="font-family: sans-serif; font-size: 10px; fill: #000; opacity: 0;">30</text><text text-anchor="end" transform="translate(-7,164.51034635689783)" style="font-family: sans-serif; font-size: 10px; fill: #000; opacity: 1;">40</text><text text-anchor="end" transform="translate(-7,138.73949046627217)" style="font-family: sans-serif; font-size: 10px; fill: #000; opacity: 0;">50</text><text text-anchor="end" transform="translate(-7,117.5979061417348)" style="font-family: sans-serif; font-size: 10px; fill: #000; opacity: 1;">60</text><text text-anchor="end" transform="translate(-7,99.67301743410665)" style="font-family: sans-serif; font-size: 10px; fill: #000; opacity: 0;">70</text><text text-anchor="end" transform="translate(-7,84.11401820871909)" style="font-family: sans-serif; font-size: 10px; fill: #000; opacity: 1;">80</text><text text-anchor="end" transform="translate(-7,70.36856398194058)" style="font-family: sans-serif; font-size: 10px; fill: #000; opacity: 0;">90</text><text text-anchor="end" transform="translate(-7,58.05767476680188)" style="font-family: sans-serif; font-size: 10px; fill: #000; opacity: 1;">100</text><text text-anchor="end" transform="translate(-7,46.91000640311367)" style="font-family: sans-serif; font-size: 10px; fill: #000; opacity: 0;">110</text><text text-anchor="end" transform="translate(-7,36.724592518855154)" style="font-family: sans-serif; font-size: 10px; fill: #000; opacity: 1;">120</text><text text-anchor="end" transform="translate(-7,27.348431296387375)" style="font-family: sans-serif; font-size: 10px; fill: #000; opacity: 0;">130</text><text text-anchor="end" transform="translate(-7,18.662340378223426)" style="font-family: sans-serif; font-size: 10px; fill: #000; opacity: 1;">140</text><text text-anchor="end" transform="translate(-7,10.571669982977403)" style="font-family: sans-serif; font-size: 10px; fill: #000; opacity: 0;">150</text><text text-anchor="end" transform="translate(-7,3)" style="font-family: sans-serif; font-size: 10px; fill: #000; opacity: 1;">160</text></g><g class="mark-rule role-axis-domain" style="pointer-events: none;"><line transform="translate(0,600)" x2="0" y2="-600" style="fill: none; stroke: #888; stroke-width: 1; opacity: 1;"></line></g><g class="mark-text role-axis-title" style="pointer-events: none;"><text text-anchor="middle" transform="translate(-35,300) rotate(-90) translate(0,-2)" style="font-family: sans-serif; font-size: 11px; font-weight: bold; fill: #000; opacity: 1;">Final LEAF count</text></g></g><path class="foreground" d="" style="pointer-events: none; display: none; fill: none;"></path></g></g><g class="mark-group role-scope layer_0_pathgroup"><g transform="translate(0,0)"><path class="background" d="M0,0h600v600h-600Z" style="fill: none;"></path><g><g class="mark-line role-mark layer_0_marks"><path d="M81.84515115581415,518.1548488441858L129.7214954478202,484.89098274023183L163.6903023116283,462.6122640868728L190.03855589898774,446.5837906338152L211.56664660363435,435.65964299946603L229.76838794382346,421.66011726929673L245.53545346744244,415.4004815339433L259.44299089564043,410.45009064964194L271.8837070548019,402.41942451333813L283.1377037405724,386.9628780953724L293.4117977594485,378.43620625504064L302.86304807423596,381.78619249371667L311.6135390996376,376.11673644622545L319.760051346808,384.1715894334295L327.3806046232566,376.8502540497699L334.53901408590764,351.9763296074553L341.28814205145454,349.27209628878865L347.67226943673194,335.01243286801343L353.728858210616,337.2189108749881L359.4898833916437,334.7758437277238L364.9828548963866,346.8728243131911L370.2316120561765,335.5501982143496L375.2569489152626,300.7457128857732L380.0771117979755,329.74819206988417L384.7081992300502,296.26121966625345L389.1644863434606,304.4215822471315L393.45869025545176,289.8624496690243L397.60218885828857,369.46735387999917L401.6052025026221,272.88325391786526L405.4769458791905,365.1522196312112L409.2257557790707,323.48520551312345L412.8591991883926,303.5526213424012L416.38416524172175,268.39110374426076L419.8069438428112,301.76803935783863L423.1332932072687,287.7394594133834L426.3684981490661,250.15445694354946L429.5174205925461,236.81989510775327L432.58454352205615,256.67949118792365L435.5740093664302,241.64005435730928L438.4896536431022,288.3864609003624L441.33503454745784,269.58381208107863L444.11345906006,324.24455337758434L446.8280060522007,282.8934867120379L449.4815467946282,354.46454653255756L452.0767632119907,226.15717446169887L454.61616417395635,265.46098591409236L457.1021000710768,422.4021602601737L459.5367758876469,253.2188855492753L461.92226295378964,357.7908970777911L464.2605095337278,253.36806433532186L466.5533503858643,257.08317566212264L468.80251541220474,192.36632792083094L471.00963749927485,185.113662846301L473.1762596395602,518.1548488441858L475.303841411266,518.1548488441858L477.39376488455224,185.01321903990166L479.4473400141027,120.55265998589732L481.4658095707194,328.11629294519804L483.45035365843626,242.78090954824623L485.40209385826523,301.76803935783863L487.32209703500473,119.87599840493768L489.21137883946386,248.25568987973122L491.0709069348849,187.1408008116074L492.9016039732237,235.0171451036134L496.47998671766663,181.8920436518174L498.2293163975359,101.77068360246409L501.65209499862544,173.6315018509339L503.32698256589333,96.67301743410665L506.60712664950563,518.1548488441858L511.3625717483603,328.11629294519804L512.9060916843958,167.41545647794382L514.4296946778703,518.1548488441858L515.9338881876662,123.9954020940842L517.4191605222443,173.6315018509339L518.8859817912809,198.3947974973779L520.3348047989164,518.1548488441858L521.7660658828646,518.1548488441858L523.180185703272,518.1548488441858L525.9586102158742,158.6649654525422L527.3236843061088,72.6763156938912L530.0073815022038,69.99261849779622L532.6314360180594,518.1548488441858L533.9219143678048,518.1548488441858L538.9472512268909,470.2785045521798L540.1708641840045,518.1548488441858L541.381927043461,518.1548488441858L542.5806946362128,229.76838794382346L544.9423252331982,518.1548488441858L546.1056606895419,470.2785045521798L551.7563845139327,48.243615486067284L572.916058090699,27.08394190930099L594.75124284021,5.248757159789941" style="fill: none; stroke: #4c78a8; stroke-width: 2;"></path></g></g><path class="foreground" d="" style="display: none; fill: none;"></path></g><g transform="translate(0,0)"><path class="background" d="M0,0h600v600h-600Z" style="fill: none;"></path><g><g class="mark-line role-mark layer_0_marks"><path d="M81.84515115581415,518.1548488441858L129.7214954478202,470.2785045521798L163.6903023116283,436.3096976883717L190.03855589898774,409.96144410101226L211.56664660363435,388.43335339636565L229.76838794382346,370.2316120561765L245.53545346744244,354.46454653255756L259.44299089564043,340.55700910435957L271.8837070548019,328.11629294519804L283.1377037405724,316.8622962594275L293.4117977594485,306.5882022405515L302.86304807423596,297.13695192576404L311.6135390996376,288.3864609003624L319.760051346808,280.239948653192L327.3806046232566,272.6193953767434L334.53901408590764,265.46098591409236L341.28814205145454,258.71185794854546L347.67226943673194,252.32773056326806L353.728858210616,246.27114178938396L359.4898833916437,240.51011660835633L364.9828548963866,235.0171451036134L370.2316120561765,229.76838794382346L375.2569489152626,224.74305108473735L380.0771117979755,219.9228882020245L384.7081992300502,215.29180076994982L389.1644863434606,210.83551365653938L393.45869025545176,206.54130974454824L397.60218885828857,202.3978111417114L401.6052025026221,198.3947974973779L405.4769458791905,194.5230541208095L409.2257557790707,190.7742442209293L412.8591991883926,187.1408008116074L416.38416524172175,183.61583475827823L419.8069438428112,180.19305615718878L423.1332932072687,176.8667067927313L426.3684981490661,173.6315018509339L429.5174205925461,170.4825794074539L432.58454352205615,167.41545647794382L435.5740093664302,164.42599063356982L438.4896536431022,167.41545647794382L441.33503454745784,158.6649654525422L444.11345906006,155.88654093994003L446.8280060522007,153.17199394779934L449.4815467946282,150.51845320537183L452.0767632119907,147.92323678800932L454.61616417395635,145.38383582604365L457.1021000710768,297.13695192576404L459.5367758876469,140.4632241123531L461.92226295378964,147.92323678800932L464.2605095337278,135.73949046627217L466.5533503858643,133.44664961413568L468.80251541220474,131.1974845877953L471.00963749927485,128.99036250072515L473.1762596395602,518.1548488441858L475.303841411266,518.1548488441858L477.39376488455224,122.60623511544777L479.4473400141027,120.55265998589732L481.4658095707194,328.11629294519804L483.45035365843626,116.54964634156374L485.40209385826523,167.41545647794382L487.32209703500473,112.67790296499527L489.21137883946386,153.17199394779934L491.0709069348849,108.92909306511514L492.9016039732237,235.0171451036134L496.47998671766663,103.52001328233335L498.2293163975359,101.77068360246409L501.65209499862544,98.34790500137458L503.32698256589333,96.67301743410665L506.60712664950563,518.1548488441858L511.3625717483603,258.71185794854546L512.9060916843958,87.09390831560415L514.4296946778703,518.1548488441858L515.9338881876662,84.06611181233383L517.4191605222443,173.6315018509339L518.8859817912809,81.11401820871909L520.3348047989164,518.1548488441858L521.7660658828646,518.1548488441858L523.180185703272,518.1548488441858L525.9586102158742,79.66519520108368L527.3236843061088,72.6763156938912L530.0073815022038,69.99261849779622L532.6314360180594,518.1548488441858L533.9219143678048,518.1548488441858L538.9472512268909,470.2785045521798L540.1708641840045,518.1548488441858L541.381927043461,518.1548488441858L542.5806946362128,229.76838794382346L544.9423252331982,518.1548488441858L546.1056606895419,470.2785045521798L551.7563845139327,48.243615486067284L572.916058090699,27.08394190930099L594.75124284021,5.248757159789941" style="fill: none; stroke: #f58518; stroke-width: 2;"></path></g></g><path class="foreground" d="" style="display: none; fill: none;"></path></g><g transform="translate(0,0)"><path class="background" d="M0,0h600v600h-600Z" style="fill: none;"></path><g><g class="mark-line role-mark layer_0_marks"><path d="M81.84515115581415,547.7817580816325L129.7214954478202,544.9547706807081L163.6903023116283,543.8426601078964L190.03855589898774,539.229667708412L211.56664660363435,544.6757584149805L229.76838794382346,549.6562735544111L245.53545346744244,551.2659846331529L259.44299089564043,541.6493751244229L271.8837070548019,549.6562735544111L283.1377037405724,552.0049844055967L293.4117977594485,554.5527672490684L302.86304807423596,556.5388517031898L311.6135390996376,556.2311164848022L319.760051346808,563.030875832316L327.3806046232566,570.2462688094089L334.53901408590764,573.2250867415519L341.28814205145454,577.0116840346474L347.67226943673194,578.8584158109616L353.728858210616,580.9237462927475L359.4898833916437,586.9464461385134L364.9828548963866,586.5484760178164L370.2316120561765,587.5459276588514L375.2569489152626,590.17943615571L380.0771117979755,589.1595850870046L384.7081992300502,593.2929298937571L389.1644863434606,594.1372494841157L393.45869025545176,594.9876499304215L397.60218885828857,595.201210529274L401.6052025026221,593.9256029669593L405.4769458791905,594.3492759328328L409.2257557790707,596.7070483413746L412.8591991883926,596.4907492829996L416.38416524172175,597.3583328452216L419.8069438428112,596.923744236871L423.1332932072687,597.1408386590123L426.3684981490661,596.2748456107305L429.5174205925461,598.6717791143342L432.58454352205615,596.4907492829996L435.5740093664302,596.7070483413746L438.4896536431022,598.451854254757L441.33503454745784,597.3583328452216L444.11345906006,598.6717791143342L446.8280060522007,597.3583328452216L449.4815467946282,597.5762285020604L452.0767632119907,598.451854254757L454.61616417395635,599.3340219466968L457.1021000710768,598.2323383701026L459.5367758876469,598.451854254757L461.92226295378964,598.0132295940182L464.2605095337278,598.6717791143342L466.5533503858643,599.1128614041646L468.80251541220474,598.451854254757L471.00963749927485,598.451854254757L473.1762596395602,599.7775897031923L475.303841411266,599.5555975496901L477.39376488455224,598.8921142414143L479.4473400141027,599.7775897031923L481.4658095707194,599.7775897031923L483.45035365843626,598.8921142414143L485.40209385826523,599.1128614041646L487.32209703500473,599.3340219466968L489.21137883946386,599.3340219466968L491.0709069348849,599.5555975496901L492.9016039732237,599.7775897031923L496.47998671766663,599.1128614041646L498.2293163975359,599.7775897031923L501.65209499862544,599.5555975496901L503.32698256589333,599.7775897031923L506.60712664950563,599.7775897031923L511.3625717483603,599.5555975496901L512.9060916843958,599.3340219466968L514.4296946778703,599.7775897031923L515.9338881876662,599.3340219466968L517.4191605222443,599.7775897031923L518.8859817912809,599.3340219466968L520.3348047989164,599.7775897031923L521.7660658828646,599.7775897031923L523.180185703272,599.5555975496901L525.9586102158742,599.5555975496901L527.3236843061088,599.7775897031923L530.0073815022038,599.5555975496901L532.6314360180594,599.3340219466968L533.9219143678048,599.7775897031923L538.9472512268909,599.7775897031923L540.1708641840045,599.7775897031923L541.381927043461,599.7775897031923L542.5806946362128,599.7775897031923L544.9423252331982,599.7775897031923L546.1056606895419,599.7775897031923L551.7563845139327,599.7775897031923L572.916058090699,599.7775897031923L594.75124284021,599.7775897031923" style="fill: none; stroke: #e45756; stroke-width: 2;"></path></g></g><path class="foreground" d="" style="display: none; fill: none;"></path></g></g><g class="mark-symbol role-mark layer_1_marks"><path transform="translate(81.84515115581415,518.1548488441858)" d="M4.47213595499958,0A4.47213595499958,4.47213595499958,0,1,1,-4.47213595499958,0A4.47213595499958,4.47213595499958,0,1,1,4.47213595499958,0" style="fill: #4c78a8; stroke-width: 2; opacity: 1;"></path><path transform="translate(129.7214954478202,484.89098274023183)" d="M4.47213595499958,0A4.47213595499958,4.47213595499958,0,1,1,-4.47213595499958,0A4.47213595499958,4.47213595499958,0,1,1,4.47213595499958,0" style="fill: #4c78a8; stroke-width: 2; opacity: 1;"></path><path transform="translate(163.6903023116283,462.6122640868728)" d="M4.47213595499958,0A4.47213595499958,4.47213595499958,0,1,1,-4.47213595499958,0A4.47213595499958,4.47213595499958,0,1,1,4.47213595499958,0" style="fill: #4c78a8; stroke-width: 2; opacity: 1;"></path><path transform="translate(190.03855589898774,446.5837906338152)" d="M4.47213595499958,0A4.47213595499958,4.47213595499958,0,1,1,-4.47213595499958,0A4.47213595499958,4.47213595499958,0,1,1,4.47213595499958,0" style="fill: #4c78a8; stroke-width: 2; opacity: 1;"></path><path transform="translate(211.56664660363435,435.65964299946603)" d="M4.47213595499958,0A4.47213595499958,4.47213595499958,0,1,1,-4.47213595499958,0A4.47213595499958,4.47213595499958,0,1,1,4.47213595499958,0" style="fill: #4c78a8; stroke-width: 2; opacity: 1;"></path><path transform="translate(229.76838794382346,421.66011726929673)" d="M4.47213595499958,0A4.47213595499958,4.47213595499958,0,1,1,-4.47213595499958,0A4.47213595499958,4.47213595499958,0,1,1,4.47213595499958,0" style="fill: #4c78a8; stroke-width: 2; opacity: 1;"></path><path transform="translate(245.53545346744244,415.4004815339433)" d="M4.47213595499958,0A4.47213595499958,4.47213595499958,0,1,1,-4.47213595499958,0A4.47213595499958,4.47213595499958,0,1,1,4.47213595499958,0" style="fill: #4c78a8; stroke-width: 2; opacity: 1;"></path><path transform="translate(259.44299089564043,410.45009064964194)" d="M4.47213595499958,0A4.47213595499958,4.47213595499958,0,1,1,-4.47213595499958,0A4.47213595499958,4.47213595499958,0,1,1,4.47213595499958,0" style="fill: #4c78a8; stroke-width: 2; opacity: 1;"></path><path transform="translate(271.8837070548019,402.41942451333813)" d="M4.47213595499958,0A4.47213595499958,4.47213595499958,0,1,1,-4.47213595499958,0A4.47213595499958,4.47213595499958,0,1,1,4.47213595499958,0" style="fill: #4c78a8; stroke-width: 2; opacity: 1;"></path><path transform="translate(283.1377037405724,386.9628780953724)" d="M4.47213595499958,0A4.47213595499958,4.47213595499958,0,1,1,-4.47213595499958,0A4.47213595499958,4.47213595499958,0,1,1,4.47213595499958,0" style="fill: #4c78a8; stroke-width: 2; opacity: 1;"></path><path transform="translate(293.4117977594485,378.43620625504064)" d="M4.47213595499958,0A4.47213595499958,4.47213595499958,0,1,1,-4.47213595499958,0A4.47213595499958,4.47213595499958,0,1,1,4.47213595499958,0" style="fill: #4c78a8; stroke-width: 2; opacity: 1;"></path><path transform="translate(302.86304807423596,381.78619249371667)" d="M4.47213595499958,0A4.47213595499958,4.47213595499958,0,1,1,-4.47213595499958,0A4.47213595499958,4.47213595499958,0,1,1,4.47213595499958,0" style="fill: #4c78a8; stroke-width: 2; opacity: 1;"></path><path transform="translate(311.6135390996376,376.11673644622545)" d="M4.47213595499958,0A4.47213595499958,4.47213595499958,0,1,1,-4.47213595499958,0A4.47213595499958,4.47213595499958,0,1,1,4.47213595499958,0" style="fill: #4c78a8; stroke-width: 2; opacity: 1;"></path><path transform="translate(319.760051346808,384.1715894334295)" d="M4.47213595499958,0A4.47213595499958,4.47213595499958,0,1,1,-4.47213595499958,0A4.47213595499958,4.47213595499958,0,1,1,4.47213595499958,0" style="fill: #4c78a8; stroke-width: 2; opacity: 1;"></path><path transform="translate(327.3806046232566,376.8502540497699)" d="M4.47213595499958,0A4.47213595499958,4.47213595499958,0,1,1,-4.47213595499958,0A4.47213595499958,4.47213595499958,0,1,1,4.47213595499958,0" style="fill: #4c78a8; stroke-width: 2; opacity: 1;"></path><path transform="translate(334.53901408590764,351.9763296074553)" d="M4.47213595499958,0A4.47213595499958,4.47213595499958,0,1,1,-4.47213595499958,0A4.47213595499958,4.47213595499958,0,1,1,4.47213595499958,0" style="fill: #4c78a8; stroke-width: 2; opacity: 1;"></path><path transform="translate(341.28814205145454,349.27209628878865)" d="M4.47213595499958,0A4.47213595499958,4.47213595499958,0,1,1,-4.47213595499958,0A4.47213595499958,4.47213595499958,0,1,1,4.47213595499958,0" style="fill: #4c78a8; stroke-width: 2; opacity: 1;"></path><path transform="translate(347.67226943673194,335.01243286801343)" d="M4.47213595499958,0A4.47213595499958,4.47213595499958,0,1,1,-4.47213595499958,0A4.47213595499958,4.47213595499958,0,1,1,4.47213595499958,0" style="fill: #4c78a8; stroke-width: 2; opacity: 1;"></path><path transform="translate(353.728858210616,337.2189108749881)" d="M4.47213595499958,0A4.47213595499958,4.47213595499958,0,1,1,-4.47213595499958,0A4.47213595499958,4.47213595499958,0,1,1,4.47213595499958,0" style="fill: #4c78a8; stroke-width: 2; opacity: 1;"></path><path transform="translate(359.4898833916437,334.7758437277238)" d="M4.47213595499958,0A4.47213595499958,4.47213595499958,0,1,1,-4.47213595499958,0A4.47213595499958,4.47213595499958,0,1,1,4.47213595499958,0" style="fill: #4c78a8; stroke-width: 2; opacity: 1;"></path><path transform="translate(364.9828548963866,346.8728243131911)" d="M4.47213595499958,0A4.47213595499958,4.47213595499958,0,1,1,-4.47213595499958,0A4.47213595499958,4.47213595499958,0,1,1,4.47213595499958,0" style="fill: #4c78a8; stroke-width: 2; opacity: 1;"></path><path transform="translate(370.2316120561765,335.5501982143496)" d="M4.47213595499958,0A4.47213595499958,4.47213595499958,0,1,1,-4.47213595499958,0A4.47213595499958,4.47213595499958,0,1,1,4.47213595499958,0" style="fill: #4c78a8; stroke-width: 2; opacity: 1;"></path><path transform="translate(375.2569489152626,300.7457128857732)" d="M4.47213595499958,0A4.47213595499958,4.47213595499958,0,1,1,-4.47213595499958,0A4.47213595499958,4.47213595499958,0,1,1,4.47213595499958,0" style="fill: #4c78a8; stroke-width: 2; opacity: 1;"></path><path transform="translate(380.0771117979755,329.74819206988417)" d="M4.47213595499958,0A4.47213595499958,4.47213595499958,0,1,1,-4.47213595499958,0A4.47213595499958,4.47213595499958,0,1,1,4.47213595499958,0" style="fill: #4c78a8; stroke-width: 2; opacity: 1;"></path><path transform="translate(384.7081992300502,296.26121966625345)" d="M4.47213595499958,0A4.47213595499958,4.47213595499958,0,1,1,-4.47213595499958,0A4.47213595499958,4.47213595499958,0,1,1,4.47213595499958,0" style="fill: #4c78a8; stroke-width: 2; opacity: 1;"></path><path transform="translate(389.1644863434606,304.4215822471315)" d="M4.47213595499958,0A4.47213595499958,4.47213595499958,0,1,1,-4.47213595499958,0A4.47213595499958,4.47213595499958,0,1,1,4.47213595499958,0" style="fill: #4c78a8; stroke-width: 2; opacity: 1;"></path><path transform="translate(393.45869025545176,289.8624496690243)" d="M4.47213595499958,0A4.47213595499958,4.47213595499958,0,1,1,-4.47213595499958,0A4.47213595499958,4.47213595499958,0,1,1,4.47213595499958,0" style="fill: #4c78a8; stroke-width: 2; opacity: 1;"></path><path transform="translate(397.60218885828857,369.46735387999917)" d="M4.47213595499958,0A4.47213595499958,4.47213595499958,0,1,1,-4.47213595499958,0A4.47213595499958,4.47213595499958,0,1,1,4.47213595499958,0" style="fill: #4c78a8; stroke-width: 2; opacity: 1;"></path><path transform="translate(401.6052025026221,272.88325391786526)" d="M4.47213595499958,0A4.47213595499958,4.47213595499958,0,1,1,-4.47213595499958,0A4.47213595499958,4.47213595499958,0,1,1,4.47213595499958,0" style="fill: #4c78a8; stroke-width: 2; opacity: 1;"></path><path transform="translate(405.4769458791905,365.1522196312112)" d="M4.47213595499958,0A4.47213595499958,4.47213595499958,0,1,1,-4.47213595499958,0A4.47213595499958,4.47213595499958,0,1,1,4.47213595499958,0" style="fill: #4c78a8; stroke-width: 2; opacity: 1;"></path><path transform="translate(409.2257557790707,323.48520551312345)" d="M4.47213595499958,0A4.47213595499958,4.47213595499958,0,1,1,-4.47213595499958,0A4.47213595499958,4.47213595499958,0,1,1,4.47213595499958,0" style="fill: #4c78a8; stroke-width: 2; opacity: 1;"></path><path transform="translate(412.8591991883926,303.5526213424012)" d="M4.47213595499958,0A4.47213595499958,4.47213595499958,0,1,1,-4.47213595499958,0A4.47213595499958,4.47213595499958,0,1,1,4.47213595499958,0" style="fill: #4c78a8; stroke-width: 2; opacity: 1;"></path><path transform="translate(416.38416524172175,268.39110374426076)" d="M4.47213595499958,0A4.47213595499958,4.47213595499958,0,1,1,-4.47213595499958,0A4.47213595499958,4.47213595499958,0,1,1,4.47213595499958,0" style="fill: #4c78a8; stroke-width: 2; opacity: 1;"></path><path transform="translate(419.8069438428112,301.76803935783863)" d="M4.47213595499958,0A4.47213595499958,4.47213595499958,0,1,1,-4.47213595499958,0A4.47213595499958,4.47213595499958,0,1,1,4.47213595499958,0" style="fill: #4c78a8; stroke-width: 2; opacity: 1;"></path><path transform="translate(423.1332932072687,287.7394594133834)" d="M4.47213595499958,0A4.47213595499958,4.47213595499958,0,1,1,-4.47213595499958,0A4.47213595499958,4.47213595499958,0,1,1,4.47213595499958,0" style="fill: #4c78a8; stroke-width: 2; opacity: 1;"></path><path transform="translate(426.3684981490661,250.15445694354946)" d="M4.47213595499958,0A4.47213595499958,4.47213595499958,0,1,1,-4.47213595499958,0A4.47213595499958,4.47213595499958,0,1,1,4.47213595499958,0" style="fill: #4c78a8; stroke-width: 2; opacity: 1;"></path><path transform="translate(429.5174205925461,236.81989510775327)" d="M4.47213595499958,0A4.47213595499958,4.47213595499958,0,1,1,-4.47213595499958,0A4.47213595499958,4.47213595499958,0,1,1,4.47213595499958,0" style="fill: #4c78a8; stroke-width: 2; opacity: 1;"></path><path transform="translate(432.58454352205615,256.67949118792365)" d="M4.47213595499958,0A4.47213595499958,4.47213595499958,0,1,1,-4.47213595499958,0A4.47213595499958,4.47213595499958,0,1,1,4.47213595499958,0" style="fill: #4c78a8; stroke-width: 2; opacity: 1;"></path><path transform="translate(435.5740093664302,241.64005435730928)" d="M4.47213595499958,0A4.47213595499958,4.47213595499958,0,1,1,-4.47213595499958,0A4.47213595499958,4.47213595499958,0,1,1,4.47213595499958,0" style="fill: #4c78a8; stroke-width: 2; opacity: 1;"></path><path transform="translate(438.4896536431022,288.3864609003624)" d="M4.47213595499958,0A4.47213595499958,4.47213595499958,0,1,1,-4.47213595499958,0A4.47213595499958,4.47213595499958,0,1,1,4.47213595499958,0" style="fill: #4c78a8; stroke-width: 2; opacity: 1;"></path><path transform="translate(441.33503454745784,269.58381208107863)" d="M4.47213595499958,0A4.47213595499958,4.47213595499958,0,1,1,-4.47213595499958,0A4.47213595499958,4.47213595499958,0,1,1,4.47213595499958,0" style="fill: #4c78a8; stroke-width: 2; opacity: 1;"></path><path transform="translate(444.11345906006,324.24455337758434)" d="M4.47213595499958,0A4.47213595499958,4.47213595499958,0,1,1,-4.47213595499958,0A4.47213595499958,4.47213595499958,0,1,1,4.47213595499958,0" style="fill: #4c78a8; stroke-width: 2; opacity: 1;"></path><path transform="translate(446.8280060522007,282.8934867120379)" d="M4.47213595499958,0A4.47213595499958,4.47213595499958,0,1,1,-4.47213595499958,0A4.47213595499958,4.47213595499958,0,1,1,4.47213595499958,0" style="fill: #4c78a8; stroke-width: 2; opacity: 1;"></path><path transform="translate(449.4815467946282,354.46454653255756)" d="M4.47213595499958,0A4.47213595499958,4.47213595499958,0,1,1,-4.47213595499958,0A4.47213595499958,4.47213595499958,0,1,1,4.47213595499958,0" style="fill: #4c78a8; stroke-width: 2; opacity: 1;"></path><path transform="translate(452.0767632119907,226.15717446169887)" d="M4.47213595499958,0A4.47213595499958,4.47213595499958,0,1,1,-4.47213595499958,0A4.47213595499958,4.47213595499958,0,1,1,4.47213595499958,0" style="fill: #4c78a8; stroke-width: 2; opacity: 1;"></path><path transform="translate(454.61616417395635,265.46098591409236)" d="M4.47213595499958,0A4.47213595499958,4.47213595499958,0,1,1,-4.47213595499958,0A4.47213595499958,4.47213595499958,0,1,1,4.47213595499958,0" style="fill: #4c78a8; stroke-width: 2; opacity: 1;"></path><path transform="translate(457.1021000710768,422.4021602601737)" d="M4.47213595499958,0A4.47213595499958,4.47213595499958,0,1,1,-4.47213595499958,0A4.47213595499958,4.47213595499958,0,1,1,4.47213595499958,0" style="fill: #4c78a8; stroke-width: 2; opacity: 1;"></path><path transform="translate(459.5367758876469,253.2188855492753)" d="M4.47213595499958,0A4.47213595499958,4.47213595499958,0,1,1,-4.47213595499958,0A4.47213595499958,4.47213595499958,0,1,1,4.47213595499958,0" style="fill: #4c78a8; stroke-width: 2; opacity: 1;"></path><path transform="translate(461.92226295378964,357.7908970777911)" d="M4.47213595499958,0A4.47213595499958,4.47213595499958,0,1,1,-4.47213595499958,0A4.47213595499958,4.47213595499958,0,1,1,4.47213595499958,0" style="fill: #4c78a8; stroke-width: 2; opacity: 1;"></path><path transform="translate(464.2605095337278,253.36806433532186)" d="M4.47213595499958,0A4.47213595499958,4.47213595499958,0,1,1,-4.47213595499958,0A4.47213595499958,4.47213595499958,0,1,1,4.47213595499958,0" style="fill: #4c78a8; stroke-width: 2; opacity: 1;"></path><path transform="translate(466.5533503858643,257.08317566212264)" d="M4.47213595499958,0A4.47213595499958,4.47213595499958,0,1,1,-4.47213595499958,0A4.47213595499958,4.47213595499958,0,1,1,4.47213595499958,0" style="fill: #4c78a8; stroke-width: 2; opacity: 1;"></path><path transform="translate(468.80251541220474,192.36632792083094)" d="M4.47213595499958,0A4.47213595499958,4.47213595499958,0,1,1,-4.47213595499958,0A4.47213595499958,4.47213595499958,0,1,1,4.47213595499958,0" style="fill: #4c78a8; stroke-width: 2; opacity: 1;"></path><path transform="translate(471.00963749927485,185.113662846301)" d="M4.47213595499958,0A4.47213595499958,4.47213595499958,0,1,1,-4.47213595499958,0A4.47213595499958,4.47213595499958,0,1,1,4.47213595499958,0" style="fill: #4c78a8; stroke-width: 2; opacity: 1;"></path><path transform="translate(473.1762596395602,518.1548488441858)" d="M4.47213595499958,0A4.47213595499958,4.47213595499958,0,1,1,-4.47213595499958,0A4.47213595499958,4.47213595499958,0,1,1,4.47213595499958,0" style="fill: #4c78a8; stroke-width: 2; opacity: 1;"></path><path transform="translate(475.303841411266,518.1548488441858)" d="M4.47213595499958,0A4.47213595499958,4.47213595499958,0,1,1,-4.47213595499958,0A4.47213595499958,4.47213595499958,0,1,1,4.47213595499958,0" style="fill: #4c78a8; stroke-width: 2; opacity: 1;"></path><path transform="translate(477.39376488455224,185.01321903990166)" d="M4.47213595499958,0A4.47213595499958,4.47213595499958,0,1,1,-4.47213595499958,0A4.47213595499958,4.47213595499958,0,1,1,4.47213595499958,0" style="fill: #4c78a8; stroke-width: 2; opacity: 1;"></path><path transform="translate(479.4473400141027,120.55265998589732)" d="M4.47213595499958,0A4.47213595499958,4.47213595499958,0,1,1,-4.47213595499958,0A4.47213595499958,4.47213595499958,0,1,1,4.47213595499958,0" style="fill: #4c78a8; stroke-width: 2; opacity: 1;"></path><path transform="translate(481.4658095707194,328.11629294519804)" d="M4.47213595499958,0A4.47213595499958,4.47213595499958,0,1,1,-4.47213595499958,0A4.47213595499958,4.47213595499958,0,1,1,4.47213595499958,0" style="fill: #4c78a8; stroke-width: 2; opacity: 1;"></path><path transform="translate(483.45035365843626,242.78090954824623)" d="M4.47213595499958,0A4.47213595499958,4.47213595499958,0,1,1,-4.47213595499958,0A4.47213595499958,4.47213595499958,0,1,1,4.47213595499958,0" style="fill: #4c78a8; stroke-width: 2; opacity: 1;"></path><path transform="translate(485.40209385826523,301.76803935783863)" d="M4.47213595499958,0A4.47213595499958,4.47213595499958,0,1,1,-4.47213595499958,0A4.47213595499958,4.47213595499958,0,1,1,4.47213595499958,0" style="fill: #4c78a8; stroke-width: 2; opacity: 1;"></path><path transform="translate(487.32209703500473,119.87599840493768)" d="M4.47213595499958,0A4.47213595499958,4.47213595499958,0,1,1,-4.47213595499958,0A4.47213595499958,4.47213595499958,0,1,1,4.47213595499958,0" style="fill: #4c78a8; stroke-width: 2; opacity: 1;"></path><path transform="translate(489.21137883946386,248.25568987973122)" d="M4.47213595499958,0A4.47213595499958,4.47213595499958,0,1,1,-4.47213595499958,0A4.47213595499958,4.47213595499958,0,1,1,4.47213595499958,0" style="fill: #4c78a8; stroke-width: 2; opacity: 1;"></path><path transform="translate(491.0709069348849,187.1408008116074)" d="M4.47213595499958,0A4.47213595499958,4.47213595499958,0,1,1,-4.47213595499958,0A4.47213595499958,4.47213595499958,0,1,1,4.47213595499958,0" style="fill: #4c78a8; stroke-width: 2; opacity: 1;"></path><path transform="translate(492.9016039732237,235.0171451036134)" d="M4.47213595499958,0A4.47213595499958,4.47213595499958,0,1,1,-4.47213595499958,0A4.47213595499958,4.47213595499958,0,1,1,4.47213595499958,0" style="fill: #4c78a8; stroke-width: 2; opacity: 1;"></path><path transform="translate(496.47998671766663,181.8920436518174)" d="M4.47213595499958,0A4.47213595499958,4.47213595499958,0,1,1,-4.47213595499958,0A4.47213595499958,4.47213595499958,0,1,1,4.47213595499958,0" style="fill: #4c78a8; stroke-width: 2; opacity: 1;"></path><path transform="translate(498.2293163975359,101.77068360246409)" d="M4.47213595499958,0A4.47213595499958,4.47213595499958,0,1,1,-4.47213595499958,0A4.47213595499958,4.47213595499958,0,1,1,4.47213595499958,0" style="fill: #4c78a8; stroke-width: 2; opacity: 1;"></path><path transform="translate(501.65209499862544,173.6315018509339)" d="M4.47213595499958,0A4.47213595499958,4.47213595499958,0,1,1,-4.47213595499958,0A4.47213595499958,4.47213595499958,0,1,1,4.47213595499958,0" style="fill: #4c78a8; stroke-width: 2; opacity: 1;"></path><path transform="translate(503.32698256589333,96.67301743410665)" d="M4.47213595499958,0A4.47213595499958,4.47213595499958,0,1,1,-4.47213595499958,0A4.47213595499958,4.47213595499958,0,1,1,4.47213595499958,0" style="fill: #4c78a8; stroke-width: 2; opacity: 1;"></path><path transform="translate(506.60712664950563,518.1548488441858)" d="M4.47213595499958,0A4.47213595499958,4.47213595499958,0,1,1,-4.47213595499958,0A4.47213595499958,4.47213595499958,0,1,1,4.47213595499958,0" style="fill: #4c78a8; stroke-width: 2; opacity: 1;"></path><path transform="translate(511.3625717483603,328.11629294519804)" d="M4.47213595499958,0A4.47213595499958,4.47213595499958,0,1,1,-4.47213595499958,0A4.47213595499958,4.47213595499958,0,1,1,4.47213595499958,0" style="fill: #4c78a8; stroke-width: 2; opacity: 1;"></path><path transform="translate(512.9060916843958,167.41545647794382)" d="M4.47213595499958,0A4.47213595499958,4.47213595499958,0,1,1,-4.47213595499958,0A4.47213595499958,4.47213595499958,0,1,1,4.47213595499958,0" style="fill: #4c78a8; stroke-width: 2; opacity: 1;"></path><path transform="translate(514.4296946778703,518.1548488441858)" d="M4.47213595499958,0A4.47213595499958,4.47213595499958,0,1,1,-4.47213595499958,0A4.47213595499958,4.47213595499958,0,1,1,4.47213595499958,0" style="fill: #4c78a8; stroke-width: 2; opacity: 1;"></path><path transform="translate(515.9338881876662,123.9954020940842)" d="M4.47213595499958,0A4.47213595499958,4.47213595499958,0,1,1,-4.47213595499958,0A4.47213595499958,4.47213595499958,0,1,1,4.47213595499958,0" style="fill: #4c78a8; stroke-width: 2; opacity: 1;"></path><path transform="translate(517.4191605222443,173.6315018509339)" d="M4.47213595499958,0A4.47213595499958,4.47213595499958,0,1,1,-4.47213595499958,0A4.47213595499958,4.47213595499958,0,1,1,4.47213595499958,0" style="fill: #4c78a8; stroke-width: 2; opacity: 1;"></path><path transform="translate(518.8859817912809,198.3947974973779)" d="M4.47213595499958,0A4.47213595499958,4.47213595499958,0,1,1,-4.47213595499958,0A4.47213595499958,4.47213595499958,0,1,1,4.47213595499958,0" style="fill: #4c78a8; stroke-width: 2; opacity: 1;"></path><path transform="translate(520.3348047989164,518.1548488441858)" d="M4.47213595499958,0A4.47213595499958,4.47213595499958,0,1,1,-4.47213595499958,0A4.47213595499958,4.47213595499958,0,1,1,4.47213595499958,0" style="fill: #4c78a8; stroke-width: 2; opacity: 1;"></path><path transform="translate(521.7660658828646,518.1548488441858)" d="M4.47213595499958,0A4.47213595499958,4.47213595499958,0,1,1,-4.47213595499958,0A4.47213595499958,4.47213595499958,0,1,1,4.47213595499958,0" style="fill: #4c78a8; stroke-width: 2; opacity: 1;"></path><path transform="translate(523.180185703272,518.1548488441858)" d="M4.47213595499958,0A4.47213595499958,4.47213595499958,0,1,1,-4.47213595499958,0A4.47213595499958,4.47213595499958,0,1,1,4.47213595499958,0" style="fill: #4c78a8; stroke-width: 2; opacity: 1;"></path><path transform="translate(525.9586102158742,158.6649654525422)" d="M4.47213595499958,0A4.47213595499958,4.47213595499958,0,1,1,-4.47213595499958,0A4.47213595499958,4.47213595499958,0,1,1,4.47213595499958,0" style="fill: #4c78a8; stroke-width: 2; opacity: 1;"></path><path transform="translate(527.3236843061088,72.6763156938912)" d="M4.47213595499958,0A4.47213595499958,4.47213595499958,0,1,1,-4.47213595499958,0A4.47213595499958,4.47213595499958,0,1,1,4.47213595499958,0" style="fill: #4c78a8; stroke-width: 2; opacity: 1;"></path><path transform="translate(530.0073815022038,69.99261849779622)" d="M4.47213595499958,0A4.47213595499958,4.47213595499958,0,1,1,-4.47213595499958,0A4.47213595499958,4.47213595499958,0,1,1,4.47213595499958,0" style="fill: #4c78a8; stroke-width: 2; opacity: 1;"></path><path transform="translate(532.6314360180594,518.1548488441858)" d="M4.47213595499958,0A4.47213595499958,4.47213595499958,0,1,1,-4.47213595499958,0A4.47213595499958,4.47213595499958,0,1,1,4.47213595499958,0" style="fill: #4c78a8; stroke-width: 2; opacity: 1;"></path><path transform="translate(533.9219143678048,518.1548488441858)" d="M4.47213595499958,0A4.47213595499958,4.47213595499958,0,1,1,-4.47213595499958,0A4.47213595499958,4.47213595499958,0,1,1,4.47213595499958,0" style="fill: #4c78a8; stroke-width: 2; opacity: 1;"></path><path transform="translate(538.9472512268909,470.2785045521798)" d="M4.47213595499958,0A4.47213595499958,4.47213595499958,0,1,1,-4.47213595499958,0A4.47213595499958,4.47213595499958,0,1,1,4.47213595499958,0" style="fill: #4c78a8; stroke-width: 2; opacity: 1;"></path><path transform="translate(540.1708641840045,518.1548488441858)" d="M4.47213595499958,0A4.47213595499958,4.47213595499958,0,1,1,-4.47213595499958,0A4.47213595499958,4.47213595499958,0,1,1,4.47213595499958,0" style="fill: #4c78a8; stroke-width: 2; opacity: 1;"></path><path transform="translate(541.381927043461,518.1548488441858)" d="M4.47213595499958,0A4.47213595499958,4.47213595499958,0,1,1,-4.47213595499958,0A4.47213595499958,4.47213595499958,0,1,1,4.47213595499958,0" style="fill: #4c78a8; stroke-width: 2; opacity: 1;"></path><path transform="translate(542.5806946362128,229.76838794382346)" d="M4.47213595499958,0A4.47213595499958,4.47213595499958,0,1,1,-4.47213595499958,0A4.47213595499958,4.47213595499958,0,1,1,4.47213595499958,0" style="fill: #4c78a8; stroke-width: 2; opacity: 1;"></path><path transform="translate(544.9423252331982,518.1548488441858)" d="M4.47213595499958,0A4.47213595499958,4.47213595499958,0,1,1,-4.47213595499958,0A4.47213595499958,4.47213595499958,0,1,1,4.47213595499958,0" style="fill: #4c78a8; stroke-width: 2; opacity: 1;"></path><path transform="translate(546.1056606895419,470.2785045521798)" d="M4.47213595499958,0A4.47213595499958,4.47213595499958,0,1,1,-4.47213595499958,0A4.47213595499958,4.47213595499958,0,1,1,4.47213595499958,0" style="fill: #4c78a8; stroke-width: 2; opacity: 1;"></path><path transform="translate(551.7563845139327,48.243615486067284)" d="M4.47213595499958,0A4.47213595499958,4.47213595499958,0,1,1,-4.47213595499958,0A4.47213595499958,4.47213595499958,0,1,1,4.47213595499958,0" style="fill: #4c78a8; stroke-width: 2; opacity: 1;"></path><path transform="translate(572.916058090699,27.08394190930099)" d="M4.47213595499958,0A4.47213595499958,4.47213595499958,0,1,1,-4.47213595499958,0A4.47213595499958,4.47213595499958,0,1,1,4.47213595499958,0" style="fill: #4c78a8; stroke-width: 2; opacity: 1;"></path><path transform="translate(594.75124284021,5.248757159789941)" d="M4.47213595499958,0A4.47213595499958,4.47213595499958,0,1,1,-4.47213595499958,0A4.47213595499958,4.47213595499958,0,1,1,4.47213595499958,0" style="fill: #4c78a8; stroke-width: 2; opacity: 1;"></path><path transform="translate(81.84515115581415,518.1548488441858)" d="M-4.47213595499958,-4.47213595499958h8.94427190999916v8.94427190999916h-8.94427190999916Z" style="fill: #f58518; stroke-width: 2; opacity: 1;"></path><path transform="translate(129.7214954478202,470.2785045521798)" d="M-4.47213595499958,-4.47213595499958h8.94427190999916v8.94427190999916h-8.94427190999916Z" style="fill: #f58518; stroke-width: 2; opacity: 1;"></path><path transform="translate(163.6903023116283,436.3096976883717)" d="M-4.47213595499958,-4.47213595499958h8.94427190999916v8.94427190999916h-8.94427190999916Z" style="fill: #f58518; stroke-width: 2; opacity: 1;"></path><path transform="translate(190.03855589898774,409.96144410101226)" d="M-4.47213595499958,-4.47213595499958h8.94427190999916v8.94427190999916h-8.94427190999916Z" style="fill: #f58518; stroke-width: 2; opacity: 1;"></path><path transform="translate(211.56664660363435,388.43335339636565)" d="M-4.47213595499958,-4.47213595499958h8.94427190999916v8.94427190999916h-8.94427190999916Z" style="fill: #f58518; stroke-width: 2; opacity: 1;"></path><path transform="translate(229.76838794382346,370.2316120561765)" d="M-4.47213595499958,-4.47213595499958h8.94427190999916v8.94427190999916h-8.94427190999916Z" style="fill: #f58518; stroke-width: 2; opacity: 1;"></path><path transform="translate(245.53545346744244,354.46454653255756)" d="M-4.47213595499958,-4.47213595499958h8.94427190999916v8.94427190999916h-8.94427190999916Z" style="fill: #f58518; stroke-width: 2; opacity: 1;"></path><path transform="translate(259.44299089564043,340.55700910435957)" d="M-4.47213595499958,-4.47213595499958h8.94427190999916v8.94427190999916h-8.94427190999916Z" style="fill: #f58518; stroke-width: 2; opacity: 1;"></path><path transform="translate(271.8837070548019,328.11629294519804)" d="M-4.47213595499958,-4.47213595499958h8.94427190999916v8.94427190999916h-8.94427190999916Z" style="fill: #f58518; stroke-width: 2; opacity: 1;"></path><path transform="translate(283.1377037405724,316.8622962594275)" d="M-4.47213595499958,-4.47213595499958h8.94427190999916v8.94427190999916h-8.94427190999916Z" style="fill: #f58518; stroke-width: 2; opacity: 1;"></path><path transform="translate(293.4117977594485,306.5882022405515)" d="M-4.47213595499958,-4.47213595499958h8.94427190999916v8.94427190999916h-8.94427190999916Z" style="fill: #f58518; stroke-width: 2; opacity: 1;"></path><path transform="translate(302.86304807423596,297.13695192576404)" d="M-4.47213595499958,-4.47213595499958h8.94427190999916v8.94427190999916h-8.94427190999916Z" style="fill: #f58518; stroke-width: 2; opacity: 1;"></path><path transform="translate(311.6135390996376,288.3864609003624)" d="M-4.47213595499958,-4.47213595499958h8.94427190999916v8.94427190999916h-8.94427190999916Z" style="fill: #f58518; stroke-width: 2; opacity: 1;"></path><path transform="translate(319.760051346808,280.239948653192)" d="M-4.47213595499958,-4.47213595499958h8.94427190999916v8.94427190999916h-8.94427190999916Z" style="fill: #f58518; stroke-width: 2; opacity: 1;"></path><path transform="translate(327.3806046232566,272.6193953767434)" d="M-4.47213595499958,-4.47213595499958h8.94427190999916v8.94427190999916h-8.94427190999916Z" style="fill: #f58518; stroke-width: 2; opacity: 1;"></path><path transform="translate(334.53901408590764,265.46098591409236)" d="M-4.47213595499958,-4.47213595499958h8.94427190999916v8.94427190999916h-8.94427190999916Z" style="fill: #f58518; stroke-width: 2; opacity: 1;"></path><path transform="translate(341.28814205145454,258.71185794854546)" d="M-4.47213595499958,-4.47213595499958h8.94427190999916v8.94427190999916h-8.94427190999916Z" style="fill: #f58518; stroke-width: 2; opacity: 1;"></path><path transform="translate(347.67226943673194,252.32773056326806)" d="M-4.47213595499958,-4.47213595499958h8.94427190999916v8.94427190999916h-8.94427190999916Z" style="fill: #f58518; stroke-width: 2; opacity: 1;"></path><path transform="translate(353.728858210616,246.27114178938396)" d="M-4.47213595499958,-4.47213595499958h8.94427190999916v8.94427190999916h-8.94427190999916Z" style="fill: #f58518; stroke-width: 2; opacity: 1;"></path><path transform="translate(359.4898833916437,240.51011660835633)" d="M-4.47213595499958,-4.47213595499958h8.94427190999916v8.94427190999916h-8.94427190999916Z" style="fill: #f58518; stroke-width: 2; opacity: 1;"></path><path transform="translate(364.9828548963866,235.0171451036134)" d="M-4.47213595499958,-4.47213595499958h8.94427190999916v8.94427190999916h-8.94427190999916Z" style="fill: #f58518; stroke-width: 2; opacity: 1;"></path><path transform="translate(370.2316120561765,229.76838794382346)" d="M-4.47213595499958,-4.47213595499958h8.94427190999916v8.94427190999916h-8.94427190999916Z" style="fill: #f58518; stroke-width: 2; opacity: 1;"></path><path transform="translate(375.2569489152626,224.74305108473735)" d="M-4.47213595499958,-4.47213595499958h8.94427190999916v8.94427190999916h-8.94427190999916Z" style="fill: #f58518; stroke-width: 2; opacity: 1;"></path><path transform="translate(380.0771117979755,219.9228882020245)" d="M-4.47213595499958,-4.47213595499958h8.94427190999916v8.94427190999916h-8.94427190999916Z" style="fill: #f58518; stroke-width: 2; opacity: 1;"></path><path transform="translate(384.7081992300502,215.29180076994982)" d="M-4.47213595499958,-4.47213595499958h8.94427190999916v8.94427190999916h-8.94427190999916Z" style="fill: #f58518; stroke-width: 2; opacity: 1;"></path><path transform="translate(389.1644863434606,210.83551365653938)" d="M-4.47213595499958,-4.47213595499958h8.94427190999916v8.94427190999916h-8.94427190999916Z" style="fill: #f58518; stroke-width: 2; opacity: 1;"></path><path transform="translate(393.45869025545176,206.54130974454824)" d="M-4.47213595499958,-4.47213595499958h8.94427190999916v8.94427190999916h-8.94427190999916Z" style="fill: #f58518; stroke-width: 2; opacity: 1;"></path><path transform="translate(397.60218885828857,202.3978111417114)" d="M-4.47213595499958,-4.47213595499958h8.94427190999916v8.94427190999916h-8.94427190999916Z" style="fill: #f58518; stroke-width: 2; opacity: 1;"></path><path transform="translate(401.6052025026221,198.3947974973779)" d="M-4.47213595499958,-4.47213595499958h8.94427190999916v8.94427190999916h-8.94427190999916Z" style="fill: #f58518; stroke-width: 2; opacity: 1;"></path><path transform="translate(405.4769458791905,194.5230541208095)" d="M-4.47213595499958,-4.47213595499958h8.94427190999916v8.94427190999916h-8.94427190999916Z" style="fill: #f58518; stroke-width: 2; opacity: 1;"></path><path transform="translate(409.2257557790707,190.7742442209293)" d="M-4.47213595499958,-4.47213595499958h8.94427190999916v8.94427190999916h-8.94427190999916Z" style="fill: #f58518; stroke-width: 2; opacity: 1;"></path><path transform="translate(412.8591991883926,187.1408008116074)" d="M-4.47213595499958,-4.47213595499958h8.94427190999916v8.94427190999916h-8.94427190999916Z" style="fill: #f58518; stroke-width: 2; opacity: 1;"></path><path transform="translate(416.38416524172175,183.61583475827823)" d="M-4.47213595499958,-4.47213595499958h8.94427190999916v8.94427190999916h-8.94427190999916Z" style="fill: #f58518; stroke-width: 2; opacity: 1;"></path><path transform="translate(419.8069438428112,180.19305615718878)" d="M-4.47213595499958,-4.47213595499958h8.94427190999916v8.94427190999916h-8.94427190999916Z" style="fill: #f58518; stroke-width: 2; opacity: 1;"></path><path transform="translate(423.1332932072687,176.8667067927313)" d="M-4.47213595499958,-4.47213595499958h8.94427190999916v8.94427190999916h-8.94427190999916Z" style="fill: #f58518; stroke-width: 2; opacity: 1;"></path><path transform="translate(426.3684981490661,173.6315018509339)" d="M-4.47213595499958,-4.47213595499958h8.94427190999916v8.94427190999916h-8.94427190999916Z" style="fill: #f58518; stroke-width: 2; opacity: 1;"></path><path transform="translate(429.5174205925461,170.4825794074539)" d="M-4.47213595499958,-4.47213595499958h8.94427190999916v8.94427190999916h-8.94427190999916Z" style="fill: #f58518; stroke-width: 2; opacity: 1;"></path><path transform="translate(432.58454352205615,167.41545647794382)" d="M-4.47213595499958,-4.47213595499958h8.94427190999916v8.94427190999916h-8.94427190999916Z" style="fill: #f58518; stroke-width: 2; opacity: 1;"></path><path transform="translate(435.5740093664302,164.42599063356982)" d="M-4.47213595499958,-4.47213595499958h8.94427190999916v8.94427190999916h-8.94427190999916Z" style="fill: #f58518; stroke-width: 2; opacity: 1;"></path><path transform="translate(438.4896536431022,167.41545647794382)" d="M-4.47213595499958,-4.47213595499958h8.94427190999916v8.94427190999916h-8.94427190999916Z" style="fill: #f58518; stroke-width: 2; opacity: 1;"></path><path transform="translate(441.33503454745784,158.6649654525422)" d="M-4.47213595499958,-4.47213595499958h8.94427190999916v8.94427190999916h-8.94427190999916Z" style="fill: #f58518; stroke-width: 2; opacity: 1;"></path><path transform="translate(444.11345906006,155.88654093994003)" d="M-4.47213595499958,-4.47213595499958h8.94427190999916v8.94427190999916h-8.94427190999916Z" style="fill: #f58518; stroke-width: 2; opacity: 1;"></path><path transform="translate(446.8280060522007,153.17199394779934)" d="M-4.47213595499958,-4.47213595499958h8.94427190999916v8.94427190999916h-8.94427190999916Z" style="fill: #f58518; stroke-width: 2; opacity: 1;"></path><path transform="translate(449.4815467946282,150.51845320537183)" d="M-4.47213595499958,-4.47213595499958h8.94427190999916v8.94427190999916h-8.94427190999916Z" style="fill: #f58518; stroke-width: 2; opacity: 1;"></path><path transform="translate(452.0767632119907,147.92323678800932)" d="M-4.47213595499958,-4.47213595499958h8.94427190999916v8.94427190999916h-8.94427190999916Z" style="fill: #f58518; stroke-width: 2; opacity: 1;"></path><path transform="translate(454.61616417395635,145.38383582604365)" d="M-4.47213595499958,-4.47213595499958h8.94427190999916v8.94427190999916h-8.94427190999916Z" style="fill: #f58518; stroke-width: 2; opacity: 1;"></path><path transform="translate(457.1021000710768,297.13695192576404)" d="M-4.47213595499958,-4.47213595499958h8.94427190999916v8.94427190999916h-8.94427190999916Z" style="fill: #f58518; stroke-width: 2; opacity: 1;"></path><path transform="translate(459.5367758876469,140.4632241123531)" d="M-4.47213595499958,-4.47213595499958h8.94427190999916v8.94427190999916h-8.94427190999916Z" style="fill: #f58518; stroke-width: 2; opacity: 1;"></path><path transform="translate(461.92226295378964,147.92323678800932)" d="M-4.47213595499958,-4.47213595499958h8.94427190999916v8.94427190999916h-8.94427190999916Z" style="fill: #f58518; stroke-width: 2; opacity: 1;"></path><path transform="translate(464.2605095337278,135.73949046627217)" d="M-4.47213595499958,-4.47213595499958h8.94427190999916v8.94427190999916h-8.94427190999916Z" style="fill: #f58518; stroke-width: 2; opacity: 1;"></path><path transform="translate(466.5533503858643,133.44664961413568)" d="M-4.47213595499958,-4.47213595499958h8.94427190999916v8.94427190999916h-8.94427190999916Z" style="fill: #f58518; stroke-width: 2; opacity: 1;"></path><path transform="translate(468.80251541220474,131.1974845877953)" d="M-4.47213595499958,-4.47213595499958h8.94427190999916v8.94427190999916h-8.94427190999916Z" style="fill: #f58518; stroke-width: 2; opacity: 1;"></path><path transform="translate(471.00963749927485,128.99036250072515)" d="M-4.47213595499958,-4.47213595499958h8.94427190999916v8.94427190999916h-8.94427190999916Z" style="fill: #f58518; stroke-width: 2; opacity: 1;"></path><path transform="translate(473.1762596395602,518.1548488441858)" d="M-4.47213595499958,-4.47213595499958h8.94427190999916v8.94427190999916h-8.94427190999916Z" style="fill: #f58518; stroke-width: 2; opacity: 1;"></path><path transform="translate(475.303841411266,518.1548488441858)" d="M-4.47213595499958,-4.47213595499958h8.94427190999916v8.94427190999916h-8.94427190999916Z" style="fill: #f58518; stroke-width: 2; opacity: 1;"></path><path transform="translate(477.39376488455224,122.60623511544777)" d="M-4.47213595499958,-4.47213595499958h8.94427190999916v8.94427190999916h-8.94427190999916Z" style="fill: #f58518; stroke-width: 2; opacity: 1;"></path><path transform="translate(479.4473400141027,120.55265998589732)" d="M-4.47213595499958,-4.47213595499958h8.94427190999916v8.94427190999916h-8.94427190999916Z" style="fill: #f58518; stroke-width: 2; opacity: 1;"></path><path transform="translate(481.4658095707194,328.11629294519804)" d="M-4.47213595499958,-4.47213595499958h8.94427190999916v8.94427190999916h-8.94427190999916Z" style="fill: #f58518; stroke-width: 2; opacity: 1;"></path><path transform="translate(483.45035365843626,116.54964634156374)" d="M-4.47213595499958,-4.47213595499958h8.94427190999916v8.94427190999916h-8.94427190999916Z" style="fill: #f58518; stroke-width: 2; opacity: 1;"></path><path transform="translate(485.40209385826523,167.41545647794382)" d="M-4.47213595499958,-4.47213595499958h8.94427190999916v8.94427190999916h-8.94427190999916Z" style="fill: #f58518; stroke-width: 2; opacity: 1;"></path><path transform="translate(487.32209703500473,112.67790296499527)" d="M-4.47213595499958,-4.47213595499958h8.94427190999916v8.94427190999916h-8.94427190999916Z" style="fill: #f58518; stroke-width: 2; opacity: 1;"></path><path transform="translate(489.21137883946386,153.17199394779934)" d="M-4.47213595499958,-4.47213595499958h8.94427190999916v8.94427190999916h-8.94427190999916Z" style="fill: #f58518; stroke-width: 2; opacity: 1;"></path><path transform="translate(491.0709069348849,108.92909306511514)" d="M-4.47213595499958,-4.47213595499958h8.94427190999916v8.94427190999916h-8.94427190999916Z" style="fill: #f58518; stroke-width: 2; opacity: 1;"></path><path transform="translate(492.9016039732237,235.0171451036134)" d="M-4.47213595499958,-4.47213595499958h8.94427190999916v8.94427190999916h-8.94427190999916Z" style="fill: #f58518; stroke-width: 2; opacity: 1;"></path><path transform="translate(496.47998671766663,103.52001328233335)" d="M-4.47213595499958,-4.47213595499958h8.94427190999916v8.94427190999916h-8.94427190999916Z" style="fill: #f58518; stroke-width: 2; opacity: 1;"></path><path transform="translate(498.2293163975359,101.77068360246409)" d="M-4.47213595499958,-4.47213595499958h8.94427190999916v8.94427190999916h-8.94427190999916Z" style="fill: #f58518; stroke-width: 2; opacity: 1;"></path><path transform="translate(501.65209499862544,98.34790500137458)" d="M-4.47213595499958,-4.47213595499958h8.94427190999916v8.94427190999916h-8.94427190999916Z" style="fill: #f58518; stroke-width: 2; opacity: 1;"></path><path transform="translate(503.32698256589333,96.67301743410665)" d="M-4.47213595499958,-4.47213595499958h8.94427190999916v8.94427190999916h-8.94427190999916Z" style="fill: #f58518; stroke-width: 2; opacity: 1;"></path><path transform="translate(506.60712664950563,518.1548488441858)" d="M-4.47213595499958,-4.47213595499958h8.94427190999916v8.94427190999916h-8.94427190999916Z" style="fill: #f58518; stroke-width: 2; opacity: 1;"></path><path transform="translate(511.3625717483603,258.71185794854546)" d="M-4.47213595499958,-4.47213595499958h8.94427190999916v8.94427190999916h-8.94427190999916Z" style="fill: #f58518; stroke-width: 2; opacity: 1;"></path><path transform="translate(512.9060916843958,87.09390831560415)" d="M-4.47213595499958,-4.47213595499958h8.94427190999916v8.94427190999916h-8.94427190999916Z" style="fill: #f58518; stroke-width: 2; opacity: 1;"></path><path transform="translate(514.4296946778703,518.1548488441858)" d="M-4.47213595499958,-4.47213595499958h8.94427190999916v8.94427190999916h-8.94427190999916Z" style="fill: #f58518; stroke-width: 2; opacity: 1;"></path><path transform="translate(515.9338881876662,84.06611181233383)" d="M-4.47213595499958,-4.47213595499958h8.94427190999916v8.94427190999916h-8.94427190999916Z" style="fill: #f58518; stroke-width: 2; opacity: 1;"></path><path transform="translate(517.4191605222443,173.6315018509339)" d="M-4.47213595499958,-4.47213595499958h8.94427190999916v8.94427190999916h-8.94427190999916Z" style="fill: #f58518; stroke-width: 2; opacity: 1;"></path><path transform="translate(518.8859817912809,81.11401820871909)" d="M-4.47213595499958,-4.47213595499958h8.94427190999916v8.94427190999916h-8.94427190999916Z" style="fill: #f58518; stroke-width: 2; opacity: 1;"></path><path transform="translate(520.3348047989164,518.1548488441858)" d="M-4.47213595499958,-4.47213595499958h8.94427190999916v8.94427190999916h-8.94427190999916Z" style="fill: #f58518; stroke-width: 2; opacity: 1;"></path><path transform="translate(521.7660658828646,518.1548488441858)" d="M-4.47213595499958,-4.47213595499958h8.94427190999916v8.94427190999916h-8.94427190999916Z" style="fill: #f58518; stroke-width: 2; opacity: 1;"></path><path transform="translate(523.180185703272,518.1548488441858)" d="M-4.47213595499958,-4.47213595499958h8.94427190999916v8.94427190999916h-8.94427190999916Z" style="fill: #f58518; stroke-width: 2; opacity: 1;"></path><path transform="translate(525.9586102158742,79.66519520108368)" d="M-4.47213595499958,-4.47213595499958h8.94427190999916v8.94427190999916h-8.94427190999916Z" style="fill: #f58518; stroke-width: 2; opacity: 1;"></path><path transform="translate(527.3236843061088,72.6763156938912)" d="M-4.47213595499958,-4.47213595499958h8.94427190999916v8.94427190999916h-8.94427190999916Z" style="fill: #f58518; stroke-width: 2; opacity: 1;"></path><path transform="translate(530.0073815022038,69.99261849779622)" d="M-4.47213595499958,-4.47213595499958h8.94427190999916v8.94427190999916h-8.94427190999916Z" style="fill: #f58518; stroke-width: 2; opacity: 1;"></path><path transform="translate(532.6314360180594,518.1548488441858)" d="M-4.47213595499958,-4.47213595499958h8.94427190999916v8.94427190999916h-8.94427190999916Z" style="fill: #f58518; stroke-width: 2; opacity: 1;"></path><path transform="translate(533.9219143678048,518.1548488441858)" d="M-4.47213595499958,-4.47213595499958h8.94427190999916v8.94427190999916h-8.94427190999916Z" style="fill: #f58518; stroke-width: 2; opacity: 1;"></path><path transform="translate(538.9472512268909,470.2785045521798)" d="M-4.47213595499958,-4.47213595499958h8.94427190999916v8.94427190999916h-8.94427190999916Z" style="fill: #f58518; stroke-width: 2; opacity: 1;"></path><path transform="translate(540.1708641840045,518.1548488441858)" d="M-4.47213595499958,-4.47213595499958h8.94427190999916v8.94427190999916h-8.94427190999916Z" style="fill: #f58518; stroke-width: 2; opacity: 1;"></path><path transform="translate(541.381927043461,518.1548488441858)" d="M-4.47213595499958,-4.47213595499958h8.94427190999916v8.94427190999916h-8.94427190999916Z" style="fill: #f58518; stroke-width: 2; opacity: 1;"></path><path transform="translate(542.5806946362128,229.76838794382346)" d="M-4.47213595499958,-4.47213595499958h8.94427190999916v8.94427190999916h-8.94427190999916Z" style="fill: #f58518; stroke-width: 2; opacity: 1;"></path><path transform="translate(544.9423252331982,518.1548488441858)" d="M-4.47213595499958,-4.47213595499958h8.94427190999916v8.94427190999916h-8.94427190999916Z" style="fill: #f58518; stroke-width: 2; opacity: 1;"></path><path transform="translate(546.1056606895419,470.2785045521798)" d="M-4.47213595499958,-4.47213595499958h8.94427190999916v8.94427190999916h-8.94427190999916Z" style="fill: #f58518; stroke-width: 2; opacity: 1;"></path><path transform="translate(551.7563845139327,48.243615486067284)" d="M-4.47213595499958,-4.47213595499958h8.94427190999916v8.94427190999916h-8.94427190999916Z" style="fill: #f58518; stroke-width: 2; opacity: 1;"></path><path transform="translate(572.916058090699,27.08394190930099)" d="M-4.47213595499958,-4.47213595499958h8.94427190999916v8.94427190999916h-8.94427190999916Z" style="fill: #f58518; stroke-width: 2; opacity: 1;"></path><path transform="translate(594.75124284021,5.248757159789941)" d="M-4.47213595499958,-4.47213595499958h8.94427190999916v8.94427190999916h-8.94427190999916Z" style="fill: #f58518; stroke-width: 2; opacity: 1;"></path><path transform="translate(81.84515115581415,547.7817580816325)" d="M0,-3.872983346207417L-4.47213595499958,3.872983346207417L4.47213595499958,3.872983346207417Z" style="fill: #e45756; stroke-width: 2; opacity: 1;"></path><path transform="translate(129.7214954478202,544.9547706807081)" d="M0,-3.872983346207417L-4.47213595499958,3.872983346207417L4.47213595499958,3.872983346207417Z" style="fill: #e45756; stroke-width: 2; opacity: 1;"></path><path transform="translate(163.6903023116283,543.8426601078964)" d="M0,-3.872983346207417L-4.47213595499958,3.872983346207417L4.47213595499958,3.872983346207417Z" style="fill: #e45756; stroke-width: 2; opacity: 1;"></path><path transform="translate(190.03855589898774,539.229667708412)" d="M0,-3.872983346207417L-4.47213595499958,3.872983346207417L4.47213595499958,3.872983346207417Z" style="fill: #e45756; stroke-width: 2; opacity: 1;"></path><path transform="translate(211.56664660363435,544.6757584149805)" d="M0,-3.872983346207417L-4.47213595499958,3.872983346207417L4.47213595499958,3.872983346207417Z" style="fill: #e45756; stroke-width: 2; opacity: 1;"></path><path transform="translate(229.76838794382346,549.6562735544111)" d="M0,-3.872983346207417L-4.47213595499958,3.872983346207417L4.47213595499958,3.872983346207417Z" style="fill: #e45756; stroke-width: 2; opacity: 1;"></path><path transform="translate(245.53545346744244,551.2659846331529)" d="M0,-3.872983346207417L-4.47213595499958,3.872983346207417L4.47213595499958,3.872983346207417Z" style="fill: #e45756; stroke-width: 2; opacity: 1;"></path><path transform="translate(259.44299089564043,541.6493751244229)" d="M0,-3.872983346207417L-4.47213595499958,3.872983346207417L4.47213595499958,3.872983346207417Z" style="fill: #e45756; stroke-width: 2; opacity: 1;"></path><path transform="translate(271.8837070548019,549.6562735544111)" d="M0,-3.872983346207417L-4.47213595499958,3.872983346207417L4.47213595499958,3.872983346207417Z" style="fill: #e45756; stroke-width: 2; opacity: 1;"></path><path transform="translate(283.1377037405724,552.0049844055967)" d="M0,-3.872983346207417L-4.47213595499958,3.872983346207417L4.47213595499958,3.872983346207417Z" style="fill: #e45756; stroke-width: 2; opacity: 1;"></path><path transform="translate(293.4117977594485,554.5527672490684)" d="M0,-3.872983346207417L-4.47213595499958,3.872983346207417L4.47213595499958,3.872983346207417Z" style="fill: #e45756; stroke-width: 2; opacity: 1;"></path><path transform="translate(302.86304807423596,556.5388517031898)" d="M0,-3.872983346207417L-4.47213595499958,3.872983346207417L4.47213595499958,3.872983346207417Z" style="fill: #e45756; stroke-width: 2; opacity: 1;"></path><path transform="translate(311.6135390996376,556.2311164848022)" d="M0,-3.872983346207417L-4.47213595499958,3.872983346207417L4.47213595499958,3.872983346207417Z" style="fill: #e45756; stroke-width: 2; opacity: 1;"></path><path transform="translate(319.760051346808,563.030875832316)" d="M0,-3.872983346207417L-4.47213595499958,3.872983346207417L4.47213595499958,3.872983346207417Z" style="fill: #e45756; stroke-width: 2; opacity: 1;"></path><path transform="translate(327.3806046232566,570.2462688094089)" d="M0,-3.872983346207417L-4.47213595499958,3.872983346207417L4.47213595499958,3.872983346207417Z" style="fill: #e45756; stroke-width: 2; opacity: 1;"></path><path transform="translate(334.53901408590764,573.2250867415519)" d="M0,-3.872983346207417L-4.47213595499958,3.872983346207417L4.47213595499958,3.872983346207417Z" style="fill: #e45756; stroke-width: 2; opacity: 1;"></path><path transform="translate(341.28814205145454,577.0116840346474)" d="M0,-3.872983346207417L-4.47213595499958,3.872983346207417L4.47213595499958,3.872983346207417Z" style="fill: #e45756; stroke-width: 2; opacity: 1;"></path><path transform="translate(347.67226943673194,578.8584158109616)" d="M0,-3.872983346207417L-4.47213595499958,3.872983346207417L4.47213595499958,3.872983346207417Z" style="fill: #e45756; stroke-width: 2; opacity: 1;"></path><path transform="translate(353.728858210616,580.9237462927475)" d="M0,-3.872983346207417L-4.47213595499958,3.872983346207417L4.47213595499958,3.872983346207417Z" style="fill: #e45756; stroke-width: 2; opacity: 1;"></path><path transform="translate(359.4898833916437,586.9464461385134)" d="M0,-3.872983346207417L-4.47213595499958,3.872983346207417L4.47213595499958,3.872983346207417Z" style="fill: #e45756; stroke-width: 2; opacity: 1;"></path><path transform="translate(364.9828548963866,586.5484760178164)" d="M0,-3.872983346207417L-4.47213595499958,3.872983346207417L4.47213595499958,3.872983346207417Z" style="fill: #e45756; stroke-width: 2; opacity: 1;"></path><path transform="translate(370.2316120561765,587.5459276588514)" d="M0,-3.872983346207417L-4.47213595499958,3.872983346207417L4.47213595499958,3.872983346207417Z" style="fill: #e45756; stroke-width: 2; opacity: 1;"></path><path transform="translate(375.2569489152626,590.17943615571)" d="M0,-3.872983346207417L-4.47213595499958,3.872983346207417L4.47213595499958,3.872983346207417Z" style="fill: #e45756; stroke-width: 2; opacity: 1;"></path><path transform="translate(380.0771117979755,589.1595850870046)" d="M0,-3.872983346207417L-4.47213595499958,3.872983346207417L4.47213595499958,3.872983346207417Z" style="fill: #e45756; stroke-width: 2; opacity: 1;"></path><path transform="translate(384.7081992300502,593.2929298937571)" d="M0,-3.872983346207417L-4.47213595499958,3.872983346207417L4.47213595499958,3.872983346207417Z" style="fill: #e45756; stroke-width: 2; opacity: 1;"></path><path transform="translate(389.1644863434606,594.1372494841157)" d="M0,-3.872983346207417L-4.47213595499958,3.872983346207417L4.47213595499958,3.872983346207417Z" style="fill: #e45756; stroke-width: 2; opacity: 1;"></path><path transform="translate(393.45869025545176,594.9876499304215)" d="M0,-3.872983346207417L-4.47213595499958,3.872983346207417L4.47213595499958,3.872983346207417Z" style="fill: #e45756; stroke-width: 2; opacity: 1;"></path><path transform="translate(397.60218885828857,595.201210529274)" d="M0,-3.872983346207417L-4.47213595499958,3.872983346207417L4.47213595499958,3.872983346207417Z" style="fill: #e45756; stroke-width: 2; opacity: 1;"></path><path transform="translate(401.6052025026221,593.9256029669593)" d="M0,-3.872983346207417L-4.47213595499958,3.872983346207417L4.47213595499958,3.872983346207417Z" style="fill: #e45756; stroke-width: 2; opacity: 1;"></path><path transform="translate(405.4769458791905,594.3492759328328)" d="M0,-3.872983346207417L-4.47213595499958,3.872983346207417L4.47213595499958,3.872983346207417Z" style="fill: #e45756; stroke-width: 2; opacity: 1;"></path><path transform="translate(409.2257557790707,596.7070483413746)" d="M0,-3.872983346207417L-4.47213595499958,3.872983346207417L4.47213595499958,3.872983346207417Z" style="fill: #e45756; stroke-width: 2; opacity: 1;"></path><path transform="translate(412.8591991883926,596.4907492829996)" d="M0,-3.872983346207417L-4.47213595499958,3.872983346207417L4.47213595499958,3.872983346207417Z" style="fill: #e45756; stroke-width: 2; opacity: 1;"></path><path transform="translate(416.38416524172175,597.3583328452216)" d="M0,-3.872983346207417L-4.47213595499958,3.872983346207417L4.47213595499958,3.872983346207417Z" style="fill: #e45756; stroke-width: 2; opacity: 1;"></path><path transform="translate(419.8069438428112,596.923744236871)" d="M0,-3.872983346207417L-4.47213595499958,3.872983346207417L4.47213595499958,3.872983346207417Z" style="fill: #e45756; stroke-width: 2; opacity: 1;"></path><path transform="translate(423.1332932072687,597.1408386590123)" d="M0,-3.872983346207417L-4.47213595499958,3.872983346207417L4.47213595499958,3.872983346207417Z" style="fill: #e45756; stroke-width: 2; opacity: 1;"></path><path transform="translate(426.3684981490661,596.2748456107305)" d="M0,-3.872983346207417L-4.47213595499958,3.872983346207417L4.47213595499958,3.872983346207417Z" style="fill: #e45756; stroke-width: 2; opacity: 1;"></path><path transform="translate(429.5174205925461,598.6717791143342)" d="M0,-3.872983346207417L-4.47213595499958,3.872983346207417L4.47213595499958,3.872983346207417Z" style="fill: #e45756; stroke-width: 2; opacity: 1;"></path><path transform="translate(432.58454352205615,596.4907492829996)" d="M0,-3.872983346207417L-4.47213595499958,3.872983346207417L4.47213595499958,3.872983346207417Z" style="fill: #e45756; stroke-width: 2; opacity: 1;"></path><path transform="translate(435.5740093664302,596.7070483413746)" d="M0,-3.872983346207417L-4.47213595499958,3.872983346207417L4.47213595499958,3.872983346207417Z" style="fill: #e45756; stroke-width: 2; opacity: 1;"></path><path transform="translate(438.4896536431022,598.451854254757)" d="M0,-3.872983346207417L-4.47213595499958,3.872983346207417L4.47213595499958,3.872983346207417Z" style="fill: #e45756; stroke-width: 2; opacity: 1;"></path><path transform="translate(441.33503454745784,597.3583328452216)" d="M0,-3.872983346207417L-4.47213595499958,3.872983346207417L4.47213595499958,3.872983346207417Z" style="fill: #e45756; stroke-width: 2; opacity: 1;"></path><path transform="translate(444.11345906006,598.6717791143342)" d="M0,-3.872983346207417L-4.47213595499958,3.872983346207417L4.47213595499958,3.872983346207417Z" style="fill: #e45756; stroke-width: 2; opacity: 1;"></path><path transform="translate(446.8280060522007,597.3583328452216)" d="M0,-3.872983346207417L-4.47213595499958,3.872983346207417L4.47213595499958,3.872983346207417Z" style="fill: #e45756; stroke-width: 2; opacity: 1;"></path><path transform="translate(449.4815467946282,597.5762285020604)" d="M0,-3.872983346207417L-4.47213595499958,3.872983346207417L4.47213595499958,3.872983346207417Z" style="fill: #e45756; stroke-width: 2; opacity: 1;"></path><path transform="translate(452.0767632119907,598.451854254757)" d="M0,-3.872983346207417L-4.47213595499958,3.872983346207417L4.47213595499958,3.872983346207417Z" style="fill: #e45756; stroke-width: 2; opacity: 1;"></path><path transform="translate(454.61616417395635,599.3340219466968)" d="M0,-3.872983346207417L-4.47213595499958,3.872983346207417L4.47213595499958,3.872983346207417Z" style="fill: #e45756; stroke-width: 2; opacity: 1;"></path><path transform="translate(457.1021000710768,598.2323383701026)" d="M0,-3.872983346207417L-4.47213595499958,3.872983346207417L4.47213595499958,3.872983346207417Z" style="fill: #e45756; stroke-width: 2; opacity: 1;"></path><path transform="translate(459.5367758876469,598.451854254757)" d="M0,-3.872983346207417L-4.47213595499958,3.872983346207417L4.47213595499958,3.872983346207417Z" style="fill: #e45756; stroke-width: 2; opacity: 1;"></path><path transform="translate(461.92226295378964,598.0132295940182)" d="M0,-3.872983346207417L-4.47213595499958,3.872983346207417L4.47213595499958,3.872983346207417Z" style="fill: #e45756; stroke-width: 2; opacity: 1;"></path><path transform="translate(464.2605095337278,598.6717791143342)" d="M0,-3.872983346207417L-4.47213595499958,3.872983346207417L4.47213595499958,3.872983346207417Z" style="fill: #e45756; stroke-width: 2; opacity: 1;"></path><path transform="translate(466.5533503858643,599.1128614041646)" d="M0,-3.872983346207417L-4.47213595499958,3.872983346207417L4.47213595499958,3.872983346207417Z" style="fill: #e45756; stroke-width: 2; opacity: 1;"></path><path transform="translate(468.80251541220474,598.451854254757)" d="M0,-3.872983346207417L-4.47213595499958,3.872983346207417L4.47213595499958,3.872983346207417Z" style="fill: #e45756; stroke-width: 2; opacity: 1;"></path><path transform="translate(471.00963749927485,598.451854254757)" d="M0,-3.872983346207417L-4.47213595499958,3.872983346207417L4.47213595499958,3.872983346207417Z" style="fill: #e45756; stroke-width: 2; opacity: 1;"></path><path transform="translate(473.1762596395602,599.7775897031923)" d="M0,-3.872983346207417L-4.47213595499958,3.872983346207417L4.47213595499958,3.872983346207417Z" style="fill: #e45756; stroke-width: 2; opacity: 1;"></path><path transform="translate(475.303841411266,599.5555975496901)" d="M0,-3.872983346207417L-4.47213595499958,3.872983346207417L4.47213595499958,3.872983346207417Z" style="fill: #e45756; stroke-width: 2; opacity: 1;"></path><path transform="translate(477.39376488455224,598.8921142414143)" d="M0,-3.872983346207417L-4.47213595499958,3.872983346207417L4.47213595499958,3.872983346207417Z" style="fill: #e45756; stroke-width: 2; opacity: 1;"></path><path transform="translate(479.4473400141027,599.7775897031923)" d="M0,-3.872983346207417L-4.47213595499958,3.872983346207417L4.47213595499958,3.872983346207417Z" style="fill: #e45756; stroke-width: 2; opacity: 1;"></path><path transform="translate(481.4658095707194,599.7775897031923)" d="M0,-3.872983346207417L-4.47213595499958,3.872983346207417L4.47213595499958,3.872983346207417Z" style="fill: #e45756; stroke-width: 2; opacity: 1;"></path><path transform="translate(483.45035365843626,598.8921142414143)" d="M0,-3.872983346207417L-4.47213595499958,3.872983346207417L4.47213595499958,3.872983346207417Z" style="fill: #e45756; stroke-width: 2; opacity: 1;"></path><path transform="translate(485.40209385826523,599.1128614041646)" d="M0,-3.872983346207417L-4.47213595499958,3.872983346207417L4.47213595499958,3.872983346207417Z" style="fill: #e45756; stroke-width: 2; opacity: 1;"></path><path transform="translate(487.32209703500473,599.3340219466968)" d="M0,-3.872983346207417L-4.47213595499958,3.872983346207417L4.47213595499958,3.872983346207417Z" style="fill: #e45756; stroke-width: 2; opacity: 1;"></path><path transform="translate(489.21137883946386,599.3340219466968)" d="M0,-3.872983346207417L-4.47213595499958,3.872983346207417L4.47213595499958,3.872983346207417Z" style="fill: #e45756; stroke-width: 2; opacity: 1;"></path><path transform="translate(491.0709069348849,599.5555975496901)" d="M0,-3.872983346207417L-4.47213595499958,3.872983346207417L4.47213595499958,3.872983346207417Z" style="fill: #e45756; stroke-width: 2; opacity: 1;"></path><path transform="translate(492.9016039732237,599.7775897031923)" d="M0,-3.872983346207417L-4.47213595499958,3.872983346207417L4.47213595499958,3.872983346207417Z" style="fill: #e45756; stroke-width: 2; opacity: 1;"></path><path transform="translate(496.47998671766663,599.1128614041646)" d="M0,-3.872983346207417L-4.47213595499958,3.872983346207417L4.47213595499958,3.872983346207417Z" style="fill: #e45756; stroke-width: 2; opacity: 1;"></path><path transform="translate(498.2293163975359,599.7775897031923)" d="M0,-3.872983346207417L-4.47213595499958,3.872983346207417L4.47213595499958,3.872983346207417Z" style="fill: #e45756; stroke-width: 2; opacity: 1;"></path><path transform="translate(501.65209499862544,599.5555975496901)" d="M0,-3.872983346207417L-4.47213595499958,3.872983346207417L4.47213595499958,3.872983346207417Z" style="fill: #e45756; stroke-width: 2; opacity: 1;"></path><path transform="translate(503.32698256589333,599.7775897031923)" d="M0,-3.872983346207417L-4.47213595499958,3.872983346207417L4.47213595499958,3.872983346207417Z" style="fill: #e45756; stroke-width: 2; opacity: 1;"></path><path transform="translate(506.60712664950563,599.7775897031923)" d="M0,-3.872983346207417L-4.47213595499958,3.872983346207417L4.47213595499958,3.872983346207417Z" style="fill: #e45756; stroke-width: 2; opacity: 1;"></path><path transform="translate(511.3625717483603,599.5555975496901)" d="M0,-3.872983346207417L-4.47213595499958,3.872983346207417L4.47213595499958,3.872983346207417Z" style="fill: #e45756; stroke-width: 2; opacity: 1;"></path><path transform="translate(512.9060916843958,599.3340219466968)" d="M0,-3.872983346207417L-4.47213595499958,3.872983346207417L4.47213595499958,3.872983346207417Z" style="fill: #e45756; stroke-width: 2; opacity: 1;"></path><path transform="translate(514.4296946778703,599.7775897031923)" d="M0,-3.872983346207417L-4.47213595499958,3.872983346207417L4.47213595499958,3.872983346207417Z" style="fill: #e45756; stroke-width: 2; opacity: 1;"></path><path transform="translate(515.9338881876662,599.3340219466968)" d="M0,-3.872983346207417L-4.47213595499958,3.872983346207417L4.47213595499958,3.872983346207417Z" style="fill: #e45756; stroke-width: 2; opacity: 1;"></path><path transform="translate(517.4191605222443,599.7775897031923)" d="M0,-3.872983346207417L-4.47213595499958,3.872983346207417L4.47213595499958,3.872983346207417Z" style="fill: #e45756; stroke-width: 2; opacity: 1;"></path><path transform="translate(518.8859817912809,599.3340219466968)" d="M0,-3.872983346207417L-4.47213595499958,3.872983346207417L4.47213595499958,3.872983346207417Z" style="fill: #e45756; stroke-width: 2; opacity: 1;"></path><path transform="translate(520.3348047989164,599.7775897031923)" d="M0,-3.872983346207417L-4.47213595499958,3.872983346207417L4.47213595499958,3.872983346207417Z" style="fill: #e45756; stroke-width: 2; opacity: 1;"></path><path transform="translate(521.7660658828646,599.7775897031923)" d="M0,-3.872983346207417L-4.47213595499958,3.872983346207417L4.47213595499958,3.872983346207417Z" style="fill: #e45756; stroke-width: 2; opacity: 1;"></path><path transform="translate(523.180185703272,599.5555975496901)" d="M0,-3.872983346207417L-4.47213595499958,3.872983346207417L4.47213595499958,3.872983346207417Z" style="fill: #e45756; stroke-width: 2; opacity: 1;"></path><path transform="translate(525.9586102158742,599.5555975496901)" d="M0,-3.872983346207417L-4.47213595499958,3.872983346207417L4.47213595499958,3.872983346207417Z" style="fill: #e45756; stroke-width: 2; opacity: 1;"></path><path transform="translate(527.3236843061088,599.7775897031923)" d="M0,-3.872983346207417L-4.47213595499958,3.872983346207417L4.47213595499958,3.872983346207417Z" style="fill: #e45756; stroke-width: 2; opacity: 1;"></path><path transform="translate(530.0073815022038,599.5555975496901)" d="M0,-3.872983346207417L-4.47213595499958,3.872983346207417L4.47213595499958,3.872983346207417Z" style="fill: #e45756; stroke-width: 2; opacity: 1;"></path><path transform="translate(532.6314360180594,599.3340219466968)" d="M0,-3.872983346207417L-4.47213595499958,3.872983346207417L4.47213595499958,3.872983346207417Z" style="fill: #e45756; stroke-width: 2; opacity: 1;"></path><path transform="translate(533.9219143678048,599.7775897031923)" d="M0,-3.872983346207417L-4.47213595499958,3.872983346207417L4.47213595499958,3.872983346207417Z" style="fill: #e45756; stroke-width: 2; opacity: 1;"></path><path transform="translate(538.9472512268909,599.7775897031923)" d="M0,-3.872983346207417L-4.47213595499958,3.872983346207417L4.47213595499958,3.872983346207417Z" style="fill: #e45756; stroke-width: 2; opacity: 1;"></path><path transform="translate(540.1708641840045,599.7775897031923)" d="M0,-3.872983346207417L-4.47213595499958,3.872983346207417L4.47213595499958,3.872983346207417Z" style="fill: #e45756; stroke-width: 2; opacity: 1;"></path><path transform="translate(541.381927043461,599.7775897031923)" d="M0,-3.872983346207417L-4.47213595499958,3.872983346207417L4.47213595499958,3.872983346207417Z" style="fill: #e45756; stroke-width: 2; opacity: 1;"></path><path transform="translate(542.5806946362128,599.7775897031923)" d="M0,-3.872983346207417L-4.47213595499958,3.872983346207417L4.47213595499958,3.872983346207417Z" style="fill: #e45756; stroke-width: 2; opacity: 1;"></path><path transform="translate(544.9423252331982,599.7775897031923)" d="M0,-3.872983346207417L-4.47213595499958,3.872983346207417L4.47213595499958,3.872983346207417Z" style="fill: #e45756; stroke-width: 2; opacity: 1;"></path><path transform="translate(546.1056606895419,599.7775897031923)" d="M0,-3.872983346207417L-4.47213595499958,3.872983346207417L4.47213595499958,3.872983346207417Z" style="fill: #e45756; stroke-width: 2; opacity: 1;"></path><path transform="translate(551.7563845139327,599.7775897031923)" d="M0,-3.872983346207417L-4.47213595499958,3.872983346207417L4.47213595499958,3.872983346207417Z" style="fill: #e45756; stroke-width: 2; opacity: 1;"></path><path transform="translate(572.916058090699,599.7775897031923)" d="M0,-3.872983346207417L-4.47213595499958,3.872983346207417L4.47213595499958,3.872983346207417Z" style="fill: #e45756; stroke-width: 2; opacity: 1;"></path><path transform="translate(594.75124284021,599.7775897031923)" d="M0,-3.872983346207417L-4.47213595499958,3.872983346207417L4.47213595499958,3.872983346207417Z" style="fill: #e45756; stroke-width: 2; opacity: 1;"></path></g><g class="mark-group role-legend"><g transform="translate(0,650)"><path class="background" d="M0,0h96v61h-96Z" style="pointer-events: none; fill: none;"></path><g><g class="mark-group role-legend-entry"><g transform="translate(0,16)"><path class="background" d="M0,0h0v0h0Z" style="pointer-events: none; fill: none;"></path><g><g class="mark-group role-scope"><g transform="translate(0,0)"><path class="background" d="M0,0h88v12.5h-88Z" style="pointer-events: none; fill: none; opacity: 1;"></path><g><g class="mark-symbol role-legend-symbol" style="pointer-events: none;"><path transform="translate(6,6)" d="M5,0A5,5,0,1,1,-5,0A5,5,0,1,1,5,0" style="fill: #4c78a8; stroke: #4c78a8; stroke-width: 1.5; opacity: 1;"></path></g><g class="mark-text role-legend-label" style="pointer-events: none;"><text text-anchor="start" transform="translate(16,9)" style="font-family: sans-serif; font-size: 10px; fill: #000; opacity: 1;">average</text></g></g><path class="foreground" d="" style="pointer-events: none; display: none; fill: none;"></path></g><g transform="translate(0,16)"><path class="background" d="M0,0h88v12.5h-88Z" style="pointer-events: none; fill: none; opacity: 1;"></path><g><g class="mark-symbol role-legend-symbol" style="pointer-events: none;"><path transform="translate(6,6)" d="M5,0A5,5,0,1,1,-5,0A5,5,0,1,1,5,0" style="fill: #f58518; stroke: #f58518; stroke-width: 1.5; opacity: 1;"></path></g><g class="mark-text role-legend-label" style="pointer-events: none;"><text text-anchor="start" transform="translate(16,9)" style="font-family: sans-serif; font-size: 10px; fill: #000; opacity: 1;">maximum</text></g></g><path class="foreground" d="" style="pointer-events: none; display: none; fill: none;"></path></g><g transform="translate(0,32)"><path class="background" d="M0,0h88v12.5h-88Z" style="pointer-events: none; fill: none; opacity: 1;"></path><g><g class="mark-symbol role-legend-symbol" style="pointer-events: none;"><path transform="translate(6,6)" d="M5,0A5,5,0,1,1,-5,0A5,5,0,1,1,5,0" style="fill: #e45756; stroke: #e45756; stroke-width: 1.5; opacity: 1;"></path></g><g class="mark-text role-legend-label" style="pointer-events: none;"><text text-anchor="start" transform="translate(16,9)" style="font-family: sans-serif; font-size: 10px; fill: #000; opacity: 1;">histogram</text></g></g><path class="foreground" d="" style="pointer-events: none; display: none; fill: none;"></path></g></g></g><path class="foreground" d="" style="pointer-events: none; display: none; fill: none;"></path></g></g><g class="mark-text role-legend-title" style="pointer-events: none;"><text text-anchor="start" transform="translate(0,9)" style="font-family: sans-serif; font-size: 11px; font-weight: bold; fill: #000; opacity: 1;">Curve color</text></g></g><path class="foreground" d="" style="pointer-events: none; display: none; fill: none;"></path></g></g><g class="mark-group role-legend"><g transform="translate(104,650)"><path class="background" d="M0,0h96v59h-96Z" style="pointer-events: none; fill: none;"></path><g><g class="mark-group role-legend-entry"><g transform="translate(0,16)"><path class="background" d="M0,0h0v0h0Z" style="pointer-events: none; fill: none;"></path><g><g class="mark-group role-scope"><g transform="translate(0,0)"><path class="background" d="M0,0h88v12.5h-88Z" style="pointer-events: none; fill: none; opacity: 1;"></path><g><g class="mark-symbol role-legend-symbol" style="pointer-events: none;"><path transform="translate(6,6)" d="M5,0A5,5,0,1,1,-5,0A5,5,0,1,1,5,0" style="fill: black; fill-opacity: 1; stroke: none; stroke-width: 1.5; opacity: 1;"></path></g><g class="mark-text role-legend-label" style="pointer-events: none;"><text text-anchor="start" transform="translate(16,9)" style="font-family: sans-serif; font-size: 10px; fill: #000; opacity: 1;">average</text></g></g><path class="foreground" d="" style="pointer-events: none; display: none; fill: none;"></path></g><g transform="translate(0,16)"><path class="background" d="M0,0h88v12.5h-88Z" style="pointer-events: none; fill: none; opacity: 1;"></path><g><g class="mark-symbol role-legend-symbol" style="pointer-events: none;"><path transform="translate(6,6)" d="M-5,-5h10v10h-10Z" style="fill: black; fill-opacity: 1; stroke: none; stroke-width: 1.5; opacity: 1;"></path></g><g class="mark-text role-legend-label" style="pointer-events: none;"><text text-anchor="start" transform="translate(16,9)" style="font-family: sans-serif; font-size: 10px; fill: #000; opacity: 1;">maximum</text></g></g><path class="foreground" d="" style="pointer-events: none; display: none; fill: none;"></path></g><g transform="translate(0,31)"><path class="background" d="M0,0h88v11.830127018922191h-88Z" style="pointer-events: none; fill: none; opacity: 1;"></path><g><g class="mark-symbol role-legend-symbol" style="pointer-events: none;"><path transform="translate(6,6)" d="M0,-4.330127018922193L-5,4.330127018922193L5,4.330127018922193Z" style="fill: black; fill-opacity: 1; stroke: none; stroke-width: 1.5; opacity: 1;"></path></g><g class="mark-text role-legend-label" style="pointer-events: none;"><text text-anchor="start" transform="translate(16,9)" style="font-family: sans-serif; font-size: 10px; fill: #000; opacity: 1;">histogram</text></g></g><path class="foreground" d="" style="pointer-events: none; display: none; fill: none;"></path></g></g></g><path class="foreground" d="" style="pointer-events: none; display: none; fill: none;"></path></g></g><g class="mark-text role-legend-title" style="pointer-events: none;"><text text-anchor="start" transform="translate(0,9)" style="font-family: sans-serif; font-size: 11px; font-weight: bold; fill: #000; opacity: 1;">Curve shape</text></g></g><path class="foreground" d="" style="pointer-events: none; display: none; fill: none;"></path></g></g><g class="mark-group role-title"><g transform="translate(300,-22)"><path class="background" d="M0,0h0v0h0Z" style="pointer-events: none; fill: none;"></path><g><g class="mark-text role-title-text" style="pointer-events: none;"><text text-anchor="middle" transform="translate(0,10)" style="font-family: sans-serif; font-size: 13px; font-weight: bold; fill: #000; opacity: 1;">rte: Statistics for partially balanced generation</text></g></g><path class="foreground" d="" style="pointer-events: none; display: none; fill: none;"></path></g></g></g><path class="foreground" d="" style="display: none; fill: none;"></path></g></g></g></svg>