<svg class="marks" width="657" height="727" viewBox="0 0 657 727" version="1.1" xmlns="http://www.w3.org/2000/svg" xmlns:xlink="http://www.w3.org/1999/xlink"><rect width="657" height="727" style="fill: white;"></rect><g transform="translate(51,27)"><g class="mark-group role-frame root"><g transform="translate(0,0)"><path class="background" d="M0.5,0.5h600v600h-600Z" style="fill: none; stroke: #ddd;"></path><g><g class="mark-group role-axis"><g transform="translate(0.5,600.5)"><path class="background" d="M0,0h0v0h0Z" style="pointer-events: none; fill: none;"></path><g><g class="mark-rule role-axis-grid" style="pointer-events: none;"><line transform="translate(0,-600)" x2="0" y2="600" style="fill: none; stroke: #ddd; stroke-width: 1; opacity: 1;"></line><line transform="translate(38,-600)" x2="0" y2="600" style="fill: none; stroke: #ddd; stroke-width: 1; opacity: 1;"></line><line transform="translate(75,-600)" x2="0" y2="600" style="fill: none; stroke: #ddd; stroke-width: 1; opacity: 1;"></line><line transform="translate(113,-600)" x2="0" y2="600" style="fill: none; stroke: #ddd; stroke-width: 1; opacity: 1;"></line><line transform="translate(150,-600)" x2="0" y2="600" style="fill: none; stroke: #ddd; stroke-width: 1; opacity: 1;"></line><line transform="translate(188,-600)" x2="0" y2="600" style="fill: none; stroke: #ddd; stroke-width: 1; opacity: 1;"></line><line transform="translate(225,-600)" x2="0" y2="600" style="fill: none; stroke: #ddd; stroke-width: 1; opacity: 1;"></line><line transform="translate(263,-600)" x2="0" y2="600" style="fill: none; stroke: #ddd; stroke-width: 1; opacity: 1;"></line><line transform="translate(300,-600)" x2="0" y2="600" style="fill: none; stroke: #ddd; stroke-width: 1; opacity: 1;"></line><line transform="translate(338,-600)" x2="0" y2="600" style="fill: none; stroke: #ddd; stroke-width: 1; opacity: 1;"></line><line transform="translate(375,-600)" x2="0" y2="600" style="fill: none; stroke: #ddd; stroke-width: 1; opacity: 1;"></line><line transform="translate(413,-600)" x2="0" y2="600" style="fill: none; stroke: #ddd; stroke-width: 1; opacity: 1;"></line><line transform="translate(450,-600)" x2="0" y2="600" style="fill: none; stroke: #ddd; stroke-width: 1; opacity: 1;"></line><line transform="translate(488,-600)" x2="0" y2="600" style="fill: none; stroke: #ddd; stroke-width: 1; opacity: 1;"></line><line transform="translate(525,-600)" x2="0" y2="600" style="fill: none; stroke: #ddd; stroke-width: 1; opacity: 1;"></line><line transform="translate(563,-600)" x2="0" y2="600" style="fill: none; stroke: #ddd; stroke-width: 1; opacity: 1;"></line><line transform="translate(600,-600)" x2="0" y2="600" style="fill: none; stroke: #ddd; stroke-width: 1; opacity: 1;"></line></g></g><path class="foreground" d="" style="pointer-events: none; display: none; fill: none;"></path></g></g><g class="mark-group role-axis"><g transform="translate(0.5,0.5)"><path class="background" d="M0,0h0v0h0Z" style="pointer-events: none; fill: none;"></path><g><g class="mark-rule role-axis-grid" style="pointer-events: none;"><line transform="translate(0,600)" x2="600" y2="0" style="fill: none; stroke: #ddd; stroke-width: 1; opacity: 1;"></line><line transform="translate(0,317)" x2="600" y2="0" style="fill: none; stroke: #ddd; stroke-width: 1; opacity: 1;"></line><line transform="translate(0,241)" x2="600" y2="0" style="fill: none; stroke: #ddd; stroke-width: 1; opacity: 1;"></line><line transform="translate(0,195)" x2="600" y2="0" style="fill: none; stroke: #ddd; stroke-width: 1; opacity: 1;"></line><line transform="translate(0,162)" x2="600" y2="0" style="fill: none; stroke: #ddd; stroke-width: 1; opacity: 1;"></line><line transform="translate(0,136)" x2="600" y2="0" style="fill: none; stroke: #ddd; stroke-width: 1; opacity: 1;"></line><line transform="translate(0,115)" x2="600" y2="0" style="fill: none; stroke: #ddd; stroke-width: 1; opacity: 1;"></line><line transform="translate(0,97)" x2="600" y2="0" style="fill: none; stroke: #ddd; stroke-width: 1; opacity: 1;"></line><line transform="translate(0,81)" x2="600" y2="0" style="fill: none; stroke: #ddd; stroke-width: 1; opacity: 1;"></line><line transform="translate(0,67)" x2="600" y2="0" style="fill: none; stroke: #ddd; stroke-width: 1; opacity: 1;"></line><line transform="translate(0,55)" x2="600" y2="0" style="fill: none; stroke: #ddd; stroke-width: 1; opacity: 1;"></line><line transform="translate(0,44)" x2="600" y2="0" style="fill: none; stroke: #ddd; stroke-width: 1; opacity: 1;"></line><line transform="translate(0,34)" x2="600" y2="0" style="fill: none; stroke: #ddd; stroke-width: 1; opacity: 1;"></line><line transform="translate(0,24)" x2="600" y2="0" style="fill: none; stroke: #ddd; stroke-width: 1; opacity: 1;"></line><line transform="translate(0,16)" x2="600" y2="0" style="fill: none; stroke: #ddd; stroke-width: 1; opacity: 1;"></line><line transform="translate(0,8)" x2="600" y2="0" style="fill: none; stroke: #ddd; stroke-width: 1; opacity: 1;"></line><line transform="translate(0,0)" x2="600" y2="0" style="fill: none; stroke: #ddd; stroke-width: 1; opacity: 1;"></line></g></g><path class="foreground" d="" style="pointer-events: none; display: none; fill: none;"></path></g></g><g class="mark-group role-axis"><g transform="translate(0.5,600.5)"><path class="background" d="M0,0h0v0h0Z" style="pointer-events: none; fill: none;"></path><g><g class="mark-rule role-axis-tick" style="pointer-events: none;"><line transform="translate(0,0)" x2="0" y2="5" style="fill: none; stroke: #888; stroke-width: 1; opacity: 1;"></line><line transform="translate(38,0)" x2="0" y2="5" style="fill: none; stroke: #888; stroke-width: 1; opacity: 1;"></line><line transform="translate(75,0)" x2="0" y2="5" style="fill: none; stroke: #888; stroke-width: 1; opacity: 1;"></line><line transform="translate(113,0)" x2="0" y2="5" style="fill: none; stroke: #888; stroke-width: 1; opacity: 1;"></line><line transform="translate(150,0)" x2="0" y2="5" style="fill: none; stroke: #888; stroke-width: 1; opacity: 1;"></line><line transform="translate(188,0)" x2="0" y2="5" style="fill: none; stroke: #888; stroke-width: 1; opacity: 1;"></line><line transform="translate(225,0)" x2="0" y2="5" style="fill: none; stroke: #888; stroke-width: 1; opacity: 1;"></line><line transform="translate(263,0)" x2="0" y2="5" style="fill: none; stroke: #888; stroke-width: 1; opacity: 1;"></line><line transform="translate(300,0)" x2="0" y2="5" style="fill: none; stroke: #888; stroke-width: 1; opacity: 1;"></line><line transform="translate(338,0)" x2="0" y2="5" style="fill: none; stroke: #888; stroke-width: 1; opacity: 1;"></line><line transform="translate(375,0)" x2="0" y2="5" style="fill: none; stroke: #888; stroke-width: 1; opacity: 1;"></line><line transform="translate(413,0)" x2="0" y2="5" style="fill: none; stroke: #888; stroke-width: 1; opacity: 1;"></line><line transform="translate(450,0)" x2="0" y2="5" style="fill: none; stroke: #888; stroke-width: 1; opacity: 1;"></line><line transform="translate(488,0)" x2="0" y2="5" style="fill: none; stroke: #888; stroke-width: 1; opacity: 1;"></line><line transform="translate(525,0)" x2="0" y2="5" style="fill: none; stroke: #888; stroke-width: 1; opacity: 1;"></line><line transform="translate(563,0)" x2="0" y2="5" style="fill: none; stroke: #888; stroke-width: 1; opacity: 1;"></line><line transform="translate(600,0)" x2="0" y2="5" style="fill: none; stroke: #888; stroke-width: 1; opacity: 1;"></line></g><g class="mark-text role-axis-label" style="pointer-events: none;"><text text-anchor="start" transform="translate(0,15)" style="font-family: sans-serif; font-size: 10px; fill: #000; opacity: 1;">0</text><text text-anchor="middle" transform="translate(37.5,15)" style="font-family: sans-serif; font-size: 10px; fill: #000; opacity: 1;">10</text><text text-anchor="middle" transform="translate(75,15)" style="font-family: sans-serif; font-size: 10px; fill: #000; opacity: 1;">20</text><text text-anchor="middle" transform="translate(112.5,15)" style="font-family: sans-serif; font-size: 10px; fill: #000; opacity: 1;">30</text><text text-anchor="middle" transform="translate(150,15)" style="font-family: sans-serif; font-size: 10px; fill: #000; opacity: 1;">40</text><text text-anchor="middle" transform="translate(187.5,15)" style="font-family: sans-serif; font-size: 10px; fill: #000; opacity: 1;">50</text><text text-anchor="middle" transform="translate(225,15)" style="font-family: sans-serif; font-size: 10px; fill: #000; opacity: 1;">60</text><text text-anchor="middle" transform="translate(262.5,15)" style="font-family: sans-serif; font-size: 10px; fill: #000; opacity: 1;">70</text><text text-anchor="middle" transform="translate(300,15)" style="font-family: sans-serif; font-size: 10px; fill: #000; opacity: 1;">80</text><text text-anchor="middle" transform="translate(337.5,15)" style="font-family: sans-serif; font-size: 10px; fill: #000; opacity: 1;">90</text><text text-anchor="middle" transform="translate(375,15)" style="font-family: sans-serif; font-size: 10px; fill: #000; opacity: 1;">100</text><text text-anchor="middle" transform="translate(412.5,15)" style="font-family: sans-serif; font-size: 10px; fill: #000; opacity: 1;">110</text><text text-anchor="middle" transform="translate(450,15)" style="font-family: sans-serif; font-size: 10px; fill: #000; opacity: 1;">120</text><text text-anchor="middle" transform="translate(487.5,15)" style="font-family: sans-serif; font-size: 10px; fill: #000; opacity: 1;">130</text><text text-anchor="middle" transform="translate(525,15)" style="font-family: sans-serif; font-size: 10px; fill: #000; opacity: 1;">140</text><text text-anchor="middle" transform="translate(562.5,15)" style="font-family: sans-serif; font-size: 10px; fill: #000; opacity: 1;">150</text><text text-anchor="end" transform="translate(600,15)" style="font-family: sans-serif; font-size: 10px; fill: #000; opacity: 1;">160</text></g><g class="mark-rule role-axis-domain" style="pointer-events: none;"><line transform="translate(0,0)" x2="600" y2="0" style="fill: none; stroke: #888; stroke-width: 1; opacity: 1;"></line></g><g class="mark-text role-axis-title" style="pointer-events: none;"><text text-anchor="middle" transform="translate(300,30)" style="font-family: sans-serif; font-size: 11px; font-weight: bold; fill: #000; opacity: 1;">Starting leaf count</text></g></g><path class="foreground" d="" style="pointer-events: none; display: none; fill: none;"></path></g></g><g class="mark-group role-axis"><g transform="translate(0.5,0.5)"><path class="background" d="M0,0h0v0h0Z" style="pointer-events: none; fill: none;"></path><g><g class="mark-rule role-axis-tick" style="pointer-events: none;"><line transform="translate(0,600)" x2="-5" y2="0" style="fill: none; stroke: #888; stroke-width: 1; opacity: 1;"></line><line transform="translate(0,317)" x2="-5" y2="0" style="fill: none; stroke: #888; stroke-width: 1; opacity: 1;"></line><line transform="translate(0,241)" x2="-5" y2="0" style="fill: none; stroke: #888; stroke-width: 1; opacity: 1;"></line><line transform="translate(0,195)" x2="-5" y2="0" style="fill: none; stroke: #888; stroke-width: 1; opacity: 1;"></line><line transform="translate(0,162)" x2="-5" y2="0" style="fill: none; stroke: #888; stroke-width: 1; opacity: 1;"></line><line transform="translate(0,136)" x2="-5" y2="0" style="fill: none; stroke: #888; stroke-width: 1; opacity: 1;"></line><line transform="translate(0,115)" x2="-5" y2="0" style="fill: none; stroke: #888; stroke-width: 1; opacity: 1;"></line><line transform="translate(0,97)" x2="-5" y2="0" style="fill: none; stroke: #888; stroke-width: 1; opacity: 1;"></line><line transform="translate(0,81)" x2="-5" y2="0" style="fill: none; stroke: #888; stroke-width: 1; opacity: 1;"></line><line transform="translate(0,67)" x2="-5" y2="0" style="fill: none; stroke: #888; stroke-width: 1; opacity: 1;"></line><line transform="translate(0,55)" x2="-5" y2="0" style="fill: none; stroke: #888; stroke-width: 1; opacity: 1;"></line><line transform="translate(0,44)" x2="-5" y2="0" style="fill: none; stroke: #888; stroke-width: 1; opacity: 1;"></line><line transform="translate(0,34)" x2="-5" y2="0" style="fill: none; stroke: #888; stroke-width: 1; opacity: 1;"></line><line transform="translate(0,24)" x2="-5" y2="0" style="fill: none; stroke: #888; stroke-width: 1; opacity: 1;"></line><line transform="translate(0,16)" x2="-5" y2="0" style="fill: none; stroke: #888; stroke-width: 1; opacity: 1;"></line><line transform="translate(0,8)" x2="-5" y2="0" style="fill: none; stroke: #888; stroke-width: 1; opacity: 1;"></line><line transform="translate(0,0)" x2="-5" y2="0" style="fill: none; stroke: #888; stroke-width: 1; opacity: 1;"></line></g><g class="mark-text role-axis-label" style="pointer-events: none;"><text text-anchor="end" transform="translate(-7,603)" style="font-family: sans-serif; font-size: 10px; fill: #000; opacity: 1;">0</text><text text-anchor="end" transform="translate(-7,319.8622962594275)" style="font-family: sans-serif; font-size: 10px; fill: #000; opacity: 0;">10</text><text text-anchor="end" transform="translate(-7,243.51011660835633)" style="font-family: sans-serif; font-size: 10px; fill: #000; opacity: 1;">20</text><text text-anchor="end" transform="translate(-7,197.5230541208095)" style="font-family: sans-serif; font-size: 10px; fill: #000; opacity: 0;">30</text><text text-anchor="end" transform="translate(-7,164.51034635689783)" style="font-family: sans-serif; font-size: 10px; fill: #000; opacity: 1;">40</text><text text-anchor="end" transform="translate(-7,138.73949046627217)" style="font-family: sans-serif; font-size: 10px; fill: #000; opacity: 0;">50</text><text text-anchor="end" transform="translate(-7,117.5979061417348)" style="font-family: sans-serif; font-size: 10px; fill: #000; opacity: 1;">60</text><text text-anchor="end" transform="translate(-7,99.67301743410665)" style="font-family: sans-serif; font-size: 10px; fill: #000; opacity: 0;">70</text><text text-anchor="end" transform="translate(-7,84.11401820871909)" style="font-family: sans-serif; font-size: 10px; fill: #000; opacity: 1;">80</text><text text-anchor="end" transform="translate(-7,70.36856398194058)" style="font-family: sans-serif; font-size: 10px; fill: #000; opacity: 0;">90</text><text text-anchor="end" transform="translate(-7,58.05767476680188)" style="font-family: sans-serif; font-size: 10px; fill: #000; opacity: 1;">100</text><text text-anchor="end" transform="translate(-7,46.91000640311367)" style="font-family: sans-serif; font-size: 10px; fill: #000; opacity: 0;">110</text><text text-anchor="end" transform="translate(-7,36.724592518855154)" style="font-family: sans-serif; font-size: 10px; fill: #000; opacity: 1;">120</text><text text-anchor="end" transform="translate(-7,27.348431296387375)" style="font-family: sans-serif; font-size: 10px; fill: #000; opacity: 0;">130</text><text text-anchor="end" transform="translate(-7,18.662340378223426)" style="font-family: sans-serif; font-size: 10px; fill: #000; opacity: 1;">140</text><text text-anchor="end" transform="translate(-7,10.571669982977403)" style="font-family: sans-serif; font-size: 10px; fill: #000; opacity: 0;">150</text><text text-anchor="end" transform="translate(-7,3)" style="font-family: sans-serif; font-size: 10px; fill: #000; opacity: 1;">160</text></g><g class="mark-rule role-axis-domain" style="pointer-events: none;"><line transform="translate(0,600)" x2="0" y2="-600" style="fill: none; stroke: #888; stroke-width: 1; opacity: 1;"></line></g><g class="mark-text role-axis-title" style="pointer-events: none;"><text text-anchor="middle" transform="translate(-35,300) rotate(-90) translate(0,-2)" style="font-family: sans-serif; font-size: 11px; font-weight: bold; fill: #000; opacity: 1;">not sure name of y axix</text></g></g><path class="foreground" d="" style="pointer-events: none; display: none; fill: none;"></path></g></g><g class="mark-group role-scope layer_0_pathgroup"><g transform="translate(0,0)"><path class="background" d="M0,0h600v600h-600Z" style="fill: none;"></path><g><g class="mark-line role-mark layer_0_marks"><path d="M3.75,518.1548488441858L7.5,486.35678255855765L11.25,462.48236766941477L15,448.3374487138236L18.75,435.43612247320874L22.5,422.8607103714965L26.25,411.2716108189512L30,408.5580227358157L33.75,405.33035666893767L37.5,399.4587342137665L41.25,380.842803020032L45,377.03912447491723L48.75,391.09888364860785L52.5,372.28843717565115L56.25,371.84913700571093L60,345.66386337895267L63.75,343.3307724241478L67.5,332.93645582791095L71.25,326.13174334719366L75,322.9188850333117L78.75,347.1584518854401L82.5,340.55700910435957L86.25,307.1072197442769L90,332.93645582791095L93.75,290.44004194858945L97.5,300.683088519579L101.25,285.3586673863983L105,369.46735387999917L108.75,272.88325391786526L112.5,365.1522196312112L116.25,323.48520551312345L120,303.5526213424012L123.75,268.39110374426076L127.5,301.76803935783863L131.25,287.7394594133834L135,250.15445694354946L138.75,236.81989510775327L142.5,256.67949118792365L146.25,241.64005435730928L150,288.3864609003624L153.75,269.58381208107863L157.5,324.24455337758434L161.25,282.8934867120379L165,354.46454653255756L168.75,226.15717446169887L172.5,265.46098591409236L176.25,422.4021602601737L180,253.2188855492753L183.75,357.7908970777911L187.5,253.36806433532186L191.25,257.08317566212264L195,192.36632792083094L198.75,185.113662846301L202.5,518.1548488441858L206.25,518.1548488441858L210,185.01321903990166L213.75,120.55265998589732L217.5,328.11629294519804L221.25,242.78090954824623L225,301.76803935783863L228.75,119.87599840493768L232.5,248.25568987973122L236.25,187.1408008116074L240,235.0171451036134L247.5,181.8920436518174L251.25,101.77068360246409L258.75,173.6315018509339L262.5,96.67301743410665L270,518.1548488441858L281.25,328.11629294519804L285,167.41545647794382L288.75,518.1548488441858L292.5,123.9954020940842L296.25,173.6315018509339L300,198.3947974973779L303.75,518.1548488441858L307.5,518.1548488441858L311.25,518.1548488441858L318.75,158.6649654525422L322.5,72.6763156938912L330,69.99261849779622L337.5,518.1548488441858L341.25,518.1548488441858L356.25,470.2785045521798L360,518.1548488441858L363.75,518.1548488441858L367.5,229.76838794382346L375,518.1548488441858L378.75,470.2785045521798L397.5,48.243615486067284L476.25,27.08394190930099L573.75,5.248757159789941" style="fill: none; stroke: #4c78a8; stroke-width: 2;"></path></g></g><path class="foreground" d="" style="display: none; fill: none;"></path></g><g transform="translate(0,0)"><path class="background" d="M0,0h600v600h-600Z" style="fill: none;"></path><g><g class="mark-line role-mark layer_0_marks"><path d="M3.75,518.1548488441858L7.5,470.2785045521798L11.25,436.3096976883717L15,409.96144410101226L18.75,388.43335339636565L22.5,370.2316120561765L26.25,354.46454653255756L30,340.55700910435957L33.75,328.11629294519804L37.5,316.8622962594275L41.25,306.5882022405515L45,297.13695192576404L48.75,288.3864609003624L52.5,280.239948653192L56.25,272.6193953767434L60,265.46098591409236L63.75,258.71185794854546L67.5,252.32773056326806L71.25,246.27114178938396L75,240.51011660835633L78.75,235.0171451036134L82.5,229.76838794382346L86.25,224.74305108473735L90,219.9228882020245L93.75,215.29180076994982L97.5,210.83551365653938L101.25,206.54130974454824L105,202.3978111417114L108.75,198.3947974973779L112.5,194.5230541208095L116.25,190.7742442209293L120,187.1408008116074L123.75,183.61583475827823L127.5,180.19305615718878L131.25,176.8667067927313L135,173.6315018509339L138.75,170.4825794074539L142.5,167.41545647794382L146.25,164.42599063356982L150,167.41545647794382L153.75,158.6649654525422L157.5,155.88654093994003L161.25,153.17199394779934L165,150.51845320537183L168.75,147.92323678800932L172.5,145.38383582604365L176.25,297.13695192576404L180,140.4632241123531L183.75,147.92323678800932L187.5,135.73949046627217L191.25,133.44664961413568L195,131.1974845877953L198.75,128.99036250072515L202.5,518.1548488441858L206.25,518.1548488441858L210,122.60623511544777L213.75,120.55265998589732L217.5,328.11629294519804L221.25,116.54964634156374L225,167.41545647794382L228.75,112.67790296499527L232.5,153.17199394779934L236.25,108.92909306511514L240,235.0171451036134L247.5,103.52001328233335L251.25,101.77068360246409L258.75,98.34790500137458L262.5,96.67301743410665L270,518.1548488441858L281.25,258.71185794854546L285,87.09390831560415L288.75,518.1548488441858L292.5,84.06611181233383L296.25,173.6315018509339L300,81.11401820871909L303.75,518.1548488441858L307.5,518.1548488441858L311.25,518.1548488441858L318.75,79.66519520108368L322.5,72.6763156938912L330,69.99261849779622L337.5,518.1548488441858L341.25,518.1548488441858L356.25,470.2785045521798L360,518.1548488441858L363.75,518.1548488441858L367.5,229.76838794382346L375,518.1548488441858L378.75,470.2785045521798L397.5,48.243615486067284L476.25,27.08394190930099L573.75,5.248757159789941" style="fill: none; stroke: #f58518; stroke-width: 2;"></path></g></g><path class="foreground" d="" style="display: none; fill: none;"></path></g></g><g class="mark-symbol role-mark layer_1_marks"><path transform="translate(3.75,518.1548488441858)" d="M4.47213595499958,0A4.47213595499958,4.47213595499958,0,1,1,-4.47213595499958,0A4.47213595499958,4.47213595499958,0,1,1,4.47213595499958,0" style="fill: #4c78a8; stroke-width: 2; opacity: 1;"></path><path transform="translate(7.5,486.35678255855765)" d="M4.47213595499958,0A4.47213595499958,4.47213595499958,0,1,1,-4.47213595499958,0A4.47213595499958,4.47213595499958,0,1,1,4.47213595499958,0" style="fill: #4c78a8; stroke-width: 2; opacity: 1;"></path><path transform="translate(11.25,462.48236766941477)" d="M4.47213595499958,0A4.47213595499958,4.47213595499958,0,1,1,-4.47213595499958,0A4.47213595499958,4.47213595499958,0,1,1,4.47213595499958,0" style="fill: #4c78a8; stroke-width: 2; opacity: 1;"></path><path transform="translate(15,448.3374487138236)" d="M4.47213595499958,0A4.47213595499958,4.47213595499958,0,1,1,-4.47213595499958,0A4.47213595499958,4.47213595499958,0,1,1,4.47213595499958,0" style="fill: #4c78a8; stroke-width: 2; opacity: 1;"></path><path transform="translate(18.75,435.43612247320874)" d="M4.47213595499958,0A4.47213595499958,4.47213595499958,0,1,1,-4.47213595499958,0A4.47213595499958,4.47213595499958,0,1,1,4.47213595499958,0" style="fill: #4c78a8; stroke-width: 2; opacity: 1;"></path><path transform="translate(22.5,422.8607103714965)" d="M4.47213595499958,0A4.47213595499958,4.47213595499958,0,1,1,-4.47213595499958,0A4.47213595499958,4.47213595499958,0,1,1,4.47213595499958,0" style="fill: #4c78a8; stroke-width: 2; opacity: 1;"></path><path transform="translate(26.25,411.2716108189512)" d="M4.47213595499958,0A4.47213595499958,4.47213595499958,0,1,1,-4.47213595499958,0A4.47213595499958,4.47213595499958,0,1,1,4.47213595499958,0" style="fill: #4c78a8; stroke-width: 2; opacity: 1;"></path><path transform="translate(30,408.5580227358157)" d="M4.47213595499958,0A4.47213595499958,4.47213595499958,0,1,1,-4.47213595499958,0A4.47213595499958,4.47213595499958,0,1,1,4.47213595499958,0" style="fill: #4c78a8; stroke-width: 2; opacity: 1;"></path><path transform="translate(33.75,405.33035666893767)" d="M4.47213595499958,0A4.47213595499958,4.47213595499958,0,1,1,-4.47213595499958,0A4.47213595499958,4.47213595499958,0,1,1,4.47213595499958,0" style="fill: #4c78a8; stroke-width: 2; opacity: 1;"></path><path transform="translate(37.5,399.4587342137665)" d="M4.47213595499958,0A4.47213595499958,4.47213595499958,0,1,1,-4.47213595499958,0A4.47213595499958,4.47213595499958,0,1,1,4.47213595499958,0" style="fill: #4c78a8; stroke-width: 2; opacity: 1;"></path><path transform="translate(41.25,380.842803020032)" d="M4.47213595499958,0A4.47213595499958,4.47213595499958,0,1,1,-4.47213595499958,0A4.47213595499958,4.47213595499958,0,1,1,4.47213595499958,0" style="fill: #4c78a8; stroke-width: 2; opacity: 1;"></path><path transform="translate(45,377.03912447491723)" d="M4.47213595499958,0A4.47213595499958,4.47213595499958,0,1,1,-4.47213595499958,0A4.47213595499958,4.47213595499958,0,1,1,4.47213595499958,0" style="fill: #4c78a8; stroke-width: 2; opacity: 1;"></path><path transform="translate(48.75,391.09888364860785)" d="M4.47213595499958,0A4.47213595499958,4.47213595499958,0,1,1,-4.47213595499958,0A4.47213595499958,4.47213595499958,0,1,1,4.47213595499958,0" style="fill: #4c78a8; stroke-width: 2; opacity: 1;"></path><path transform="translate(52.5,372.28843717565115)" d="M4.47213595499958,0A4.47213595499958,4.47213595499958,0,1,1,-4.47213595499958,0A4.47213595499958,4.47213595499958,0,1,1,4.47213595499958,0" style="fill: #4c78a8; stroke-width: 2; opacity: 1;"></path><path transform="translate(56.25,371.84913700571093)" d="M4.47213595499958,0A4.47213595499958,4.47213595499958,0,1,1,-4.47213595499958,0A4.47213595499958,4.47213595499958,0,1,1,4.47213595499958,0" style="fill: #4c78a8; stroke-width: 2; opacity: 1;"></path><path transform="translate(60,345.66386337895267)" d="M4.47213595499958,0A4.47213595499958,4.47213595499958,0,1,1,-4.47213595499958,0A4.47213595499958,4.47213595499958,0,1,1,4.47213595499958,0" style="fill: #4c78a8; stroke-width: 2; opacity: 1;"></path><path transform="translate(63.75,343.3307724241478)" d="M4.47213595499958,0A4.47213595499958,4.47213595499958,0,1,1,-4.47213595499958,0A4.47213595499958,4.47213595499958,0,1,1,4.47213595499958,0" style="fill: #4c78a8; stroke-width: 2; opacity: 1;"></path><path transform="translate(67.5,332.93645582791095)" d="M4.47213595499958,0A4.47213595499958,4.47213595499958,0,1,1,-4.47213595499958,0A4.47213595499958,4.47213595499958,0,1,1,4.47213595499958,0" style="fill: #4c78a8; stroke-width: 2; opacity: 1;"></path><path transform="translate(71.25,326.13174334719366)" d="M4.47213595499958,0A4.47213595499958,4.47213595499958,0,1,1,-4.47213595499958,0A4.47213595499958,4.47213595499958,0,1,1,4.47213595499958,0" style="fill: #4c78a8; stroke-width: 2; opacity: 1;"></path><path transform="translate(75,322.9188850333117)" d="M4.47213595499958,0A4.47213595499958,4.47213595499958,0,1,1,-4.47213595499958,0A4.47213595499958,4.47213595499958,0,1,1,4.47213595499958,0" style="fill: #4c78a8; stroke-width: 2; opacity: 1;"></path><path transform="translate(78.75,347.1584518854401)" d="M4.47213595499958,0A4.47213595499958,4.47213595499958,0,1,1,-4.47213595499958,0A4.47213595499958,4.47213595499958,0,1,1,4.47213595499958,0" style="fill: #4c78a8; stroke-width: 2; opacity: 1;"></path><path transform="translate(82.5,340.55700910435957)" d="M4.47213595499958,0A4.47213595499958,4.47213595499958,0,1,1,-4.47213595499958,0A4.47213595499958,4.47213595499958,0,1,1,4.47213595499958,0" style="fill: #4c78a8; stroke-width: 2; opacity: 1;"></path><path transform="translate(86.25,307.1072197442769)" d="M4.47213595499958,0A4.47213595499958,4.47213595499958,0,1,1,-4.47213595499958,0A4.47213595499958,4.47213595499958,0,1,1,4.47213595499958,0" style="fill: #4c78a8; stroke-width: 2; opacity: 1;"></path><path transform="translate(90,332.93645582791095)" d="M4.47213595499958,0A4.47213595499958,4.47213595499958,0,1,1,-4.47213595499958,0A4.47213595499958,4.47213595499958,0,1,1,4.47213595499958,0" style="fill: #4c78a8; stroke-width: 2; opacity: 1;"></path><path transform="translate(93.75,290.44004194858945)" d="M4.47213595499958,0A4.47213595499958,4.47213595499958,0,1,1,-4.47213595499958,0A4.47213595499958,4.47213595499958,0,1,1,4.47213595499958,0" style="fill: #4c78a8; stroke-width: 2; opacity: 1;"></path><path transform="translate(97.5,300.683088519579)" d="M4.47213595499958,0A4.47213595499958,4.47213595499958,0,1,1,-4.47213595499958,0A4.47213595499958,4.47213595499958,0,1,1,4.47213595499958,0" style="fill: #4c78a8; stroke-width: 2; opacity: 1;"></path><path transform="translate(101.25,285.3586673863983)" d="M4.47213595499958,0A4.47213595499958,4.47213595499958,0,1,1,-4.47213595499958,0A4.47213595499958,4.47213595499958,0,1,1,4.47213595499958,0" style="fill: #4c78a8; stroke-width: 2; opacity: 1;"></path><path transform="translate(105,369.46735387999917)" d="M4.47213595499958,0A4.47213595499958,4.47213595499958,0,1,1,-4.47213595499958,0A4.47213595499958,4.47213595499958,0,1,1,4.47213595499958,0" style="fill: #4c78a8; stroke-width: 2; opacity: 1;"></path><path transform="translate(108.75,272.88325391786526)" d="M4.47213595499958,0A4.47213595499958,4.47213595499958,0,1,1,-4.47213595499958,0A4.47213595499958,4.47213595499958,0,1,1,4.47213595499958,0" style="fill: #4c78a8; stroke-width: 2; opacity: 1;"></path><path transform="translate(112.5,365.1522196312112)" d="M4.47213595499958,0A4.47213595499958,4.47213595499958,0,1,1,-4.47213595499958,0A4.47213595499958,4.47213595499958,0,1,1,4.47213595499958,0" style="fill: #4c78a8; stroke-width: 2; opacity: 1;"></path><path transform="translate(116.25,323.48520551312345)" d="M4.47213595499958,0A4.47213595499958,4.47213595499958,0,1,1,-4.47213595499958,0A4.47213595499958,4.47213595499958,0,1,1,4.47213595499958,0" style="fill: #4c78a8; stroke-width: 2; opacity: 1;"></path><path transform="translate(120,303.5526213424012)" d="M4.47213595499958,0A4.47213595499958,4.47213595499958,0,1,1,-4.47213595499958,0A4.47213595499958,4.47213595499958,0,1,1,4.47213595499958,0" style="fill: #4c78a8; stroke-width: 2; opacity: 1;"></path><path transform="translate(123.75,268.39110374426076)" d="M4.47213595499958,0A4.47213595499958,4.47213595499958,0,1,1,-4.47213595499958,0A4.47213595499958,4.47213595499958,0,1,1,4.47213595499958,0" style="fill: #4c78a8; stroke-width: 2; opacity: 1;"></path><path transform="translate(127.5,301.76803935783863)" d="M4.47213595499958,0A4.47213595499958,4.47213595499958,0,1,1,-4.47213595499958,0A4.47213595499958,4.47213595499958,0,1,1,4.47213595499958,0" style="fill: #4c78a8; stroke-width: 2; opacity: 1;"></path><path transform="translate(131.25,287.7394594133834)" d="M4.47213595499958,0A4.47213595499958,4.47213595499958,0,1,1,-4.47213595499958,0A4.47213595499958,4.47213595499958,0,1,1,4.47213595499958,0" style="fill: #4c78a8; stroke-width: 2; opacity: 1;"></path><path transform="translate(135,250.15445694354946)" d="M4.47213595499958,0A4.47213595499958,4.47213595499958,0,1,1,-4.47213595499958,0A4.47213595499958,4.47213595499958,0,1,1,4.47213595499958,0" style="fill: #4c78a8; stroke-width: 2; opacity: 1;"></path><path transform="translate(138.75,236.81989510775327)" d="M4.47213595499958,0A4.47213595499958,4.47213595499958,0,1,1,-4.47213595499958,0A4.47213595499958,4.47213595499958,0,1,1,4.47213595499958,0" style="fill: #4c78a8; stroke-width: 2; opacity: 1;"></path><path transform="translate(142.5,256.67949118792365)" d="M4.47213595499958,0A4.47213595499958,4.47213595499958,0,1,1,-4.47213595499958,0A4.47213595499958,4.47213595499958,0,1,1,4.47213595499958,0" style="fill: #4c78a8; stroke-width: 2; opacity: 1;"></path><path transform="translate(146.25,241.64005435730928)" d="M4.47213595499958,0A4.47213595499958,4.47213595499958,0,1,1,-4.47213595499958,0A4.47213595499958,4.47213595499958,0,1,1,4.47213595499958,0" style="fill: #4c78a8; stroke-width: 2; opacity: 1;"></path><path transform="translate(150,288.3864609003624)" d="M4.47213595499958,0A4.47213595499958,4.47213595499958,0,1,1,-4.47213595499958,0A4.47213595499958,4.47213595499958,0,1,1,4.47213595499958,0" style="fill: #4c78a8; stroke-width: 2; opacity: 1;"></path><path transform="translate(153.75,269.58381208107863)" d="M4.47213595499958,0A4.47213595499958,4.47213595499958,0,1,1,-4.47213595499958,0A4.47213595499958,4.47213595499958,0,1,1,4.47213595499958,0" style="fill: #4c78a8; stroke-width: 2; opacity: 1;"></path><path transform="translate(157.5,324.24455337758434)" d="M4.47213595499958,0A4.47213595499958,4.47213595499958,0,1,1,-4.47213595499958,0A4.47213595499958,4.47213595499958,0,1,1,4.47213595499958,0" style="fill: #4c78a8; stroke-width: 2; opacity: 1;"></path><path transform="translate(161.25,282.8934867120379)" d="M4.47213595499958,0A4.47213595499958,4.47213595499958,0,1,1,-4.47213595499958,0A4.47213595499958,4.47213595499958,0,1,1,4.47213595499958,0" style="fill: #4c78a8; stroke-width: 2; opacity: 1;"></path><path transform="translate(165,354.46454653255756)" d="M4.47213595499958,0A4.47213595499958,4.47213595499958,0,1,1,-4.47213595499958,0A4.47213595499958,4.47213595499958,0,1,1,4.47213595499958,0" style="fill: #4c78a8; stroke-width: 2; opacity: 1;"></path><path transform="translate(168.75,226.15717446169887)" d="M4.47213595499958,0A4.47213595499958,4.47213595499958,0,1,1,-4.47213595499958,0A4.47213595499958,4.47213595499958,0,1,1,4.47213595499958,0" style="fill: #4c78a8; stroke-width: 2; opacity: 1;"></path><path transform="translate(172.5,265.46098591409236)" d="M4.47213595499958,0A4.47213595499958,4.47213595499958,0,1,1,-4.47213595499958,0A4.47213595499958,4.47213595499958,0,1,1,4.47213595499958,0" style="fill: #4c78a8; stroke-width: 2; opacity: 1;"></path><path transform="translate(176.25,422.4021602601737)" d="M4.47213595499958,0A4.47213595499958,4.47213595499958,0,1,1,-4.47213595499958,0A4.47213595499958,4.47213595499958,0,1,1,4.47213595499958,0" style="fill: #4c78a8; stroke-width: 2; opacity: 1;"></path><path transform="translate(180,253.2188855492753)" d="M4.47213595499958,0A4.47213595499958,4.47213595499958,0,1,1,-4.47213595499958,0A4.47213595499958,4.47213595499958,0,1,1,4.47213595499958,0" style="fill: #4c78a8; stroke-width: 2; opacity: 1;"></path><path transform="translate(183.75,357.7908970777911)" d="M4.47213595499958,0A4.47213595499958,4.47213595499958,0,1,1,-4.47213595499958,0A4.47213595499958,4.47213595499958,0,1,1,4.47213595499958,0" style="fill: #4c78a8; stroke-width: 2; opacity: 1;"></path><path transform="translate(187.5,253.36806433532186)" d="M4.47213595499958,0A4.47213595499958,4.47213595499958,0,1,1,-4.47213595499958,0A4.47213595499958,4.47213595499958,0,1,1,4.47213595499958,0" style="fill: #4c78a8; stroke-width: 2; opacity: 1;"></path><path transform="translate(191.25,257.08317566212264)" d="M4.47213595499958,0A4.47213595499958,4.47213595499958,0,1,1,-4.47213595499958,0A4.47213595499958,4.47213595499958,0,1,1,4.47213595499958,0" style="fill: #4c78a8; stroke-width: 2; opacity: 1;"></path><path transform="translate(195,192.36632792083094)" d="M4.47213595499958,0A4.47213595499958,4.47213595499958,0,1,1,-4.47213595499958,0A4.47213595499958,4.47213595499958,0,1,1,4.47213595499958,0" style="fill: #4c78a8; stroke-width: 2; opacity: 1;"></path><path transform="translate(198.75,185.113662846301)" d="M4.47213595499958,0A4.47213595499958,4.47213595499958,0,1,1,-4.47213595499958,0A4.47213595499958,4.47213595499958,0,1,1,4.47213595499958,0" style="fill: #4c78a8; stroke-width: 2; opacity: 1;"></path><path transform="translate(202.5,518.1548488441858)" d="M4.47213595499958,0A4.47213595499958,4.47213595499958,0,1,1,-4.47213595499958,0A4.47213595499958,4.47213595499958,0,1,1,4.47213595499958,0" style="fill: #4c78a8; stroke-width: 2; opacity: 1;"></path><path transform="translate(206.25,518.1548488441858)" d="M4.47213595499958,0A4.47213595499958,4.47213595499958,0,1,1,-4.47213595499958,0A4.47213595499958,4.47213595499958,0,1,1,4.47213595499958,0" style="fill: #4c78a8; stroke-width: 2; opacity: 1;"></path><path transform="translate(210,185.01321903990166)" d="M4.47213595499958,0A4.47213595499958,4.47213595499958,0,1,1,-4.47213595499958,0A4.47213595499958,4.47213595499958,0,1,1,4.47213595499958,0" style="fill: #4c78a8; stroke-width: 2; opacity: 1;"></path><path transform="translate(213.75,120.55265998589732)" d="M4.47213595499958,0A4.47213595499958,4.47213595499958,0,1,1,-4.47213595499958,0A4.47213595499958,4.47213595499958,0,1,1,4.47213595499958,0" style="fill: #4c78a8; stroke-width: 2; opacity: 1;"></path><path transform="translate(217.5,328.11629294519804)" d="M4.47213595499958,0A4.47213595499958,4.47213595499958,0,1,1,-4.47213595499958,0A4.47213595499958,4.47213595499958,0,1,1,4.47213595499958,0" style="fill: #4c78a8; stroke-width: 2; opacity: 1;"></path><path transform="translate(221.25,242.78090954824623)" d="M4.47213595499958,0A4.47213595499958,4.47213595499958,0,1,1,-4.47213595499958,0A4.47213595499958,4.47213595499958,0,1,1,4.47213595499958,0" style="fill: #4c78a8; stroke-width: 2; opacity: 1;"></path><path transform="translate(225,301.76803935783863)" d="M4.47213595499958,0A4.47213595499958,4.47213595499958,0,1,1,-4.47213595499958,0A4.47213595499958,4.47213595499958,0,1,1,4.47213595499958,0" style="fill: #4c78a8; stroke-width: 2; opacity: 1;"></path><path transform="translate(228.75,119.87599840493768)" d="M4.47213595499958,0A4.47213595499958,4.47213595499958,0,1,1,-4.47213595499958,0A4.47213595499958,4.47213595499958,0,1,1,4.47213595499958,0" style="fill: #4c78a8; stroke-width: 2; opacity: 1;"></path><path transform="translate(232.5,248.25568987973122)" d="M4.47213595499958,0A4.47213595499958,4.47213595499958,0,1,1,-4.47213595499958,0A4.47213595499958,4.47213595499958,0,1,1,4.47213595499958,0" style="fill: #4c78a8; stroke-width: 2; opacity: 1;"></path><path transform="translate(236.25,187.1408008116074)" d="M4.47213595499958,0A4.47213595499958,4.47213595499958,0,1,1,-4.47213595499958,0A4.47213595499958,4.47213595499958,0,1,1,4.47213595499958,0" style="fill: #4c78a8; stroke-width: 2; opacity: 1;"></path><path transform="translate(240,235.0171451036134)" d="M4.47213595499958,0A4.47213595499958,4.47213595499958,0,1,1,-4.47213595499958,0A4.47213595499958,4.47213595499958,0,1,1,4.47213595499958,0" style="fill: #4c78a8; stroke-width: 2; opacity: 1;"></path><path transform="translate(247.5,181.8920436518174)" d="M4.47213595499958,0A4.47213595499958,4.47213595499958,0,1,1,-4.47213595499958,0A4.47213595499958,4.47213595499958,0,1,1,4.47213595499958,0" style="fill: #4c78a8; stroke-width: 2; opacity: 1;"></path><path transform="translate(251.25,101.77068360246409)" d="M4.47213595499958,0A4.47213595499958,4.47213595499958,0,1,1,-4.47213595499958,0A4.47213595499958,4.47213595499958,0,1,1,4.47213595499958,0" style="fill: #4c78a8; stroke-width: 2; opacity: 1;"></path><path transform="translate(258.75,173.6315018509339)" d="M4.47213595499958,0A4.47213595499958,4.47213595499958,0,1,1,-4.47213595499958,0A4.47213595499958,4.47213595499958,0,1,1,4.47213595499958,0" style="fill: #4c78a8; stroke-width: 2; opacity: 1;"></path><path transform="translate(262.5,96.67301743410665)" d="M4.47213595499958,0A4.47213595499958,4.47213595499958,0,1,1,-4.47213595499958,0A4.47213595499958,4.47213595499958,0,1,1,4.47213595499958,0" style="fill: #4c78a8; stroke-width: 2; opacity: 1;"></path><path transform="translate(270,518.1548488441858)" d="M4.47213595499958,0A4.47213595499958,4.47213595499958,0,1,1,-4.47213595499958,0A4.47213595499958,4.47213595499958,0,1,1,4.47213595499958,0" style="fill: #4c78a8; stroke-width: 2; opacity: 1;"></path><path transform="translate(281.25,328.11629294519804)" d="M4.47213595499958,0A4.47213595499958,4.47213595499958,0,1,1,-4.47213595499958,0A4.47213595499958,4.47213595499958,0,1,1,4.47213595499958,0" style="fill: #4c78a8; stroke-width: 2; opacity: 1;"></path><path transform="translate(285,167.41545647794382)" d="M4.47213595499958,0A4.47213595499958,4.47213595499958,0,1,1,-4.47213595499958,0A4.47213595499958,4.47213595499958,0,1,1,4.47213595499958,0" style="fill: #4c78a8; stroke-width: 2; opacity: 1;"></path><path transform="translate(288.75,518.1548488441858)" d="M4.47213595499958,0A4.47213595499958,4.47213595499958,0,1,1,-4.47213595499958,0A4.47213595499958,4.47213595499958,0,1,1,4.47213595499958,0" style="fill: #4c78a8; stroke-width: 2; opacity: 1;"></path><path transform="translate(292.5,123.9954020940842)" d="M4.47213595499958,0A4.47213595499958,4.47213595499958,0,1,1,-4.47213595499958,0A4.47213595499958,4.47213595499958,0,1,1,4.47213595499958,0" style="fill: #4c78a8; stroke-width: 2; opacity: 1;"></path><path transform="translate(296.25,173.6315018509339)" d="M4.47213595499958,0A4.47213595499958,4.47213595499958,0,1,1,-4.47213595499958,0A4.47213595499958,4.47213595499958,0,1,1,4.47213595499958,0" style="fill: #4c78a8; stroke-width: 2; opacity: 1;"></path><path transform="translate(300,198.3947974973779)" d="M4.47213595499958,0A4.47213595499958,4.47213595499958,0,1,1,-4.47213595499958,0A4.47213595499958,4.47213595499958,0,1,1,4.47213595499958,0" style="fill: #4c78a8; stroke-width: 2; opacity: 1;"></path><path transform="translate(303.75,518.1548488441858)" d="M4.47213595499958,0A4.47213595499958,4.47213595499958,0,1,1,-4.47213595499958,0A4.47213595499958,4.47213595499958,0,1,1,4.47213595499958,0" style="fill: #4c78a8; stroke-width: 2; opacity: 1;"></path><path transform="translate(307.5,518.1548488441858)" d="M4.47213595499958,0A4.47213595499958,4.47213595499958,0,1,1,-4.47213595499958,0A4.47213595499958,4.47213595499958,0,1,1,4.47213595499958,0" style="fill: #4c78a8; stroke-width: 2; opacity: 1;"></path><path transform="translate(311.25,518.1548488441858)" d="M4.47213595499958,0A4.47213595499958,4.47213595499958,0,1,1,-4.47213595499958,0A4.47213595499958,4.47213595499958,0,1,1,4.47213595499958,0" style="fill: #4c78a8; stroke-width: 2; opacity: 1;"></path><path transform="translate(318.75,158.6649654525422)" d="M4.47213595499958,0A4.47213595499958,4.47213595499958,0,1,1,-4.47213595499958,0A4.47213595499958,4.47213595499958,0,1,1,4.47213595499958,0" style="fill: #4c78a8; stroke-width: 2; opacity: 1;"></path><path transform="translate(322.5,72.6763156938912)" d="M4.47213595499958,0A4.47213595499958,4.47213595499958,0,1,1,-4.47213595499958,0A4.47213595499958,4.47213595499958,0,1,1,4.47213595499958,0" style="fill: #4c78a8; stroke-width: 2; opacity: 1;"></path><path transform="translate(330,69.99261849779622)" d="M4.47213595499958,0A4.47213595499958,4.47213595499958,0,1,1,-4.47213595499958,0A4.47213595499958,4.47213595499958,0,1,1,4.47213595499958,0" style="fill: #4c78a8; stroke-width: 2; opacity: 1;"></path><path transform="translate(337.5,518.1548488441858)" d="M4.47213595499958,0A4.47213595499958,4.47213595499958,0,1,1,-4.47213595499958,0A4.47213595499958,4.47213595499958,0,1,1,4.47213595499958,0" style="fill: #4c78a8; stroke-width: 2; opacity: 1;"></path><path transform="translate(341.25,518.1548488441858)" d="M4.47213595499958,0A4.47213595499958,4.47213595499958,0,1,1,-4.47213595499958,0A4.47213595499958,4.47213595499958,0,1,1,4.47213595499958,0" style="fill: #4c78a8; stroke-width: 2; opacity: 1;"></path><path transform="translate(356.25,470.2785045521798)" d="M4.47213595499958,0A4.47213595499958,4.47213595499958,0,1,1,-4.47213595499958,0A4.47213595499958,4.47213595499958,0,1,1,4.47213595499958,0" style="fill: #4c78a8; stroke-width: 2; opacity: 1;"></path><path transform="translate(360,518.1548488441858)" d="M4.47213595499958,0A4.47213595499958,4.47213595499958,0,1,1,-4.47213595499958,0A4.47213595499958,4.47213595499958,0,1,1,4.47213595499958,0" style="fill: #4c78a8; stroke-width: 2; opacity: 1;"></path><path transform="translate(363.75,518.1548488441858)" d="M4.47213595499958,0A4.47213595499958,4.47213595499958,0,1,1,-4.47213595499958,0A4.47213595499958,4.47213595499958,0,1,1,4.47213595499958,0" style="fill: #4c78a8; stroke-width: 2; opacity: 1;"></path><path transform="translate(367.5,229.76838794382346)" d="M4.47213595499958,0A4.47213595499958,4.47213595499958,0,1,1,-4.47213595499958,0A4.47213595499958,4.47213595499958,0,1,1,4.47213595499958,0" style="fill: #4c78a8; stroke-width: 2; opacity: 1;"></path><path transform="translate(375,518.1548488441858)" d="M4.47213595499958,0A4.47213595499958,4.47213595499958,0,1,1,-4.47213595499958,0A4.47213595499958,4.47213595499958,0,1,1,4.47213595499958,0" style="fill: #4c78a8; stroke-width: 2; opacity: 1;"></path><path transform="translate(378.75,470.2785045521798)" d="M4.47213595499958,0A4.47213595499958,4.47213595499958,0,1,1,-4.47213595499958,0A4.47213595499958,4.47213595499958,0,1,1,4.47213595499958,0" style="fill: #4c78a8; stroke-width: 2; opacity: 1;"></path><path transform="translate(397.5,48.243615486067284)" d="M4.47213595499958,0A4.47213595499958,4.47213595499958,0,1,1,-4.47213595499958,0A4.47213595499958,4.47213595499958,0,1,1,4.47213595499958,0" style="fill: #4c78a8; stroke-width: 2; opacity: 1;"></path><path transform="translate(476.25,27.08394190930099)" d="M4.47213595499958,0A4.47213595499958,4.47213595499958,0,1,1,-4.47213595499958,0A4.47213595499958,4.47213595499958,0,1,1,4.47213595499958,0" style="fill: #4c78a8; stroke-width: 2; opacity: 1;"></path><path transform="translate(573.75,5.248757159789941)" d="M4.47213595499958,0A4.47213595499958,4.47213595499958,0,1,1,-4.47213595499958,0A4.47213595499958,4.47213595499958,0,1,1,4.47213595499958,0" style="fill: #4c78a8; stroke-width: 2; opacity: 1;"></path><path transform="translate(3.75,518.1548488441858)" d="M-4.47213595499958,-4.47213595499958h8.94427190999916v8.94427190999916h-8.94427190999916Z" style="fill: #f58518; stroke-width: 2; opacity: 1;"></path><path transform="translate(7.5,470.2785045521798)" d="M-4.47213595499958,-4.47213595499958h8.94427190999916v8.94427190999916h-8.94427190999916Z" style="fill: #f58518; stroke-width: 2; opacity: 1;"></path><path transform="translate(11.25,436.3096976883717)" d="M-4.47213595499958,-4.47213595499958h8.94427190999916v8.94427190999916h-8.94427190999916Z" style="fill: #f58518; stroke-width: 2; opacity: 1;"></path><path transform="translate(15,409.96144410101226)" d="M-4.47213595499958,-4.47213595499958h8.94427190999916v8.94427190999916h-8.94427190999916Z" style="fill: #f58518; stroke-width: 2; opacity: 1;"></path><path transform="translate(18.75,388.43335339636565)" d="M-4.47213595499958,-4.47213595499958h8.94427190999916v8.94427190999916h-8.94427190999916Z" style="fill: #f58518; stroke-width: 2; opacity: 1;"></path><path transform="translate(22.5,370.2316120561765)" d="M-4.47213595499958,-4.47213595499958h8.94427190999916v8.94427190999916h-8.94427190999916Z" style="fill: #f58518; stroke-width: 2; opacity: 1;"></path><path transform="translate(26.25,354.46454653255756)" d="M-4.47213595499958,-4.47213595499958h8.94427190999916v8.94427190999916h-8.94427190999916Z" style="fill: #f58518; stroke-width: 2; opacity: 1;"></path><path transform="translate(30,340.55700910435957)" d="M-4.47213595499958,-4.47213595499958h8.94427190999916v8.94427190999916h-8.94427190999916Z" style="fill: #f58518; stroke-width: 2; opacity: 1;"></path><path transform="translate(33.75,328.11629294519804)" d="M-4.47213595499958,-4.47213595499958h8.94427190999916v8.94427190999916h-8.94427190999916Z" style="fill: #f58518; stroke-width: 2; opacity: 1;"></path><path transform="translate(37.5,316.8622962594275)" d="M-4.47213595499958,-4.47213595499958h8.94427190999916v8.94427190999916h-8.94427190999916Z" style="fill: #f58518; stroke-width: 2; opacity: 1;"></path><path transform="translate(41.25,306.5882022405515)" d="M-4.47213595499958,-4.47213595499958h8.94427190999916v8.94427190999916h-8.94427190999916Z" style="fill: #f58518; stroke-width: 2; opacity: 1;"></path><path transform="translate(45,297.13695192576404)" d="M-4.47213595499958,-4.47213595499958h8.94427190999916v8.94427190999916h-8.94427190999916Z" style="fill: #f58518; stroke-width: 2; opacity: 1;"></path><path transform="translate(48.75,288.3864609003624)" d="M-4.47213595499958,-4.47213595499958h8.94427190999916v8.94427190999916h-8.94427190999916Z" style="fill: #f58518; stroke-width: 2; opacity: 1;"></path><path transform="translate(52.5,280.239948653192)" d="M-4.47213595499958,-4.47213595499958h8.94427190999916v8.94427190999916h-8.94427190999916Z" style="fill: #f58518; stroke-width: 2; opacity: 1;"></path><path transform="translate(56.25,272.6193953767434)" d="M-4.47213595499958,-4.47213595499958h8.94427190999916v8.94427190999916h-8.94427190999916Z" style="fill: #f58518; stroke-width: 2; opacity: 1;"></path><path transform="translate(60,265.46098591409236)" d="M-4.47213595499958,-4.47213595499958h8.94427190999916v8.94427190999916h-8.94427190999916Z" style="fill: #f58518; stroke-width: 2; opacity: 1;"></path><path transform="translate(63.75,258.71185794854546)" d="M-4.47213595499958,-4.47213595499958h8.94427190999916v8.94427190999916h-8.94427190999916Z" style="fill: #f58518; stroke-width: 2; opacity: 1;"></path><path transform="translate(67.5,252.32773056326806)" d="M-4.47213595499958,-4.47213595499958h8.94427190999916v8.94427190999916h-8.94427190999916Z" style="fill: #f58518; stroke-width: 2; opacity: 1;"></path><path transform="translate(71.25,246.27114178938396)" d="M-4.47213595499958,-4.47213595499958h8.94427190999916v8.94427190999916h-8.94427190999916Z" style="fill: #f58518; stroke-width: 2; opacity: 1;"></path><path transform="translate(75,240.51011660835633)" d="M-4.47213595499958,-4.47213595499958h8.94427190999916v8.94427190999916h-8.94427190999916Z" style="fill: #f58518; stroke-width: 2; opacity: 1;"></path><path transform="translate(78.75,235.0171451036134)" d="M-4.47213595499958,-4.47213595499958h8.94427190999916v8.94427190999916h-8.94427190999916Z" style="fill: #f58518; stroke-width: 2; opacity: 1;"></path><path transform="translate(82.5,229.76838794382346)" d="M-4.47213595499958,-4.47213595499958h8.94427190999916v8.94427190999916h-8.94427190999916Z" style="fill: #f58518; stroke-width: 2; opacity: 1;"></path><path transform="translate(86.25,224.74305108473735)" d="M-4.47213595499958,-4.47213595499958h8.94427190999916v8.94427190999916h-8.94427190999916Z" style="fill: #f58518; stroke-width: 2; opacity: 1;"></path><path transform="translate(90,219.9228882020245)" d="M-4.47213595499958,-4.47213595499958h8.94427190999916v8.94427190999916h-8.94427190999916Z" style="fill: #f58518; stroke-width: 2; opacity: 1;"></path><path transform="translate(93.75,215.29180076994982)" d="M-4.47213595499958,-4.47213595499958h8.94427190999916v8.94427190999916h-8.94427190999916Z" style="fill: #f58518; stroke-width: 2; opacity: 1;"></path><path transform="translate(97.5,210.83551365653938)" d="M-4.47213595499958,-4.47213595499958h8.94427190999916v8.94427190999916h-8.94427190999916Z" style="fill: #f58518; stroke-width: 2; opacity: 1;"></path><path transform="translate(101.25,206.54130974454824)" d="M-4.47213595499958,-4.47213595499958h8.94427190999916v8.94427190999916h-8.94427190999916Z" style="fill: #f58518; stroke-width: 2; opacity: 1;"></path><path transform="translate(105,202.3978111417114)" d="M-4.47213595499958,-4.47213595499958h8.94427190999916v8.94427190999916h-8.94427190999916Z" style="fill: #f58518; stroke-width: 2; opacity: 1;"></path><path transform="translate(108.75,198.3947974973779)" d="M-4.47213595499958,-4.47213595499958h8.94427190999916v8.94427190999916h-8.94427190999916Z" style="fill: #f58518; stroke-width: 2; opacity: 1;"></path><path transform="translate(112.5,194.5230541208095)" d="M-4.47213595499958,-4.47213595499958h8.94427190999916v8.94427190999916h-8.94427190999916Z" style="fill: #f58518; stroke-width: 2; opacity: 1;"></path><path transform="translate(116.25,190.7742442209293)" d="M-4.47213595499958,-4.47213595499958h8.94427190999916v8.94427190999916h-8.94427190999916Z" style="fill: #f58518; stroke-width: 2; opacity: 1;"></path><path transform="translate(120,187.1408008116074)" d="M-4.47213595499958,-4.47213595499958h8.94427190999916v8.94427190999916h-8.94427190999916Z" style="fill: #f58518; stroke-width: 2; opacity: 1;"></path><path transform="translate(123.75,183.61583475827823)" d="M-4.47213595499958,-4.47213595499958h8.94427190999916v8.94427190999916h-8.94427190999916Z" style="fill: #f58518; stroke-width: 2; opacity: 1;"></path><path transform="translate(127.5,180.19305615718878)" d="M-4.47213595499958,-4.47213595499958h8.94427190999916v8.94427190999916h-8.94427190999916Z" style="fill: #f58518; stroke-width: 2; opacity: 1;"></path><path transform="translate(131.25,176.8667067927313)" d="M-4.47213595499958,-4.47213595499958h8.94427190999916v8.94427190999916h-8.94427190999916Z" style="fill: #f58518; stroke-width: 2; opacity: 1;"></path><path transform="translate(135,173.6315018509339)" d="M-4.47213595499958,-4.47213595499958h8.94427190999916v8.94427190999916h-8.94427190999916Z" style="fill: #f58518; stroke-width: 2; opacity: 1;"></path><path transform="translate(138.75,170.4825794074539)" d="M-4.47213595499958,-4.47213595499958h8.94427190999916v8.94427190999916h-8.94427190999916Z" style="fill: #f58518; stroke-width: 2; opacity: 1;"></path><path transform="translate(142.5,167.41545647794382)" d="M-4.47213595499958,-4.47213595499958h8.94427190999916v8.94427190999916h-8.94427190999916Z" style="fill: #f58518; stroke-width: 2; opacity: 1;"></path><path transform="translate(146.25,164.42599063356982)" d="M-4.47213595499958,-4.47213595499958h8.94427190999916v8.94427190999916h-8.94427190999916Z" style="fill: #f58518; stroke-width: 2; opacity: 1;"></path><path transform="translate(150,167.41545647794382)" d="M-4.47213595499958,-4.47213595499958h8.94427190999916v8.94427190999916h-8.94427190999916Z" style="fill: #f58518; stroke-width: 2; opacity: 1;"></path><path transform="translate(153.75,158.6649654525422)" d="M-4.47213595499958,-4.47213595499958h8.94427190999916v8.94427190999916h-8.94427190999916Z" style="fill: #f58518; stroke-width: 2; opacity: 1;"></path><path transform="translate(157.5,155.88654093994003)" d="M-4.47213595499958,-4.47213595499958h8.94427190999916v8.94427190999916h-8.94427190999916Z" style="fill: #f58518; stroke-width: 2; opacity: 1;"></path><path transform="translate(161.25,153.17199394779934)" d="M-4.47213595499958,-4.47213595499958h8.94427190999916v8.94427190999916h-8.94427190999916Z" style="fill: #f58518; stroke-width: 2; opacity: 1;"></path><path transform="translate(165,150.51845320537183)" d="M-4.47213595499958,-4.47213595499958h8.94427190999916v8.94427190999916h-8.94427190999916Z" style="fill: #f58518; stroke-width: 2; opacity: 1;"></path><path transform="translate(168.75,147.92323678800932)" d="M-4.47213595499958,-4.47213595499958h8.94427190999916v8.94427190999916h-8.94427190999916Z" style="fill: #f58518; stroke-width: 2; opacity: 1;"></path><path transform="translate(172.5,145.38383582604365)" d="M-4.47213595499958,-4.47213595499958h8.94427190999916v8.94427190999916h-8.94427190999916Z" style="fill: #f58518; stroke-width: 2; opacity: 1;"></path><path transform="translate(176.25,297.13695192576404)" d="M-4.47213595499958,-4.47213595499958h8.94427190999916v8.94427190999916h-8.94427190999916Z" style="fill: #f58518; stroke-width: 2; opacity: 1;"></path><path transform="translate(180,140.4632241123531)" d="M-4.47213595499958,-4.47213595499958h8.94427190999916v8.94427190999916h-8.94427190999916Z" style="fill: #f58518; stroke-width: 2; opacity: 1;"></path><path transform="translate(183.75,147.92323678800932)" d="M-4.47213595499958,-4.47213595499958h8.94427190999916v8.94427190999916h-8.94427190999916Z" style="fill: #f58518; stroke-width: 2; opacity: 1;"></path><path transform="translate(187.5,135.73949046627217)" d="M-4.47213595499958,-4.47213595499958h8.94427190999916v8.94427190999916h-8.94427190999916Z" style="fill: #f58518; stroke-width: 2; opacity: 1;"></path><path transform="translate(191.25,133.44664961413568)" d="M-4.47213595499958,-4.47213595499958h8.94427190999916v8.94427190999916h-8.94427190999916Z" style="fill: #f58518; stroke-width: 2; opacity: 1;"></path><path transform="translate(195,131.1974845877953)" d="M-4.47213595499958,-4.47213595499958h8.94427190999916v8.94427190999916h-8.94427190999916Z" style="fill: #f58518; stroke-width: 2; opacity: 1;"></path><path transform="translate(198.75,128.99036250072515)" d="M-4.47213595499958,-4.47213595499958h8.94427190999916v8.94427190999916h-8.94427190999916Z" style="fill: #f58518; stroke-width: 2; opacity: 1;"></path><path transform="translate(202.5,518.1548488441858)" d="M-4.47213595499958,-4.47213595499958h8.94427190999916v8.94427190999916h-8.94427190999916Z" style="fill: #f58518; stroke-width: 2; opacity: 1;"></path><path transform="translate(206.25,518.1548488441858)" d="M-4.47213595499958,-4.47213595499958h8.94427190999916v8.94427190999916h-8.94427190999916Z" style="fill: #f58518; stroke-width: 2; opacity: 1;"></path><path transform="translate(210,122.60623511544777)" d="M-4.47213595499958,-4.47213595499958h8.94427190999916v8.94427190999916h-8.94427190999916Z" style="fill: #f58518; stroke-width: 2; opacity: 1;"></path><path transform="translate(213.75,120.55265998589732)" d="M-4.47213595499958,-4.47213595499958h8.94427190999916v8.94427190999916h-8.94427190999916Z" style="fill: #f58518; stroke-width: 2; opacity: 1;"></path><path transform="translate(217.5,328.11629294519804)" d="M-4.47213595499958,-4.47213595499958h8.94427190999916v8.94427190999916h-8.94427190999916Z" style="fill: #f58518; stroke-width: 2; opacity: 1;"></path><path transform="translate(221.25,116.54964634156374)" d="M-4.47213595499958,-4.47213595499958h8.94427190999916v8.94427190999916h-8.94427190999916Z" style="fill: #f58518; stroke-width: 2; opacity: 1;"></path><path transform="translate(225,167.41545647794382)" d="M-4.47213595499958,-4.47213595499958h8.94427190999916v8.94427190999916h-8.94427190999916Z" style="fill: #f58518; stroke-width: 2; opacity: 1;"></path><path transform="translate(228.75,112.67790296499527)" d="M-4.47213595499958,-4.47213595499958h8.94427190999916v8.94427190999916h-8.94427190999916Z" style="fill: #f58518; stroke-width: 2; opacity: 1;"></path><path transform="translate(232.5,153.17199394779934)" d="M-4.47213595499958,-4.47213595499958h8.94427190999916v8.94427190999916h-8.94427190999916Z" style="fill: #f58518; stroke-width: 2; opacity: 1;"></path><path transform="translate(236.25,108.92909306511514)" d="M-4.47213595499958,-4.47213595499958h8.94427190999916v8.94427190999916h-8.94427190999916Z" style="fill: #f58518; stroke-width: 2; opacity: 1;"></path><path transform="translate(240,235.0171451036134)" d="M-4.47213595499958,-4.47213595499958h8.94427190999916v8.94427190999916h-8.94427190999916Z" style="fill: #f58518; stroke-width: 2; opacity: 1;"></path><path transform="translate(247.5,103.52001328233335)" d="M-4.47213595499958,-4.47213595499958h8.94427190999916v8.94427190999916h-8.94427190999916Z" style="fill: #f58518; stroke-width: 2; opacity: 1;"></path><path transform="translate(251.25,101.77068360246409)" d="M-4.47213595499958,-4.47213595499958h8.94427190999916v8.94427190999916h-8.94427190999916Z" style="fill: #f58518; stroke-width: 2; opacity: 1;"></path><path transform="translate(258.75,98.34790500137458)" d="M-4.47213595499958,-4.47213595499958h8.94427190999916v8.94427190999916h-8.94427190999916Z" style="fill: #f58518; stroke-width: 2; opacity: 1;"></path><path transform="translate(262.5,96.67301743410665)" d="M-4.47213595499958,-4.47213595499958h8.94427190999916v8.94427190999916h-8.94427190999916Z" style="fill: #f58518; stroke-width: 2; opacity: 1;"></path><path transform="translate(270,518.1548488441858)" d="M-4.47213595499958,-4.47213595499958h8.94427190999916v8.94427190999916h-8.94427190999916Z" style="fill: #f58518; stroke-width: 2; opacity: 1;"></path><path transform="translate(281.25,258.71185794854546)" d="M-4.47213595499958,-4.47213595499958h8.94427190999916v8.94427190999916h-8.94427190999916Z" style="fill: #f58518; stroke-width: 2; opacity: 1;"></path><path transform="translate(285,87.09390831560415)" d="M-4.47213595499958,-4.47213595499958h8.94427190999916v8.94427190999916h-8.94427190999916Z" style="fill: #f58518; stroke-width: 2; opacity: 1;"></path><path transform="translate(288.75,518.1548488441858)" d="M-4.47213595499958,-4.47213595499958h8.94427190999916v8.94427190999916h-8.94427190999916Z" style="fill: #f58518; stroke-width: 2; opacity: 1;"></path><path transform="translate(292.5,84.06611181233383)" d="M-4.47213595499958,-4.47213595499958h8.94427190999916v8.94427190999916h-8.94427190999916Z" style="fill: #f58518; stroke-width: 2; opacity: 1;"></path><path transform="translate(296.25,173.6315018509339)" d="M-4.47213595499958,-4.47213595499958h8.94427190999916v8.94427190999916h-8.94427190999916Z" style="fill: #f58518; stroke-width: 2; opacity: 1;"></path><path transform="translate(300,81.11401820871909)" d="M-4.47213595499958,-4.47213595499958h8.94427190999916v8.94427190999916h-8.94427190999916Z" style="fill: #f58518; stroke-width: 2; opacity: 1;"></path><path transform="translate(303.75,518.1548488441858)" d="M-4.47213595499958,-4.47213595499958h8.94427190999916v8.94427190999916h-8.94427190999916Z" style="fill: #f58518; stroke-width: 2; opacity: 1;"></path><path transform="translate(307.5,518.1548488441858)" d="M-4.47213595499958,-4.47213595499958h8.94427190999916v8.94427190999916h-8.94427190999916Z" style="fill: #f58518; stroke-width: 2; opacity: 1;"></path><path transform="translate(311.25,518.1548488441858)" d="M-4.47213595499958,-4.47213595499958h8.94427190999916v8.94427190999916h-8.94427190999916Z" style="fill: #f58518; stroke-width: 2; opacity: 1;"></path><path transform="translate(318.75,79.66519520108368)" d="M-4.47213595499958,-4.47213595499958h8.94427190999916v8.94427190999916h-8.94427190999916Z" style="fill: #f58518; stroke-width: 2; opacity: 1;"></path><path transform="translate(322.5,72.6763156938912)" d="M-4.47213595499958,-4.47213595499958h8.94427190999916v8.94427190999916h-8.94427190999916Z" style="fill: #f58518; stroke-width: 2; opacity: 1;"></path><path transform="translate(330,69.99261849779622)" d="M-4.47213595499958,-4.47213595499958h8.94427190999916v8.94427190999916h-8.94427190999916Z" style="fill: #f58518; stroke-width: 2; opacity: 1;"></path><path transform="translate(337.5,518.1548488441858)" d="M-4.47213595499958,-4.47213595499958h8.94427190999916v8.94427190999916h-8.94427190999916Z" style="fill: #f58518; stroke-width: 2; opacity: 1;"></path><path transform="translate(341.25,518.1548488441858)" d="M-4.47213595499958,-4.47213595499958h8.94427190999916v8.94427190999916h-8.94427190999916Z" style="fill: #f58518; stroke-width: 2; opacity: 1;"></path><path transform="translate(356.25,470.2785045521798)" d="M-4.47213595499958,-4.47213595499958h8.94427190999916v8.94427190999916h-8.94427190999916Z" style="fill: #f58518; stroke-width: 2; opacity: 1;"></path><path transform="translate(360,518.1548488441858)" d="M-4.47213595499958,-4.47213595499958h8.94427190999916v8.94427190999916h-8.94427190999916Z" style="fill: #f58518; stroke-width: 2; opacity: 1;"></path><path transform="translate(363.75,518.1548488441858)" d="M-4.47213595499958,-4.47213595499958h8.94427190999916v8.94427190999916h-8.94427190999916Z" style="fill: #f58518; stroke-width: 2; opacity: 1;"></path><path transform="translate(367.5,229.76838794382346)" d="M-4.47213595499958,-4.47213595499958h8.94427190999916v8.94427190999916h-8.94427190999916Z" style="fill: #f58518; stroke-width: 2; opacity: 1;"></path><path transform="translate(375,518.1548488441858)" d="M-4.47213595499958,-4.47213595499958h8.94427190999916v8.94427190999916h-8.94427190999916Z" style="fill: #f58518; stroke-width: 2; opacity: 1;"></path><path transform="translate(378.75,470.2785045521798)" d="M-4.47213595499958,-4.47213595499958h8.94427190999916v8.94427190999916h-8.94427190999916Z" style="fill: #f58518; stroke-width: 2; opacity: 1;"></path><path transform="translate(397.5,48.243615486067284)" d="M-4.47213595499958,-4.47213595499958h8.94427190999916v8.94427190999916h-8.94427190999916Z" style="fill: #f58518; stroke-width: 2; opacity: 1;"></path><path transform="translate(476.25,27.08394190930099)" d="M-4.47213595499958,-4.47213595499958h8.94427190999916v8.94427190999916h-8.94427190999916Z" style="fill: #f58518; stroke-width: 2; opacity: 1;"></path><path transform="translate(573.75,5.248757159789941)" d="M-4.47213595499958,-4.47213595499958h8.94427190999916v8.94427190999916h-8.94427190999916Z" style="fill: #f58518; stroke-width: 2; opacity: 1;"></path></g><g class="mark-group role-legend"><g transform="translate(0,650)"><path class="background" d="M0,0h224v45h-224Z" style="pointer-events: none; fill: none;"></path><g><g class="mark-group role-legend-entry"><g transform="translate(0,16)"><path class="background" d="M0,0h0v0h0Z" style="pointer-events: none; fill: none;"></path><g><g class="mark-group role-scope"><g transform="translate(0,0)"><path class="background" d="M0,0h224v12.5h-224Z" style="pointer-events: none; fill: none; opacity: 1;"></path><g><g class="mark-symbol role-legend-symbol" style="pointer-events: none;"><path transform="translate(6,6)" d="M5,0A5,5,0,1,1,-5,0A5,5,0,1,1,5,0" style="fill: #4c78a8; stroke: #4c78a8; stroke-width: 1.5; opacity: 1;"></path></g><g class="mark-text role-legend-label" style="pointer-events: none;"><text text-anchor="start" transform="translate(16,9)" style="font-family: sans-serif; font-size: 10px; fill: #000; opacity: 1;">minimized (avg) leaf count</text></g></g><path class="foreground" d="" style="pointer-events: none; display: none; fill: none;"></path></g><g transform="translate(0,16)"><path class="background" d="M0,0h224v12.5h-224Z" style="pointer-events: none; fill: none; opacity: 1;"></path><g><g class="mark-symbol role-legend-symbol" style="pointer-events: none;"><path transform="translate(6,6)" d="M5,0A5,5,0,1,1,-5,0A5,5,0,1,1,5,0" style="fill: #f58518; stroke: #f58518; stroke-width: 1.5; opacity: 1;"></path></g><g class="mark-text role-legend-label" style="pointer-events: none;"><text text-anchor="start" transform="translate(16,9)" style="font-family: sans-serif; font-size: 10px; fill: #000; opacity: 1;">minimized (max) leaf count</text></g></g><path class="foreground" d="" style="pointer-events: none; display: none; fill: none;"></path></g></g></g><path class="foreground" d="" style="pointer-events: none; display: none; fill: none;"></path></g></g><g class="mark-text role-legend-title" style="pointer-events: none;"><text text-anchor="start" transform="translate(0,9)" style="font-family: sans-serif; font-size: 11px; font-weight: bold; fill: #000; opacity: 1;">Curve color</text></g></g><path class="foreground" d="" style="pointer-events: none; display: none; fill: none;"></path></g></g><g class="mark-group role-legend"><g transform="translate(232,650)"><path class="background" d="M0,0h224v45h-224Z" style="pointer-events: none; fill: none;"></path><g><g class="mark-group role-legend-entry"><g transform="translate(0,16)"><path class="background" d="M0,0h0v0h0Z" style="pointer-events: none; fill: none;"></path><g><g class="mark-group role-scope"><g transform="translate(0,0)"><path class="background" d="M0,0h224v12.5h-224Z" style="pointer-events: none; fill: none; opacity: 1;"></path><g><g class="mark-symbol role-legend-symbol" style="pointer-events: none;"><path transform="translate(6,6)" d="M5,0A5,5,0,1,1,-5,0A5,5,0,1,1,5,0" style="fill: black; fill-opacity: 1; stroke: none; stroke-width: 1.5; opacity: 1;"></path></g><g class="mark-text role-legend-label" style="pointer-events: none;"><text text-anchor="start" transform="translate(16,9)" style="font-family: sans-serif; font-size: 10px; fill: #000; opacity: 1;">minimized (avg) leaf count</text></g></g><path class="foreground" d="" style="pointer-events: none; display: none; fill: none;"></path></g><g transform="translate(0,16)"><path class="background" d="M0,0h224v12.5h-224Z" style="pointer-events: none; fill: none; opacity: 1;"></path><g><g class="mark-symbol role-legend-symbol" style="pointer-events: none;"><path transform="translate(6,6)" d="M-5,-5h10v10h-10Z" style="fill: black; fill-opacity: 1; stroke: none; stroke-width: 1.5; opacity: 1;"></path></g><g class="mark-text role-legend-label" style="pointer-events: none;"><text text-anchor="start" transform="translate(16,9)" style="font-family: sans-serif; font-size: 10px; fill: #000; opacity: 1;">minimized (max) leaf count</text></g></g><path class="foreground" d="" style="pointer-events: none; display: none; fill: none;"></path></g></g></g><path class="foreground" d="" style="pointer-events: none; display: none; fill: none;"></path></g></g><g class="mark-text role-legend-title" style="pointer-events: none;"><text text-anchor="start" transform="translate(0,9)" style="font-family: sans-serif; font-size: 11px; font-weight: bold; fill: #000; opacity: 1;">Curve shape</text></g></g><path class="foreground" d="" style="pointer-events: none; display: none; fill: none;"></path></g></g><g class="mark-group role-title"><g transform="translate(300,-22)"><path class="background" d="M0,0h0v0h0Z" style="pointer-events: none; fill: none;"></path><g><g class="mark-text role-title-text" style="pointer-events: none;"><text text-anchor="middle" transform="translate(0,10)" style="font-family: sans-serif; font-size: 13px; font-weight: bold; fill: #000; opacity: 1;">Statistics for partially balanced generation</text></g></g><path class="foreground" d="" style="pointer-events: none; display: none; fill: none;"></path></g></g></g><path class="foreground" d="" style="display: none; fill: none;"></path></g></g></g></svg>