<svg class="marks" width="661" height="727" viewBox="0 0 661 727" version="1.1" xmlns="http://www.w3.org/2000/svg" xmlns:xlink="http://www.w3.org/1999/xlink"><rect width="661" height="727" style="fill: white;"></rect><g transform="translate(51,27)"><g class="mark-group role-frame root"><g transform="translate(0,0)"><path class="background" d="M0.5,0.5h600v600h-600Z" style="fill: none; stroke: #ddd;"></path><g><g class="mark-group role-axis"><g transform="translate(0.5,600.5)"><path class="background" d="M0,0h0v0h0Z" style="pointer-events: none; fill: none;"></path><g><g class="mark-rule role-axis-grid" style="pointer-events: none;"><line transform="translate(0,-600)" x2="0" y2="600" style="fill: none; stroke: #ddd; stroke-width: 1; opacity: 1;"></line><line transform="translate(30,-600)" x2="0" y2="600" style="fill: none; stroke: #ddd; stroke-width: 1; opacity: 1;"></line><line transform="translate(60,-600)" x2="0" y2="600" style="fill: none; stroke: #ddd; stroke-width: 1; opacity: 1;"></line><line transform="translate(90,-600)" x2="0" y2="600" style="fill: none; stroke: #ddd; stroke-width: 1; opacity: 1;"></line><line transform="translate(120,-600)" x2="0" y2="600" style="fill: none; stroke: #ddd; stroke-width: 1; opacity: 1;"></line><line transform="translate(150,-600)" x2="0" y2="600" style="fill: none; stroke: #ddd; stroke-width: 1; opacity: 1;"></line><line transform="translate(180,-600)" x2="0" y2="600" style="fill: none; stroke: #ddd; stroke-width: 1; opacity: 1;"></line><line transform="translate(210,-600)" x2="0" y2="600" style="fill: none; stroke: #ddd; stroke-width: 1; opacity: 1;"></line><line transform="translate(240,-600)" x2="0" y2="600" style="fill: none; stroke: #ddd; stroke-width: 1; opacity: 1;"></line><line transform="translate(270,-600)" x2="0" y2="600" style="fill: none; stroke: #ddd; stroke-width: 1; opacity: 1;"></line><line transform="translate(300,-600)" x2="0" y2="600" style="fill: none; stroke: #ddd; stroke-width: 1; opacity: 1;"></line><line transform="translate(330,-600)" x2="0" y2="600" style="fill: none; stroke: #ddd; stroke-width: 1; opacity: 1;"></line><line transform="translate(360,-600)" x2="0" y2="600" style="fill: none; stroke: #ddd; stroke-width: 1; opacity: 1;"></line><line transform="translate(390,-600)" x2="0" y2="600" style="fill: none; stroke: #ddd; stroke-width: 1; opacity: 1;"></line><line transform="translate(420,-600)" x2="0" y2="600" style="fill: none; stroke: #ddd; stroke-width: 1; opacity: 1;"></line><line transform="translate(450,-600)" x2="0" y2="600" style="fill: none; stroke: #ddd; stroke-width: 1; opacity: 1;"></line><line transform="translate(480,-600)" x2="0" y2="600" style="fill: none; stroke: #ddd; stroke-width: 1; opacity: 1;"></line><line transform="translate(510,-600)" x2="0" y2="600" style="fill: none; stroke: #ddd; stroke-width: 1; opacity: 1;"></line><line transform="translate(540,-600)" x2="0" y2="600" style="fill: none; stroke: #ddd; stroke-width: 1; opacity: 1;"></line><line transform="translate(570,-600)" x2="0" y2="600" style="fill: none; stroke: #ddd; stroke-width: 1; opacity: 1;"></line><line transform="translate(600,-600)" x2="0" y2="600" style="fill: none; stroke: #ddd; stroke-width: 1; opacity: 1;"></line></g></g><path class="foreground" d="" style="pointer-events: none; display: none; fill: none;"></path></g></g><g class="mark-group role-axis"><g transform="translate(0.5,0.5)"><path class="background" d="M0,0h0v0h0Z" style="pointer-events: none; fill: none;"></path><g><g class="mark-rule role-axis-grid" style="pointer-events: none;"><line transform="translate(0,600)" x2="600" y2="0" style="fill: none; stroke: #ddd; stroke-width: 1; opacity: 1;"></line><line transform="translate(0,554)" x2="600" y2="0" style="fill: none; stroke: #ddd; stroke-width: 1; opacity: 1;"></line><line transform="translate(0,508)" x2="600" y2="0" style="fill: none; stroke: #ddd; stroke-width: 1; opacity: 1;"></line><line transform="translate(0,462)" x2="600" y2="0" style="fill: none; stroke: #ddd; stroke-width: 1; opacity: 1;"></line><line transform="translate(0,415)" x2="600" y2="0" style="fill: none; stroke: #ddd; stroke-width: 1; opacity: 1;"></line><line transform="translate(0,369)" x2="600" y2="0" style="fill: none; stroke: #ddd; stroke-width: 1; opacity: 1;"></line><line transform="translate(0,323)" x2="600" y2="0" style="fill: none; stroke: #ddd; stroke-width: 1; opacity: 1;"></line><line transform="translate(0,277)" x2="600" y2="0" style="fill: none; stroke: #ddd; stroke-width: 1; opacity: 1;"></line><line transform="translate(0,231)" x2="600" y2="0" style="fill: none; stroke: #ddd; stroke-width: 1; opacity: 1;"></line><line transform="translate(0,185)" x2="600" y2="0" style="fill: none; stroke: #ddd; stroke-width: 1; opacity: 1;"></line><line transform="translate(0,138)" x2="600" y2="0" style="fill: none; stroke: #ddd; stroke-width: 1; opacity: 1;"></line><line transform="translate(0,92)" x2="600" y2="0" style="fill: none; stroke: #ddd; stroke-width: 1; opacity: 1;"></line><line transform="translate(0,46)" x2="600" y2="0" style="fill: none; stroke: #ddd; stroke-width: 1; opacity: 1;"></line><line transform="translate(0,0)" x2="600" y2="0" style="fill: none; stroke: #ddd; stroke-width: 1; opacity: 1;"></line></g></g><path class="foreground" d="" style="pointer-events: none; display: none; fill: none;"></path></g></g><g class="mark-group role-axis"><g transform="translate(0.5,600.5)"><path class="background" d="M0,0h0v0h0Z" style="pointer-events: none; fill: none;"></path><g><g class="mark-rule role-axis-tick" style="pointer-events: none;"><line transform="translate(0,0)" x2="0" y2="5" style="fill: none; stroke: #888; stroke-width: 1; opacity: 1;"></line><line transform="translate(30,0)" x2="0" y2="5" style="fill: none; stroke: #888; stroke-width: 1; opacity: 1;"></line><line transform="translate(60,0)" x2="0" y2="5" style="fill: none; stroke: #888; stroke-width: 1; opacity: 1;"></line><line transform="translate(90,0)" x2="0" y2="5" style="fill: none; stroke: #888; stroke-width: 1; opacity: 1;"></line><line transform="translate(120,0)" x2="0" y2="5" style="fill: none; stroke: #888; stroke-width: 1; opacity: 1;"></line><line transform="translate(150,0)" x2="0" y2="5" style="fill: none; stroke: #888; stroke-width: 1; opacity: 1;"></line><line transform="translate(180,0)" x2="0" y2="5" style="fill: none; stroke: #888; stroke-width: 1; opacity: 1;"></line><line transform="translate(210,0)" x2="0" y2="5" style="fill: none; stroke: #888; stroke-width: 1; opacity: 1;"></line><line transform="translate(240,0)" x2="0" y2="5" style="fill: none; stroke: #888; stroke-width: 1; opacity: 1;"></line><line transform="translate(270,0)" x2="0" y2="5" style="fill: none; stroke: #888; stroke-width: 1; opacity: 1;"></line><line transform="translate(300,0)" x2="0" y2="5" style="fill: none; stroke: #888; stroke-width: 1; opacity: 1;"></line><line transform="translate(330,0)" x2="0" y2="5" style="fill: none; stroke: #888; stroke-width: 1; opacity: 1;"></line><line transform="translate(360,0)" x2="0" y2="5" style="fill: none; stroke: #888; stroke-width: 1; opacity: 1;"></line><line transform="translate(390,0)" x2="0" y2="5" style="fill: none; stroke: #888; stroke-width: 1; opacity: 1;"></line><line transform="translate(420,0)" x2="0" y2="5" style="fill: none; stroke: #888; stroke-width: 1; opacity: 1;"></line><line transform="translate(450,0)" x2="0" y2="5" style="fill: none; stroke: #888; stroke-width: 1; opacity: 1;"></line><line transform="translate(480,0)" x2="0" y2="5" style="fill: none; stroke: #888; stroke-width: 1; opacity: 1;"></line><line transform="translate(510,0)" x2="0" y2="5" style="fill: none; stroke: #888; stroke-width: 1; opacity: 1;"></line><line transform="translate(540,0)" x2="0" y2="5" style="fill: none; stroke: #888; stroke-width: 1; opacity: 1;"></line><line transform="translate(570,0)" x2="0" y2="5" style="fill: none; stroke: #888; stroke-width: 1; opacity: 1;"></line><line transform="translate(600,0)" x2="0" y2="5" style="fill: none; stroke: #888; stroke-width: 1; opacity: 1;"></line></g><g class="mark-text role-axis-label" style="pointer-events: none;"><text text-anchor="start" transform="translate(0,15)" style="font-family: sans-serif; font-size: 10px; fill: #000; opacity: 1;">0</text><text text-anchor="middle" transform="translate(30,15)" style="font-family: sans-serif; font-size: 10px; fill: #000; opacity: 1;">1</text><text text-anchor="middle" transform="translate(60,15)" style="font-family: sans-serif; font-size: 10px; fill: #000; opacity: 1;">2</text><text text-anchor="middle" transform="translate(90,15)" style="font-family: sans-serif; font-size: 10px; fill: #000; opacity: 1;">3</text><text text-anchor="middle" transform="translate(120,15)" style="font-family: sans-serif; font-size: 10px; fill: #000; opacity: 1;">4</text><text text-anchor="middle" transform="translate(150,15)" style="font-family: sans-serif; font-size: 10px; fill: #000; opacity: 1;">5</text><text text-anchor="middle" transform="translate(180,15)" style="font-family: sans-serif; font-size: 10px; fill: #000; opacity: 1;">6</text><text text-anchor="middle" transform="translate(210,15)" style="font-family: sans-serif; font-size: 10px; fill: #000; opacity: 1;">7</text><text text-anchor="middle" transform="translate(240,15)" style="font-family: sans-serif; font-size: 10px; fill: #000; opacity: 1;">8</text><text text-anchor="middle" transform="translate(270,15)" style="font-family: sans-serif; font-size: 10px; fill: #000; opacity: 1;">9</text><text text-anchor="middle" transform="translate(300,15)" style="font-family: sans-serif; font-size: 10px; fill: #000; opacity: 1;">10</text><text text-anchor="middle" transform="translate(330,15)" style="font-family: sans-serif; font-size: 10px; fill: #000; opacity: 1;">11</text><text text-anchor="middle" transform="translate(360,15)" style="font-family: sans-serif; font-size: 10px; fill: #000; opacity: 1;">12</text><text text-anchor="middle" transform="translate(390,15)" style="font-family: sans-serif; font-size: 10px; fill: #000; opacity: 1;">13</text><text text-anchor="middle" transform="translate(420,15)" style="font-family: sans-serif; font-size: 10px; fill: #000; opacity: 1;">14</text><text text-anchor="middle" transform="translate(450,15)" style="font-family: sans-serif; font-size: 10px; fill: #000; opacity: 1;">15</text><text text-anchor="middle" transform="translate(480,15)" style="font-family: sans-serif; font-size: 10px; fill: #000; opacity: 1;">16</text><text text-anchor="middle" transform="translate(510,15)" style="font-family: sans-serif; font-size: 10px; fill: #000; opacity: 1;">17</text><text text-anchor="middle" transform="translate(540,15)" style="font-family: sans-serif; font-size: 10px; fill: #000; opacity: 1;">18</text><text text-anchor="middle" transform="translate(570,15)" style="font-family: sans-serif; font-size: 10px; fill: #000; opacity: 1;">19</text><text text-anchor="end" transform="translate(600,15)" style="font-family: sans-serif; font-size: 10px; fill: #000; opacity: 1;">20</text></g><g class="mark-rule role-axis-domain" style="pointer-events: none;"><line transform="translate(0,0)" x2="600" y2="0" style="fill: none; stroke: #888; stroke-width: 1; opacity: 1;"></line></g><g class="mark-text role-axis-title" style="pointer-events: none;"><text text-anchor="middle" transform="translate(300,30)" style="font-family: sans-serif; font-size: 11px; font-weight: bold; fill: #000; opacity: 1;">Imbalance</text></g></g><path class="foreground" d="" style="pointer-events: none; display: none; fill: none;"></path></g></g><g class="mark-group role-axis"><g transform="translate(0.5,0.5)"><path class="background" d="M0,0h0v0h0Z" style="pointer-events: none; fill: none;"></path><g><g class="mark-rule role-axis-tick" style="pointer-events: none;"><line transform="translate(0,600)" x2="-5" y2="0" style="fill: none; stroke: #888; stroke-width: 1; opacity: 1;"></line><line transform="translate(0,554)" x2="-5" y2="0" style="fill: none; stroke: #888; stroke-width: 1; opacity: 1;"></line><line transform="translate(0,508)" x2="-5" y2="0" style="fill: none; stroke: #888; stroke-width: 1; opacity: 1;"></line><line transform="translate(0,462)" x2="-5" y2="0" style="fill: none; stroke: #888; stroke-width: 1; opacity: 1;"></line><line transform="translate(0,415)" x2="-5" y2="0" style="fill: none; stroke: #888; stroke-width: 1; opacity: 1;"></line><line transform="translate(0,369)" x2="-5" y2="0" style="fill: none; stroke: #888; stroke-width: 1; opacity: 1;"></line><line transform="translate(0,323)" x2="-5" y2="0" style="fill: none; stroke: #888; stroke-width: 1; opacity: 1;"></line><line transform="translate(0,277)" x2="-5" y2="0" style="fill: none; stroke: #888; stroke-width: 1; opacity: 1;"></line><line transform="translate(0,231)" x2="-5" y2="0" style="fill: none; stroke: #888; stroke-width: 1; opacity: 1;"></line><line transform="translate(0,185)" x2="-5" y2="0" style="fill: none; stroke: #888; stroke-width: 1; opacity: 1;"></line><line transform="translate(0,138)" x2="-5" y2="0" style="fill: none; stroke: #888; stroke-width: 1; opacity: 1;"></line><line transform="translate(0,92)" x2="-5" y2="0" style="fill: none; stroke: #888; stroke-width: 1; opacity: 1;"></line><line transform="translate(0,46)" x2="-5" y2="0" style="fill: none; stroke: #888; stroke-width: 1; opacity: 1;"></line><line transform="translate(0,0)" x2="-5" y2="0" style="fill: none; stroke: #888; stroke-width: 1; opacity: 1;"></line></g><g class="mark-text role-axis-label" style="pointer-events: none;"><text text-anchor="end" transform="translate(-7,603)" style="font-family: sans-serif; font-size: 10px; fill: #000; opacity: 1;">-30</text><text text-anchor="end" transform="translate(-7,556.8461538461539)" style="font-family: sans-serif; font-size: 10px; fill: #000; opacity: 1;">-20</text><text text-anchor="end" transform="translate(-7,510.6923076923077)" style="font-family: sans-serif; font-size: 10px; fill: #000; opacity: 1;">-10</text><text text-anchor="end" transform="translate(-7,464.5384615384615)" style="font-family: sans-serif; font-size: 10px; fill: #000; opacity: 1;">0</text><text text-anchor="end" transform="translate(-7,418.38461538461536)" style="font-family: sans-serif; font-size: 10px; fill: #000; opacity: 1;">10</text><text text-anchor="end" transform="translate(-7,372.2307692307692)" style="font-family: sans-serif; font-size: 10px; fill: #000; opacity: 1;">20</text><text text-anchor="end" transform="translate(-7,326.07692307692304)" style="font-family: sans-serif; font-size: 10px; fill: #000; opacity: 1;">30</text><text text-anchor="end" transform="translate(-7,279.92307692307696)" style="font-family: sans-serif; font-size: 10px; fill: #000; opacity: 1;">40</text><text text-anchor="end" transform="translate(-7,233.76923076923075)" style="font-family: sans-serif; font-size: 10px; fill: #000; opacity: 1;">50</text><text text-anchor="end" transform="translate(-7,187.6153846153846)" style="font-family: sans-serif; font-size: 10px; fill: #000; opacity: 1;">60</text><text text-anchor="end" transform="translate(-7,141.46153846153842)" style="font-family: sans-serif; font-size: 10px; fill: #000; opacity: 1;">70</text><text text-anchor="end" transform="translate(-7,95.3076923076923)" style="font-family: sans-serif; font-size: 10px; fill: #000; opacity: 1;">80</text><text text-anchor="end" transform="translate(-7,49.153846153846125)" style="font-family: sans-serif; font-size: 10px; fill: #000; opacity: 1;">90</text><text text-anchor="end" transform="translate(-7,3)" style="font-family: sans-serif; font-size: 10px; fill: #000; opacity: 1;">100</text></g><g class="mark-rule role-axis-domain" style="pointer-events: none;"><line transform="translate(0,600)" x2="0" y2="-600" style="fill: none; stroke: #888; stroke-width: 1; opacity: 1;"></line></g><g class="mark-text role-axis-title" style="pointer-events: none;"><text text-anchor="middle" transform="translate(-35,300) rotate(-90) translate(0,-2)" style="font-family: sans-serif; font-size: 11px; font-weight: bold; fill: #000; opacity: 1;">Percentage</text></g></g><path class="foreground" d="" style="pointer-events: none; display: none; fill: none;"></path></g></g><g class="mark-group role-scope layer_0_pathgroup"><g transform="translate(0,0)"><path class="background" d="M0,0h600v600h-600Z" style="fill: none;"></path><g><g class="mark-line role-mark layer_0_marks"><path d="M0,446.04803723076924L30,315.51228000000003L60,257.08767692307697L90,221.58775384615384L120,187.43940000000006L150,154.67903076923076L180,149.2034307692308L210,127.54499999999997L240,109.44738461538459L270,73.65867692307692L300,68.03672307692308L330,51.95286461538464L360,33.274315384615385L390,38.05472307692304L420,20.73560307692308L450,27.642904615384566L480,0.09729230769222053L510,0.016550769230727624L540,0.08395384615387247L600,0.053723076923084534" style="fill: none; stroke: #f58518; stroke-width: 2;"></path></g></g><path class="foreground" d="" style="display: none; fill: none;"></path></g><g transform="translate(0,0)"><path class="background" d="M0,0h600v600h-600Z" style="fill: none;"></path><g><g class="mark-line role-mark layer_0_marks"><path d="M0,484.08898523076925L30,438.1935286153846L60,459.21774738461545L90,450.6246249230769L120,450.7392849230769L150,489.5246353846154L180,460.3242881538461L210,465.7202218153846L240,480.81163846153845L270,482.59117569230773L300,485.2620992307692L330,521.7217015384615L360,564.5617661538462L390,490.7469323076923L420,525.5464892307692L450,528.8215615384615L480,492.30769153846154L510,461.5384615384615L540,461.5384615384615L600,461.5384615384615" style="fill: none; stroke: #4c78a8; stroke-width: 2;"></path></g></g><path class="foreground" d="" style="display: none; fill: none;"></path></g></g><g class="mark-symbol role-mark layer_1_marks"><path transform="translate(0,446.04803723076924)" d="M-4.47213595499958,-4.47213595499958h8.94427190999916v8.94427190999916h-8.94427190999916Z" style="fill: #f58518; stroke-width: 2; opacity: 1;"></path><path transform="translate(30,315.51228000000003)" d="M-4.47213595499958,-4.47213595499958h8.94427190999916v8.94427190999916h-8.94427190999916Z" style="fill: #f58518; stroke-width: 2; opacity: 1;"></path><path transform="translate(60,257.08767692307697)" d="M-4.47213595499958,-4.47213595499958h8.94427190999916v8.94427190999916h-8.94427190999916Z" style="fill: #f58518; stroke-width: 2; opacity: 1;"></path><path transform="translate(90,221.58775384615384)" d="M-4.47213595499958,-4.47213595499958h8.94427190999916v8.94427190999916h-8.94427190999916Z" style="fill: #f58518; stroke-width: 2; opacity: 1;"></path><path transform="translate(120,187.43940000000006)" d="M-4.47213595499958,-4.47213595499958h8.94427190999916v8.94427190999916h-8.94427190999916Z" style="fill: #f58518; stroke-width: 2; opacity: 1;"></path><path transform="translate(150,154.67903076923076)" d="M-4.47213595499958,-4.47213595499958h8.94427190999916v8.94427190999916h-8.94427190999916Z" style="fill: #f58518; stroke-width: 2; opacity: 1;"></path><path transform="translate(180,149.2034307692308)" d="M-4.47213595499958,-4.47213595499958h8.94427190999916v8.94427190999916h-8.94427190999916Z" style="fill: #f58518; stroke-width: 2; opacity: 1;"></path><path transform="translate(210,127.54499999999997)" d="M-4.47213595499958,-4.47213595499958h8.94427190999916v8.94427190999916h-8.94427190999916Z" style="fill: #f58518; stroke-width: 2; opacity: 1;"></path><path transform="translate(240,109.44738461538459)" d="M-4.47213595499958,-4.47213595499958h8.94427190999916v8.94427190999916h-8.94427190999916Z" style="fill: #f58518; stroke-width: 2; opacity: 1;"></path><path transform="translate(270,73.65867692307692)" d="M-4.47213595499958,-4.47213595499958h8.94427190999916v8.94427190999916h-8.94427190999916Z" style="fill: #f58518; stroke-width: 2; opacity: 1;"></path><path transform="translate(300,68.03672307692308)" d="M-4.47213595499958,-4.47213595499958h8.94427190999916v8.94427190999916h-8.94427190999916Z" style="fill: #f58518; stroke-width: 2; opacity: 1;"></path><path transform="translate(330,51.95286461538464)" d="M-4.47213595499958,-4.47213595499958h8.94427190999916v8.94427190999916h-8.94427190999916Z" style="fill: #f58518; stroke-width: 2; opacity: 1;"></path><path transform="translate(360,33.274315384615385)" d="M-4.47213595499958,-4.47213595499958h8.94427190999916v8.94427190999916h-8.94427190999916Z" style="fill: #f58518; stroke-width: 2; opacity: 1;"></path><path transform="translate(390,38.05472307692304)" d="M-4.47213595499958,-4.47213595499958h8.94427190999916v8.94427190999916h-8.94427190999916Z" style="fill: #f58518; stroke-width: 2; opacity: 1;"></path><path transform="translate(420,20.73560307692308)" d="M-4.47213595499958,-4.47213595499958h8.94427190999916v8.94427190999916h-8.94427190999916Z" style="fill: #f58518; stroke-width: 2; opacity: 1;"></path><path transform="translate(450,27.642904615384566)" d="M-4.47213595499958,-4.47213595499958h8.94427190999916v8.94427190999916h-8.94427190999916Z" style="fill: #f58518; stroke-width: 2; opacity: 1;"></path><path transform="translate(480,0.09729230769222053)" d="M-4.47213595499958,-4.47213595499958h8.94427190999916v8.94427190999916h-8.94427190999916Z" style="fill: #f58518; stroke-width: 2; opacity: 1;"></path><path transform="translate(510,0.016550769230727624)" d="M-4.47213595499958,-4.47213595499958h8.94427190999916v8.94427190999916h-8.94427190999916Z" style="fill: #f58518; stroke-width: 2; opacity: 1;"></path><path transform="translate(540,0.08395384615387247)" d="M-4.47213595499958,-4.47213595499958h8.94427190999916v8.94427190999916h-8.94427190999916Z" style="fill: #f58518; stroke-width: 2; opacity: 1;"></path><path transform="translate(600,0.053723076923084534)" d="M-4.47213595499958,-4.47213595499958h8.94427190999916v8.94427190999916h-8.94427190999916Z" style="fill: #f58518; stroke-width: 2; opacity: 1;"></path><path transform="translate(0,484.08898523076925)" d="M4.47213595499958,0A4.47213595499958,4.47213595499958,0,1,1,-4.47213595499958,0A4.47213595499958,4.47213595499958,0,1,1,4.47213595499958,0" style="fill: #4c78a8; stroke-width: 2; opacity: 1;"></path><path transform="translate(30,438.1935286153846)" d="M4.47213595499958,0A4.47213595499958,4.47213595499958,0,1,1,-4.47213595499958,0A4.47213595499958,4.47213595499958,0,1,1,4.47213595499958,0" style="fill: #4c78a8; stroke-width: 2; opacity: 1;"></path><path transform="translate(60,459.21774738461545)" d="M4.47213595499958,0A4.47213595499958,4.47213595499958,0,1,1,-4.47213595499958,0A4.47213595499958,4.47213595499958,0,1,1,4.47213595499958,0" style="fill: #4c78a8; stroke-width: 2; opacity: 1;"></path><path transform="translate(90,450.6246249230769)" d="M4.47213595499958,0A4.47213595499958,4.47213595499958,0,1,1,-4.47213595499958,0A4.47213595499958,4.47213595499958,0,1,1,4.47213595499958,0" style="fill: #4c78a8; stroke-width: 2; opacity: 1;"></path><path transform="translate(120,450.7392849230769)" d="M4.47213595499958,0A4.47213595499958,4.47213595499958,0,1,1,-4.47213595499958,0A4.47213595499958,4.47213595499958,0,1,1,4.47213595499958,0" style="fill: #4c78a8; stroke-width: 2; opacity: 1;"></path><path transform="translate(150,489.5246353846154)" d="M4.47213595499958,0A4.47213595499958,4.47213595499958,0,1,1,-4.47213595499958,0A4.47213595499958,4.47213595499958,0,1,1,4.47213595499958,0" style="fill: #4c78a8; stroke-width: 2; opacity: 1;"></path><path transform="translate(180,460.3242881538461)" d="M4.47213595499958,0A4.47213595499958,4.47213595499958,0,1,1,-4.47213595499958,0A4.47213595499958,4.47213595499958,0,1,1,4.47213595499958,0" style="fill: #4c78a8; stroke-width: 2; opacity: 1;"></path><path transform="translate(210,465.7202218153846)" d="M4.47213595499958,0A4.47213595499958,4.47213595499958,0,1,1,-4.47213595499958,0A4.47213595499958,4.47213595499958,0,1,1,4.47213595499958,0" style="fill: #4c78a8; stroke-width: 2; opacity: 1;"></path><path transform="translate(240,480.81163846153845)" d="M4.47213595499958,0A4.47213595499958,4.47213595499958,0,1,1,-4.47213595499958,0A4.47213595499958,4.47213595499958,0,1,1,4.47213595499958,0" style="fill: #4c78a8; stroke-width: 2; opacity: 1;"></path><path transform="translate(270,482.59117569230773)" d="M4.47213595499958,0A4.47213595499958,4.47213595499958,0,1,1,-4.47213595499958,0A4.47213595499958,4.47213595499958,0,1,1,4.47213595499958,0" style="fill: #4c78a8; stroke-width: 2; opacity: 1;"></path><path transform="translate(300,485.2620992307692)" d="M4.47213595499958,0A4.47213595499958,4.47213595499958,0,1,1,-4.47213595499958,0A4.47213595499958,4.47213595499958,0,1,1,4.47213595499958,0" style="fill: #4c78a8; stroke-width: 2; opacity: 1;"></path><path transform="translate(330,521.7217015384615)" d="M4.47213595499958,0A4.47213595499958,4.47213595499958,0,1,1,-4.47213595499958,0A4.47213595499958,4.47213595499958,0,1,1,4.47213595499958,0" style="fill: #4c78a8; stroke-width: 2; opacity: 1;"></path><path transform="translate(360,564.5617661538462)" d="M4.47213595499958,0A4.47213595499958,4.47213595499958,0,1,1,-4.47213595499958,0A4.47213595499958,4.47213595499958,0,1,1,4.47213595499958,0" style="fill: #4c78a8; stroke-width: 2; opacity: 1;"></path><path transform="translate(390,490.7469323076923)" d="M4.47213595499958,0A4.47213595499958,4.47213595499958,0,1,1,-4.47213595499958,0A4.47213595499958,4.47213595499958,0,1,1,4.47213595499958,0" style="fill: #4c78a8; stroke-width: 2; opacity: 1;"></path><path transform="translate(420,525.5464892307692)" d="M4.47213595499958,0A4.47213595499958,4.47213595499958,0,1,1,-4.47213595499958,0A4.47213595499958,4.47213595499958,0,1,1,4.47213595499958,0" style="fill: #4c78a8; stroke-width: 2; opacity: 1;"></path><path transform="translate(450,528.8215615384615)" d="M4.47213595499958,0A4.47213595499958,4.47213595499958,0,1,1,-4.47213595499958,0A4.47213595499958,4.47213595499958,0,1,1,4.47213595499958,0" style="fill: #4c78a8; stroke-width: 2; opacity: 1;"></path><path transform="translate(480,492.30769153846154)" d="M4.47213595499958,0A4.47213595499958,4.47213595499958,0,1,1,-4.47213595499958,0A4.47213595499958,4.47213595499958,0,1,1,4.47213595499958,0" style="fill: #4c78a8; stroke-width: 2; opacity: 1;"></path><path transform="translate(510,461.5384615384615)" d="M4.47213595499958,0A4.47213595499958,4.47213595499958,0,1,1,-4.47213595499958,0A4.47213595499958,4.47213595499958,0,1,1,4.47213595499958,0" style="fill: #4c78a8; stroke-width: 2; opacity: 1;"></path><path transform="translate(540,461.5384615384615)" d="M4.47213595499958,0A4.47213595499958,4.47213595499958,0,1,1,-4.47213595499958,0A4.47213595499958,4.47213595499958,0,1,1,4.47213595499958,0" style="fill: #4c78a8; stroke-width: 2; opacity: 1;"></path><path transform="translate(600,461.5384615384615)" d="M4.47213595499958,0A4.47213595499958,4.47213595499958,0,1,1,-4.47213595499958,0A4.47213595499958,4.47213595499958,0,1,1,4.47213595499958,0" style="fill: #4c78a8; stroke-width: 2; opacity: 1;"></path></g><g class="mark-group role-legend"><g transform="translate(0,650)"><path class="background" d="M0,0h120v45h-120Z" style="pointer-events: none; fill: none;"></path><g><g class="mark-group role-legend-entry"><g transform="translate(0,16)"><path class="background" d="M0,0h0v0h0Z" style="pointer-events: none; fill: none;"></path><g><g class="mark-group role-scope"><g transform="translate(0,0)"><path class="background" d="M0,0h120v12.5h-120Z" style="pointer-events: none; fill: none; opacity: 1;"></path><g><g class="mark-symbol role-legend-symbol" style="pointer-events: none;"><path transform="translate(6,6)" d="M5,0A5,5,0,1,1,-5,0A5,5,0,1,1,5,0" style="fill: #4c78a8; stroke: #4c78a8; stroke-width: 1.5; opacity: 1;"></path></g><g class="mark-text role-legend-label" style="pointer-events: none;"><text text-anchor="start" transform="translate(16,9)" style="font-family: sans-serif; font-size: 10px; fill: #000; opacity: 1;">dfa reduction</text></g></g><path class="foreground" d="" style="pointer-events: none; display: none; fill: none;"></path></g><g transform="translate(0,16)"><path class="background" d="M0,0h120v12.5h-120Z" style="pointer-events: none; fill: none; opacity: 1;"></path><g><g class="mark-symbol role-legend-symbol" style="pointer-events: none;"><path transform="translate(6,6)" d="M5,0A5,5,0,1,1,-5,0A5,5,0,1,1,5,0" style="fill: #f58518; stroke: #f58518; stroke-width: 1.5; opacity: 1;"></path></g><g class="mark-text role-legend-label" style="pointer-events: none;"><text text-anchor="start" transform="translate(16,9)" style="font-family: sans-serif; font-size: 10px; fill: #000; opacity: 1;">rte reduction</text></g></g><path class="foreground" d="" style="pointer-events: none; display: none; fill: none;"></path></g></g></g><path class="foreground" d="" style="pointer-events: none; display: none; fill: none;"></path></g></g><g class="mark-text role-legend-title" style="pointer-events: none;"><text text-anchor="start" transform="translate(0,9)" style="font-family: sans-serif; font-size: 11px; font-weight: bold; fill: #000; opacity: 1;">Curve color</text></g></g><path class="foreground" d="" style="pointer-events: none; display: none; fill: none;"></path></g></g><g class="mark-group role-legend"><g transform="translate(128,650)"><path class="background" d="M0,0h120v45h-120Z" style="pointer-events: none; fill: none;"></path><g><g class="mark-group role-legend-entry"><g transform="translate(0,16)"><path class="background" d="M0,0h0v0h0Z" style="pointer-events: none; fill: none;"></path><g><g class="mark-group role-scope"><g transform="translate(0,0)"><path class="background" d="M0,0h120v12.5h-120Z" style="pointer-events: none; fill: none; opacity: 1;"></path><g><g class="mark-symbol role-legend-symbol" style="pointer-events: none;"><path transform="translate(6,6)" d="M5,0A5,5,0,1,1,-5,0A5,5,0,1,1,5,0" style="fill: black; fill-opacity: 1; stroke: none; stroke-width: 1.5; opacity: 1;"></path></g><g class="mark-text role-legend-label" style="pointer-events: none;"><text text-anchor="start" transform="translate(16,9)" style="font-family: sans-serif; font-size: 10px; fill: #000; opacity: 1;">dfa reduction</text></g></g><path class="foreground" d="" style="pointer-events: none; display: none; fill: none;"></path></g><g transform="translate(0,16)"><path class="background" d="M0,0h120v12.5h-120Z" style="pointer-events: none; fill: none; opacity: 1;"></path><g><g class="mark-symbol role-legend-symbol" style="pointer-events: none;"><path transform="translate(6,6)" d="M-5,-5h10v10h-10Z" style="fill: black; fill-opacity: 1; stroke: none; stroke-width: 1.5; opacity: 1;"></path></g><g class="mark-text role-legend-label" style="pointer-events: none;"><text text-anchor="start" transform="translate(16,9)" style="font-family: sans-serif; font-size: 10px; fill: #000; opacity: 1;">rte reduction</text></g></g><path class="foreground" d="" style="pointer-events: none; display: none; fill: none;"></path></g></g></g><path class="foreground" d="" style="pointer-events: none; display: none; fill: none;"></path></g></g><g class="mark-text role-legend-title" style="pointer-events: none;"><text text-anchor="start" transform="translate(0,9)" style="font-family: sans-serif; font-size: 11px; font-weight: bold; fill: #000; opacity: 1;">Curve shape</text></g></g><path class="foreground" d="" style="pointer-events: none; display: none; fill: none;"></path></g></g><g class="mark-group role-title"><g transform="translate(300,-22)"><path class="background" d="M0,0h0v0h0Z" style="pointer-events: none; fill: none;"></path><g><g class="mark-text role-title-text" style="pointer-events: none;"><text text-anchor="middle" transform="translate(0,10)" style="font-family: sans-serif; font-size: 13px; font-weight: bold; fill: #000; opacity: 1;">Reduction vs Imbalance</text></g></g><path class="foreground" d="" style="pointer-events: none; display: none; fill: none;"></path></g></g></g><path class="foreground" d="" style="display: none; fill: none;"></path></g></g></g></svg>